<?xml version="1.0" encoding="UTF-8"?>
<svg version="1.1" xmlns="http://www.w3.org/2000/svg" width="233" height="239">
<path d="M0 0 C76.89 0 153.78 0 233 0 C233 78.87 233 157.74 233 239 C156.11 239 79.22 239 0 239 C0 160.13 0 81.26 0 0 Z " fill="#3C3C98" transform="translate(0,0)"/>
<path d="M0 0 C37.95 0 75.9 0 115 0 C111.50690057 2.79447954 108.64931982 4.90236964 104.83203125 7.0234375 C103.85556641 7.57 102.87910156 8.1165625 101.87304688 8.6796875 C100.35807617 9.51886719 100.35807617 9.51886719 98.8125 10.375 C94.86830544 12.57163666 90.93109552 14.78000918 87 17 C86.04399902 17.53141602 85.08799805 18.06283203 84.10302734 18.61035156 C83.20664551 19.12307617 82.31026367 19.63580078 81.38671875 20.1640625 C80.58838623 20.61475098 79.79005371 21.06543945 78.9675293 21.52978516 C76.78500881 23.16064983 75.99769089 24.49453071 75 27 C75.9384375 27.55429687 76.876875 28.10859375 77.84375 28.6796875 C79.06272984 29.4110754 80.28146745 30.14286714 81.5 30.875 C82.12003906 31.23980469 82.74007812 31.60460937 83.37890625 31.98046875 C84.95367458 32.9322518 86.48129053 33.96110259 88 35 C88 35.66 88 36.32 88 37 C82.86851846 36.26825444 79.27661738 33.94893716 74.9140625 31.27734375 C71.1529778 29.62871815 69.09184983 29.41848192 65 30 C61.51952933 31.57837082 58.34989415 33.58277079 55.125 35.625 C53.18293448 36.8182753 51.23883842 38.00825072 49.29296875 39.1953125 C47.76615479 40.12972168 47.76615479 40.12972168 46.20849609 41.08300781 C39.65607846 44.99790533 32.92908968 48.61486942 26.21337891 52.24072266 C25.2135498 52.79034668 24.2137207 53.3399707 23.18359375 53.90625 C22.30243896 54.38384766 21.42128418 54.86144531 20.51342773 55.35351562 C17.50140979 57.32661412 15.33009088 59.23993275 13 62 C12.2747808 65.20185571 12.2747808 65.20185571 12.41650391 68.74169922 C12.41420147 69.4022336 12.41189903 70.06276798 12.40952682 70.74331856 C12.40799528 72.93123629 12.44212095 75.11706395 12.4765625 77.3046875 C12.48286549 78.85212503 12.48702405 80.3995726 12.48916626 81.94702148 C12.50142399 86.0733318 12.54497922 90.1987381 12.59596252 94.32472992 C12.64423327 98.56419722 12.66737828 102.80381094 12.69433594 107.04345703 C12.74622647 114.4811991 12.82535431 121.91833792 12.9196701 129.35565376 C12.99129955 135.05382547 13.03858471 140.75191502 13.0776062 146.45040894 C13.10704991 150.12172028 13.15491433 153.79248665 13.21356201 157.46343994 C13.23768812 159.06016771 13.25636024 160.656988 13.26934814 162.25384521 C13.29016402 164.39673354 13.33600171 166.5374333 13.390625 168.6796875 C13.41157227 169.82163574 13.43251953 170.96358398 13.45410156 172.14013672 C14.13489827 175.70670764 15.17257856 176.77509907 18 179 C19.64650882 180.05872288 21.33459985 181.05449573 23.05078125 181.99609375 C24.04787109 182.54813477 25.04496094 183.10017578 26.07226562 183.66894531 C27.14154297 184.25256836 28.21082031 184.83619141 29.3125 185.4375 C31.57967109 186.69096501 33.84659266 187.94488142 36.11328125 189.19921875 C37.2626416 189.83263184 38.41200195 190.46604492 39.59619141 191.11865234 C56.58303219 200.50759189 73.47238704 210.08741063 89.97509766 220.30688477 C105.75093021 231.14444302 105.75093021 231.14444302 124 233 C126.53155116 231.88307423 126.53155116 231.88307423 129.02734375 230.390625 C129.98374756 229.84825195 130.94015137 229.30587891 131.92553711 228.74707031 C132.94010986 228.17053711 133.95468262 227.59400391 135 227 C137.14332516 225.84948187 139.28921956 224.70373874 141.4375 223.5625 C143.62540697 222.37574998 145.81290418 221.18824423 148 220 C149.67642578 219.11441406 149.67642578 219.11441406 151.38671875 218.2109375 C152.45535156 217.62570313 153.52398437 217.04046875 154.625 216.4375 C155.58664063 215.92058594 156.54828125 215.40367187 157.5390625 214.87109375 C160.2386586 213.10722221 160.2386586 213.10722221 161.55664062 209.84570312 C163 207 163 207 165.07617188 206.20507812 C165.86572266 206.14771484 166.65527344 206.09035156 167.46875 206.03125 C174.06449225 205.06578628 178.8950337 201.96278987 184.5 198.5 C186.61226666 197.22878138 188.72555839 195.95926455 190.83984375 194.69140625 C191.87737793 194.06508301 192.91491211 193.43875977 193.98388672 192.79345703 C198.9821676 189.82135315 204.08330775 187.04126225 209.203125 184.28515625 C209.86957031 183.92164063 210.53601563 183.558125 211.22265625 183.18359375 C211.78734619 182.87993896 212.35203613 182.57628418 212.93383789 182.26342773 C213.61567139 181.84649658 214.29750488 181.42956543 215 181 C215.56028491 180.72699759 216.12056982 180.45399517 216.69783306 180.17271996 C219.73623476 178.4515094 221.6603788 177.1509539 222.67473698 173.71336079 C222.95667563 170.76173974 223.0143194 167.8761421 223.00097656 164.91088867 C223.02288055 163.7915947 223.04478455 162.67230072 223.06735229 161.51908875 C223.12875837 157.81812964 223.13755319 154.11940653 223.140625 150.41796875 C223.16057918 147.84352184 223.18173457 145.26908398 223.20404053 142.69465637 C223.2414497 137.29674479 223.25076483 131.8997144 223.2421875 126.50170898 C223.23315003 120.27508307 223.29815405 114.05225314 223.39847589 107.82651347 C223.49172034 101.82308592 223.51247754 95.82169036 223.50597382 89.81743813 C223.51238126 87.27006553 223.53969958 84.72265538 223.58844757 82.1757412 C224.43241468 69.68823462 224.43241468 69.68823462 220.75137329 58.18452072 C217.32122148 54.96014823 213.4159382 53.5493939 209 52 C206.90447664 50.82592643 204.82765028 49.61711614 202.78125 48.359375 C200.68866765 47.15422027 198.59488725 45.95114372 196.5 44.75 C195.37416504 44.10232666 194.24833008 43.45465332 193.08837891 42.78735352 C186.19222265 38.82281886 179.28510184 34.87765739 172.375 30.9375 C131.07834948 7.38556632 131.07834948 7.38556632 120 0 C157.29 0 194.58 0 233 0 C233 78.87 233 157.74 233 239 C156.11 239 79.22 239 0 239 C0 160.13 0 81.26 0 0 Z "  transform="translate(0,0)"/>
<path d="M0 0 C3.21184737 1.27964435 6.14150829 2.94870778 9.125 4.6875 C10.40552246 5.41223511 10.40552246 5.41223511 11.71191406 6.15161133 C21.63835051 11.82656695 31.33861631 17.88766614 41 24 C39.24967353 27.83327409 37.66424667 29.14681073 34 31.3125 C33.45819092 31.63589355 32.91638184 31.95928711 32.3581543 32.29248047 C30.24730175 33.54341808 28.12451522 34.77239802 26 36 C25.01080566 36.57314941 24.02161133 37.14629883 23.00244141 37.73681641 C17.41045177 40.97402244 11.81180085 44.19904375 6.20703125 47.4140625 C-2.88929925 52.03184479 -2.88929925 52.03184479 -11 58 C-11.24233456 60.41969133 -11.4180921 62.8115984 -11.546875 65.23828125 C-11.58850769 65.99200516 -11.63014038 66.74572906 -11.67303467 67.52229309 C-12.11247236 76.1681801 -12.2214122 84.81412089 -12.24023438 93.4699707 C-12.25012795 96.22310583 -12.28137929 98.97554835 -12.3125 101.72851562 C-12.31901614 103.49999567 -12.32427203 105.27148091 -12.328125 107.04296875 C-12.3404718 107.85549606 -12.3528186 108.66802338 -12.36553955 109.50517273 C-12.34634122 114.40232497 -11.74178732 117.77304458 -9 122 C-6.62116176 123.73222136 -4.43993966 125.11309256 -1.875 126.5 C-0.76813843 127.12503418 -0.76813843 127.12503418 0.36108398 127.76269531 C2.89886091 129.19095544 5.44919994 130.59514468 8 132 C9.94747834 133.08699559 11.89405798 134.17560251 13.83984375 135.265625 C16.98860285 137.02937066 20.13790981 138.79203693 23.2902832 140.54931641 C31.49554927 145.12960062 39.62427052 149.82974432 47.72827148 154.58642578 C53.30667523 157.85673003 58.90075397 161.09658844 64.51953125 164.296875 C65.15371475 164.65818512 65.78789825 165.01949524 66.44129944 165.39175415 C69.53812813 167.15503975 72.63678311 168.91503454 75.73754883 170.67138672 C76.85798584 171.30834473 77.97842285 171.94530273 79.1328125 172.6015625 C80.12168457 173.16182129 81.11055664 173.72208008 82.12939453 174.29931641 C85.16786966 176.09945399 88.07860156 178.01682928 91 180 C88.94788733 183.95206301 87.22798873 185.82763343 83.28125 187.8671875 C82.35352783 188.35727295 81.42580566 188.8473584 80.4699707 189.35229492 C79.48988037 189.8547876 78.50979004 190.35728027 77.5 190.875 C75.50233489 191.92801394 73.50622137 192.98397699 71.51171875 194.04296875 C70.07965088 194.8016626 70.07965088 194.8016626 68.61865234 195.57568359 C64.57469841 197.77523862 60.74545957 200.2235943 56.92578125 202.79296875 C51.96703098 205.9009887 46.62622299 205.87724227 41 205 C31.20149312 201.30304984 22.45184626 195.50095918 13.69238281 189.84448242 C4.10953237 183.69456517 -5.86753594 178.26263252 -15.82910156 172.75683594 C-27.55982717 166.25742868 -39.25979673 159.68685619 -50.8125 152.875 C-51.42303223 152.52074951 -52.03356445 152.16649902 -52.66259766 151.80151367 C-55.58926115 150.05398997 -57.06797214 148.8980418 -59 146 C-59.31884766 143.25366211 -59.31884766 143.25366211 -59.4140625 139.77734375 C-59.43370056 139.11673447 -59.45333862 138.45612518 -59.47357178 137.77549744 C-59.53618354 135.49629037 -59.58189322 133.21715617 -59.625 130.9375 C-59.64201965 130.13918762 -59.65903931 129.34087524 -59.67657471 128.51837158 C-59.79921931 122.61472566 -59.88252699 116.71092814 -59.95385742 110.80645752 C-59.98679777 108.0890969 -60.02140295 105.37179279 -60.05786133 102.65447998 C-60.17767662 93.60368781 -60.27168046 84.55315248 -60.32502556 75.50170803 C-60.35003562 71.26254786 -60.38273717 67.02380287 -60.43487549 62.78488159 C-60.48394742 58.72385431 -60.5080744 54.66339524 -60.51395416 50.60208321 C-60.52022443 49.08307419 -60.53510875 47.56407378 -60.55904388 46.0452404 C-60.59061157 43.94339144 -60.59084121 41.84372237 -60.58349609 39.74169922 C-60.59158295 38.55583221 -60.5996698 37.36996521 -60.60800171 36.14816284 C-59.6721002 31.30217257 -56.67451936 29.16397961 -52.75708008 26.44091797 C-51.99806396 26.00408691 -51.23904785 25.56725586 -50.45703125 25.1171875 C-49.15113037 24.36066895 -49.15113037 24.36066895 -47.81884766 23.58886719 C-46.42351807 22.80237793 -46.42351807 22.80237793 -45 22 C-44.02981934 21.4524707 -43.05963867 20.90494141 -42.06005859 20.34082031 C-38.94085102 18.59310478 -35.81522072 16.85743015 -32.6875 15.125 C-24.81480677 10.76280649 -17.07635566 6.34455302 -9.6484375 1.2578125 C-6.06632002 -0.44342914 -3.94550863 -0.51588763 0 0 Z " fill="#026367" transform="translate(72,29)"/>
<path d="M0 0 C3.44058168 1.14794081 6.52795755 2.76141673 9.67578125 4.546875 C10.57361328 5.05476563 11.47144531 5.56265625 12.39648438 6.0859375 C13.35876953 6.63507812 14.32105469 7.18421875 15.3125 7.75 C16.32505859 8.32492188 17.33761719 8.89984375 18.38085938 9.4921875 C26.61856933 14.18204825 34.80621549 18.95588053 42.98413086 23.74902344 C50.99719675 28.43774895 59.06451262 33.02493704 67.1640625 37.5625 C69.78164021 39.03201731 72.39147097 40.51449161 75 42 C75.90524414 42.5053125 76.81048828 43.010625 77.74316406 43.53125 C78.62456055 44.0365625 79.50595703 44.541875 80.4140625 45.0625 C81.59282959 45.72958984 81.59282959 45.72958984 82.79541016 46.41015625 C86.29725839 48.93552012 88.70874481 51.43649268 89.5146637 55.76280212 C89.52086227 56.76396561 89.52706085 57.76512909 89.53344727 58.79663086 C89.5492836 59.93809067 89.56511993 61.07955048 89.58143616 62.25559998 C89.57647629 63.47965042 89.57151642 64.70370087 89.56640625 65.96484375 C89.57260483 67.23090958 89.57880341 68.4969754 89.58518982 69.80140686 C89.59229035 72.47746031 89.5910588 75.15200916 89.57641602 77.82788086 C89.55923794 81.24570732 89.5827156 84.661851 89.61790562 88.07948971 C89.6452331 91.35379369 89.63513951 94.62795795 89.62890625 97.90234375 C89.64216446 99.12436996 89.65542267 100.34639618 89.66908264 101.60545349 C89.56551647 111.06384549 89.56551647 111.06384549 86.74365234 114.64648438 C84.35353971 116.69673226 82.2615171 118.3194735 79.47265625 119.75390625 C78.60825928 120.20975098 77.7438623 120.6655957 76.85327148 121.13525391 C75.93231689 121.60624512 75.0113623 122.07723633 74.0625 122.5625 C72.09444955 123.59925712 70.12836085 124.63974515 68.1640625 125.68359375 C67.1524707 126.22097168 66.14087891 126.75834961 65.09863281 127.31201172 C59.00884294 130.62944058 53.0816519 134.22574632 47.14672852 137.81079102 C45.85013306 138.58894165 45.85013306 138.58894165 44.52734375 139.3828125 C43.77187256 139.84059082 43.01640137 140.29836914 42.23803711 140.77001953 C39.88561461 142.06286393 37.50944902 143.05325709 35 144 C38.29612388 148.88378564 42.039077 150.98258093 47.125 153.625 C53.91835171 157.26764928 60.56338775 161.07887021 67.125 165.125 C67.91277832 165.61049316 68.70055664 166.09598633 69.51220703 166.59619141 C71.34332943 167.7277931 73.17196376 168.86341955 75 170 C74.67 170.99 74.34 171.98 74 173 C60.48762247 165.30662359 46.98290589 157.60308556 33.5625 149.75 C26.24578497 145.47065004 18.92022955 141.20851768 11.5625 137 C10.73065186 136.52409424 9.89880371 136.04818848 9.04174805 135.55786133 C4.12498496 132.75477678 -0.81131389 129.98934725 -5.76171875 127.24609375 C-6.90261963 126.61251953 -8.04352051 125.97894531 -9.21899414 125.32617188 C-11.44869469 124.08977567 -13.68086818 122.8578261 -15.91577148 121.63085938 C-16.92583252 121.07076172 -17.93589355 120.51066406 -18.9765625 119.93359375 C-19.87455566 119.43915771 -20.77254883 118.94472168 -21.69775391 118.43530273 C-25.76298627 115.90089117 -27.65741128 113.65367331 -29 109 C-29.26917241 106.04387389 -29.25653762 103.10717803 -29.23046875 100.140625 C-29.23001053 99.27798035 -29.22955231 98.41533569 -29.2290802 97.52655029 C-29.22606294 95.6975365 -29.21819238 93.86852515 -29.20581055 92.03955078 C-29.18783482 89.30100914 -29.18529931 86.5628126 -29.18554688 83.82421875 C-29.17837825 79.40012475 -29.12930131 74.97825028 -29.04681396 70.55493164 C-29.01579742 68.86216451 -28.99101925 67.1692707 -28.97271729 65.47631836 C-28.94130145 63.12334819 -28.87640111 60.77378862 -28.80078125 58.421875 C-28.79580124 57.72652649 -28.79082123 57.03117798 -28.78569031 56.3147583 C-28.63404752 52.84176661 -28.27501704 51.28369529 -25.82592773 48.75732422 C-22.90177426 46.93891759 -19.98419154 45.15258087 -16.984375 43.4609375 C-16.41526398 43.13825897 -15.84615295 42.81558044 -15.25979614 42.48312378 C-14.04888688 41.79701802 -12.83691604 41.11278289 -11.6239624 40.43029785 C-9.73357414 39.36574999 -7.84698277 38.29475893 -5.96142578 37.22167969 C-1.33192309 34.58749422 3.30018953 31.9580134 7.94042969 29.34277344 C10.34080468 27.98791105 12.73377358 26.62091993 15.125 25.25 C15.80981445 24.8689209 16.49462891 24.4878418 17.20019531 24.09521484 C20.67653112 22.08837973 22.40562339 20.65763145 24 17 C23.28344238 16.58637207 22.56688477 16.17274414 21.82861328 15.74658203 C18.59219076 13.87596028 15.35857172 12.000545 12.125 10.125 C10.43310547 9.14853516 10.43310547 9.14853516 8.70703125 8.15234375 C7.63066406 7.52714844 6.55429688 6.90195312 5.4453125 6.2578125 C4.45031738 5.6817627 3.45532227 5.10571289 2.43017578 4.51220703 C0 3 0 3 -2 1 C-1.34 0.67 -0.68 0.34 0 0 Z " fill="#FAFBFB" transform="translate(88,36)"/>
<path d="M0 0 C8.43772989 2.71996997 16.73771457 5.49884022 24.8125 9.1875 C25.58658203 9.52974609 26.36066406 9.87199219 27.15820312 10.22460938 C32.7312748 12.7312748 32.7312748 12.7312748 35 15 C35.625 17.125 35.625 17.125 36 19 C36.94617188 18.79503906 37.89234375 18.59007813 38.8671875 18.37890625 C46.37301461 16.82644028 53.64705875 15.78228292 61.3125 15.5 C77.12895872 14.83945184 90.56225865 8.5751999 104.37890625 1.1015625 C107.1772916 -0.07451003 109.00652638 -0.08821816 112 0 C112.09890033 5.90815343 112.17148371 11.81582472 112.21972656 17.72460938 C112.23983805 19.73446038 112.26713115 21.74425291 112.30175781 23.75390625 C112.35029634 26.64337596 112.37297322 29.53207191 112.390625 32.421875 C112.41127014 33.31992859 112.43191528 34.21798218 112.45318604 35.14324951 C112.45542845 41.38208624 112.45542845 41.38208624 110.15307617 44.50585938 C107.55249027 46.31055217 104.99381054 47.55233971 102.0625 48.75 C101.04285156 49.17796875 100.02320313 49.6059375 98.97265625 50.046875 C96.08051295 50.97418507 94.00533406 51.18816005 91 51 C90.34 51 89.68 51 89 51 C88.34 52.65 87.68 54.3 87 56 C85.02 56 83.04 56 81 56 C81 57.98 81 59.96 81 62 C78.36 62 75.72 62 73 62 C73.020625 62.804375 73.04125 63.60875 73.0625 64.4375 C73 67 73 67 72 68 C69.66702567 68.04092937 67.33294775 68.04241723 65 68 C64.34 69.65 63.68 71.3 63 73 C56.375 73.25 56.375 73.25 53 71 C51.37640567 70.92928596 49.74998868 70.91580134 48.125 70.9375 C40.27641001 70.39477835 34.97200506 65.71265651 29 61 C28.06285156 60.319375 27.12570313 59.63875 26.16015625 58.9375 C23.16384946 56.25003496 23.36736893 53.89411067 23 50 C22.34 49.67 21.68 49.34 21 49 C20.67 49.66 20.34 50.32 20 51 C17.97421838 50.65272315 15.95439252 50.27064746 13.9375 49.875 C12.81214844 49.66617188 11.68679687 49.45734375 10.52734375 49.2421875 C6.07008666 47.67252221 2.93144879 45.75296726 0 42 C-0.92939608 38.71658035 -0.82159024 35.61729487 -0.68359375 32.2265625 C-0.67368912 31.3028183 -0.66378448 30.3790741 -0.65357971 29.42733765 C-0.61455114 26.49157499 -0.52675601 23.55962227 -0.4375 20.625 C-0.402371 18.62896045 -0.37043477 16.63286198 -0.34179688 14.63671875 C-0.2648273 9.7563559 -0.14412832 4.87882266 0 0 Z " fill="#262626" transform="translate(62,92)"/>
<path d="M0 0 C0.71663818 -0.00161133 1.43327637 -0.00322266 2.17163086 -0.00488281 C7.66752509 0.10917933 13.28588218 0.47021611 17.5 4.3125 C21.55018735 10.927806 25.4103677 17.43718096 24.375 25.375 C23.375 26.375 23.375 26.375 20.8828125 26.8125 C15.70636872 26.16688563 12.44293585 23.33666033 8.25 20.375 C0.7579417 15.36427813 -4.45606768 12.66508164 -13.625 14.375 C-15.49853001 14.59616297 -17.37355107 14.80514826 -19.25 15 C-20.04664062 15.11601563 -20.84328125 15.23203125 -21.6640625 15.3515625 C-22.31117187 15.35929687 -22.95828125 15.36703125 -23.625 15.375 C-25.625 13.375 -25.625 13.375 -25.75 10.75 C-25.70875 9.96625 -25.6675 9.1825 -25.625 8.375 C-23.73608522 7.41337066 -21.84380559 6.45792633 -19.9375 5.53125 C-17.65867987 4.42764899 -17.65867987 4.42764899 -15.6875 3.21875 C-10.49936206 0.38148707 -5.80065305 0.0124705 0 0 Z " fill="#F4F4F4" transform="translate(124.625,111.625)"/>
<path d="M0 0 C0.33 0 0.66 0 1 0 C1 13.53 1 27.06 1 41 C0.34 41 -0.32 41 -1 41 C-1 44.96 -1 48.92 -1 53 C-1.33 53 -1.66 53 -2 53 C-2.04991171 47.38070937 -2.08595882 41.76155141 -2.10986328 36.14208984 C-2.1198421 34.23549142 -2.13342996 32.32890798 -2.15087891 30.42236328 C-2.3319431 10.11122115 -2.3319431 10.11122115 0 0 Z " fill="#CDD9D9" transform="translate(61,92)"/>
<path d="M0 0 C6.23626831 1.62730907 11.40907507 5.01611555 16.875 8.3125 C17.83019531 8.88162109 18.78539062 9.45074219 19.76953125 10.03710938 C25.22100787 13.29378711 30.62730863 16.61507742 36 20 C35.505 21.485 35.505 21.485 35 23 C31.15762786 20.81505397 27.31654001 18.62787123 23.4765625 16.4387207 C22.1735171 15.69626166 20.87013914 14.95438593 19.56640625 14.21313477 C12.62883495 10.26818912 5.72366297 6.30416304 -1 2 C-0.67 1.34 -0.34 0.68 0 0 Z " fill="#E6EBF0" transform="translate(127,186)"/>
<path d="M0 0 C3.7910119 1.44950455 7.3874638 3.15172566 11 5 C10.01 6.485 10.01 6.485 9 8 C5.37 6.02 1.74 4.04 -2 2 C-1.34 1.34 -0.68 0.68 0 0 Z " fill="#E3E9EE" transform="translate(88,36)"/>
<path d="M0 0 C1.98 0.66 3.96 1.32 6 2 C5.01 3.485 5.01 3.485 4 5 C2.35 4.01 0.7 3.02 -1 2 C-0.67 1.34 -0.34 0.68 0 0 Z " fill="#E3E8EE" transform="translate(127,186)"/>
</svg>
