<svg width="500" height="auto" viewBox="0 0 1200 1020" fill="none" xmlns="http://www.w3.org/2000/svg">
<g id="epr_recycle">
<path id="bg" opacity="0.32" d="M217.831 928.175C125.204 893.76 56.5582 787.621 79.6037 734.517C107.815 669.498 262.382 709.568 285.359 648.995C307.265 591.227 172.846 538.42 149.344 402.451C132.947 307.532 173.827 190.697 241.994 166.158C316.569 139.292 372.444 241.406 460.601 216.103C530.626 195.999 519.623 124.594 605.67 66.0395C684.567 12.3541 818.336 -12.3334 896.731 54.0777C952.857 101.628 967.43 184.688 959.037 246.047C941.898 371.355 826.933 421.14 847.904 473.377C869.284 526.641 992.756 484.758 1031.54 544.749C1076.73 614.649 989.586 795.945 849.226 858.411C754.901 900.385 724.329 849.619 551.255 870.179C360.642 892.825 314.848 964.242 217.854 928.197L217.831 928.175Z" fill="#DAEEF4"></path>
<g id="grass_2">
<g id="backside_grass_2">
<path id="Vector" d="M365.842 908.037C352.363 849.711 306.558 791.19 258.779 755.111C247.125 746.32 229.496 738.577 221.617 755.168C216.542 765.842 203.942 761.349 197.169 755.282C188.776 747.768 184.694 736.764 177.863 728.018C172.367 720.982 164.989 715.201 156.414 712.715C147.839 710.229 138.044 711.335 130.872 716.649C125.432 720.686 121.704 726.855 115.82 730.207C105.956 735.829 93.1276 731.701 84.2447 724.62C75.3618 717.539 68.8735 707.88 60.344 700.377C51.8146 692.874 39.7274 687.571 29.1568 691.711C15.1425 697.207 11.5962 716.033 15.4618 730.572C17.845 739.558 21.7563 752.637 27.4692 760.152C35.5767 770.825 48.3024 778.818 60.9142 782.946C70.1962 785.991 80.0484 787.154 89.205 790.563C92.5119 791.795 96.2521 793.722 96.4459 797.736C96.731 803.529 89.2848 806.14 84.9289 807.702C77.3915 810.405 69.4094 817.315 71.8268 824.943C73.3434 829.721 78.4064 832.401 83.207 833.849C97.6432 838.182 112.798 835.731 127.314 833.142C136.14 831.568 144.27 827.178 153.267 825.992C157.954 825.377 169.63 826.3 167.43 833.815C166.745 836.164 164.784 837.92 162.754 839.277C160.713 840.634 158.478 841.729 156.699 843.416C148.991 850.748 154.453 861.159 162.994 864.375C169.562 866.838 176.837 865.971 183.804 865.23C229.382 860.35 276.317 862.083 319.796 876.622C329.056 879.723 339.045 884.25 342.751 893.282" fill="#B5EFAA"></path>
<path id="Vector_2" opacity="0.52" d="M322.419 866.963C293.558 832.789 252.838 807.565 208.458 796.345C180.805 789.354 152.115 787.701 124.224 781.783C96.3204 775.865 67.9954 764.77 49.9216 743.537" stroke="#201F1A" stroke-linecap="round" stroke-linejoin="round"></path>
</g>
<g id="front_grass_2">
<path id="Vector_3" d="M335.419 866.051C334.62 843.599 327.619 820.542 326.57 797.679C324.894 761.041 328.406 724.836 339.432 690.012C348.84 660.318 362.17 629.667 355.67 597.647C353.948 589.141 349.992 579.699 339.387 578.479C335.133 577.989 330.892 579.266 327.493 581.592C318.93 587.487 316.284 597.146 313.867 606.393L305.782 637.296C303.159 647.342 287.435 646.646 285.542 636.315C285.53 636.224 285.508 636.144 285.496 636.053C283.98 627.386 285.53 618.606 287.264 610.077C291.049 591.512 295.77 572.914 295.212 553.883C294.527 530.86 284.972 506.412 261.869 494.94C253.682 490.87 244.263 489.33 235.3 490.733C210.259 494.655 202.562 516.846 205.048 536.539C206.804 550.393 212.882 563.507 218.298 576.609C231.526 608.594 218.88 635.882 218.994 669.84C219.245 741.77 280.091 818.786 335.407 866.04L335.419 866.051Z" fill="#84E572"></path>
<path id="Vector_4" opacity="0.32" d="M242.108 533.22C285.188 600.749 249.018 743.161 327.63 832.15" stroke="#201F1A" stroke-linecap="round" stroke-linejoin="round"></path>
<path id="Vector_5" opacity="0.32" d="M332.066 617.375C334.027 649.063 309.819 681.368 302.829 700.069C295.827 718.77 289.339 751.291 291.905 771.269" stroke="#201F1A" stroke-linecap="round" stroke-linejoin="round"></path>
</g>
</g>
<g id="grass_1">
<g id="backside_grass_1">
<path id="Vector_6" d="M868.623 882.186C875.008 824.67 912.422 763.31 954.248 723.297C964.442 713.536 980.509 704.128 989.939 719.169C996.006 728.85 1007.6 723.114 1013.43 716.535C1020.65 708.382 1023.33 697.355 1028.9 688.187C1033.38 680.809 1039.83 674.435 1047.78 671.071C1055.73 667.719 1065.27 667.673 1072.75 671.983C1078.43 675.245 1082.69 680.752 1088.72 683.307C1098.83 687.594 1110.69 682.189 1118.42 674.389C1126.15 666.59 1131.3 656.589 1138.65 648.425C1146 640.26 1157 633.806 1167.62 636.6C1181.69 640.306 1187.21 657.981 1185.14 672.383C1183.86 681.277 1181.57 694.276 1176.94 702.133C1170.35 713.285 1159.02 722.396 1147.39 727.778C1138.82 731.747 1129.49 733.97 1121.07 738.269C1118.04 739.82 1114.67 742.089 1114.93 745.966C1115.3 751.565 1122.75 753.23 1127.11 754.245C1134.64 755.989 1143.08 761.736 1141.62 769.331C1140.7 774.097 1136.15 777.233 1131.69 779.16C1118.31 784.942 1103.49 784.292 1089.26 783.436C1080.6 782.912 1072.31 779.616 1063.53 779.491C1058.97 779.434 1047.86 781.623 1050.82 788.59C1051.74 790.768 1053.82 792.239 1055.93 793.311C1058.04 794.383 1060.31 795.181 1062.2 796.607C1070.43 802.776 1066.35 813.392 1058.51 817.44C1052.48 820.542 1045.39 820.53 1038.62 820.599C994.295 821.043 949.424 827.976 909.309 846.826C900.768 850.839 891.691 856.313 889.137 865.401" fill="#84E572"></path>
<path id="Vector_7" opacity="0.52" d="M905.705 837.863C929.583 801.806 965.845 773.002 1007.2 757.244C1032.97 747.426 1060.33 742.613 1086.45 733.799C1112.58 724.984 1138.53 711.141 1153.5 688.723" stroke="#201F1A" stroke-linecap="round" stroke-linejoin="round"></path>
</g>
<g id="front_grass_1">
<path id="Vector_8" d="M878.965 857.202C879.957 829.356 888.646 800.757 889.946 772.398C892.022 726.957 887.666 682.052 873.982 638.846C862.317 602.015 845.782 563.997 853.844 524.28C855.988 513.733 860.88 502.01 874.039 500.494C879.307 499.889 884.576 501.463 888.783 504.359C899.411 511.669 902.683 523.653 905.682 535.125L915.706 573.462C918.967 585.925 938.466 585.07 940.815 572.241C940.838 572.139 940.849 572.025 940.872 571.922C942.754 561.169 940.826 550.291 938.671 539.709C933.973 516.686 928.124 493.618 928.819 470.014C929.663 441.449 941.522 411.128 970.178 396.909C980.338 391.869 992.015 389.942 1003.13 391.686C1034.18 396.555 1043.75 424.071 1040.65 448.496C1038.47 465.68 1030.93 481.952 1024.22 498.19C1007.81 537.861 1023.5 571.717 1023.36 613.828C1023.05 703.057 947.577 798.568 878.965 857.191V857.202Z" fill="#B5EFAA"></path>
<path id="Vector_9" opacity="0.32" d="M994.706 444.368C941.271 528.134 986.142 704.778 888.624 815.159" stroke="#201F1A" stroke-linecap="round" stroke-linejoin="round"></path>
<path id="Vector_10" opacity="0.32" d="M883.127 548.751C880.698 588.057 910.711 628.127 919.4 651.333C928.078 674.538 936.14 714.87 932.958 739.637" stroke="#201F1A" stroke-linecap="round" stroke-linejoin="round"></path>
</g>
</g>
<path id="leftside_man_hand" d="M235.734 483.857C235.734 483.857 271.071 492.489 284.082 519.799C297.093 547.121 347.563 564.567 347.563 564.567C347.563 564.567 354.097 610.749 347.563 609.94C341.029 609.13 251.641 585.389 239.554 569.881C227.478 554.373 235.734 483.857 235.734 483.857Z" fill="#81CBFC"></path>
<g id="leftside_man">
<path id="Vector_11" d="M102.843 624.433C102.843 624.433 114.919 636.212 124.885 636.817C134.851 637.421 144.213 628.777 144.213 628.777L129.412 616.28L102.832 624.433H102.843Z" fill="#FFBF9D"></path>
<path id="Vector_12" d="M278.312 963.969C274.618 963.695 273.842 966.74 262.656 963.262C262.462 963.216 262.268 963.182 262.074 963.091C262.074 963.091 231.628 805.216 211.343 731.062C203.417 814.555 192.129 963.091 192.129 963.091C191.935 963.17 191.764 963.216 191.57 963.262C180.383 966.74 179.585 963.684 175.891 963.969C174.1 964.094 153.529 797.508 163.165 686.385L258.209 682.417C273.455 793.448 280.217 964.094 278.312 963.969Z" fill="#0C3C63"></path>
<path id="Vector_13" d="M262.314 959.236C262.314 959.236 261.789 972.977 263.044 977.333C264.298 981.689 274.378 982.305 277.184 983.536C279.989 984.768 286.146 987.778 300.993 989.523C305.178 990.013 305.737 987.014 300.708 984.448C283.991 975.93 278.62 961.483 278.62 961.483L262.314 959.248V959.236Z" fill="#382412"></path>
<path id="Vector_14" d="M192.129 959.236C192.129 959.236 192.653 972.977 191.399 977.333C190.144 981.689 180.064 982.305 177.259 983.536C174.454 984.768 168.296 987.778 153.45 989.523C149.265 990.013 148.706 987.014 153.735 984.448C170.451 975.93 175.822 961.483 175.822 961.483L192.129 959.248V959.236Z" fill="#382412"></path>
<path id="Vector_15" d="M268.392 678.426C268.198 681.95 265.279 683.957 261.869 684.971C249.622 688.598 213.623 691.756 187.841 692.224C171.968 692.509 159.961 691.79 159.744 689.544C158.341 674.994 156.654 659.942 154.841 644.947C145.924 571.523 133.483 498.726 140.005 495.054C168.604 478.953 204.432 480.698 235.734 483.868C248.083 485.122 262.918 519.81 262.109 555.023C261.094 599.415 269.726 652.94 268.403 678.437L268.392 678.426Z" fill="#81CBFC"></path>
<path id="Vector_16" d="M186.324 454.232C186.324 454.232 183.77 454.893 182.675 453.707C181.581 452.521 180.668 437.287 181.843 436.249C183.017 435.212 185.686 434.562 187.465 436.534C189.244 438.507 186.313 454.232 186.313 454.232H186.324Z" fill="#FFBF9D"></path>
<path id="Vector_17" d="M197.476 495.773C194.01 494.69 191.319 492.318 189.722 490.573C188.651 489.41 188.126 487.836 188.308 486.251L191.171 460.526L223.213 458.485L223.76 487.198C219.222 496.195 206.302 498.521 197.488 495.75L197.476 495.773Z" fill="#FFAB91"></path>
<path id="Vector_18" d="M235.084 421.733C235.084 421.733 238.79 426.739 235.277 436.124C229.793 450.777 234.32 447.378 230.488 463.582C229.69 466.935 222.939 479.66 217.078 483.001C210.202 486.924 200.521 483.845 198.047 482.705C195.584 481.565 189.187 479.877 184.853 456.478C183.496 449.146 187.681 410.855 190.258 409.372C192.836 407.901 231.024 404.058 235.084 421.733Z" fill="#FFBF9D"></path>
<g id="Group">
<g id="Group_2">
<path id="Vector_19" d="M193.223 572.116C194.512 572.469 195.356 573.644 195.401 574.944L207.078 601.604L205.117 610.35L202.277 618.845L178.502 635.653L178.57 635.323C177.852 636.349 176.563 636.862 175.298 636.52L49.6481 601.559C49.4998 601.502 49.363 601.399 49.2148 601.33C44.0948 599.666 43.901 584.215 48.7815 566.631C53.6847 549.013 61.8379 535.9 67.0833 537.109C67.2429 537.143 67.414 537.109 67.5736 537.143L193.212 572.105L193.223 572.116Z" fill="#DAEEF4"></path>
<path id="Vector_20" opacity="0.32" d="M181.341 621.103C182.721 621.491 184.124 621 184.899 619.974L184.842 620.328L205.903 606.906L205.128 610.35L202.289 618.845L178.513 635.653L178.582 635.323C177.863 636.349 176.575 636.862 175.309 636.52L49.6594 601.558C49.5112 601.501 49.3743 601.399 49.2261 601.33C45.8508 600.224 44.6307 593.109 45.5885 583.348L181.353 621.115L181.341 621.103Z" fill="#9ECFE2"></path>
<g id="Group_3">
<path id="Vector_21" d="M89.0683 587.829L91.2462 588.434C92.2155 588.707 92.7742 589.711 92.5006 590.657L86.6166 611.821L80.9493 610.259L86.8333 589.084C87.0956 588.126 88.099 587.567 89.0569 587.818L89.0683 587.829Z" fill="#E24F3E"></path>
<path id="Vector_22" opacity="0.21" d="M76.867 584.443L79.0564 585.047C80.0142 585.309 80.573 586.324 80.3107 587.271L74.4268 608.434L68.7709 606.849L74.6434 585.697C74.9171 584.728 75.9206 584.169 76.8784 584.431L76.867 584.443Z" fill="#569F48"></path>
<path id="Vector_23" d="M93.1619 613.657L99.0344 592.493C99.3081 591.535 100.312 590.965 101.281 591.227L103.459 591.843C104.417 592.117 104.975 593.12 104.713 594.078L98.8292 615.231L93.1619 613.669V613.657Z" fill="#E24F3E"></path>
<path id="Vector_24" d="M96.5828 570.132L94.4049 569.516C93.4356 569.254 92.8769 568.262 93.1505 567.304L99.0915 545.912L104.747 547.485L98.8064 568.866C98.5328 569.824 97.5407 570.394 96.5828 570.132Z" fill="#E24F3E"></path>
<path id="Vector_25" d="M92.5575 544.099L86.6051 565.479C86.3315 566.426 85.3394 566.996 84.3816 566.734L82.2036 566.118C81.2457 565.867 80.6756 564.864 80.9379 563.894L86.8902 542.514L92.5575 544.087V544.099Z" fill="#E24F3E"></path>
<path id="Vector_26" d="M108.784 573.519L106.595 572.914C105.637 572.64 105.078 571.66 105.34 570.691L111.293 549.31L116.96 550.895L111.019 572.276C110.745 573.222 109.753 573.792 108.795 573.53L108.784 573.519Z" fill="#E24F3E"></path>
</g>
</g>
<path id="Vector_27" d="M206.444 602.164L202.002 618.835C201.618 620.278 202.475 621.758 203.918 622.143L210.606 623.925C212.048 624.309 213.529 623.451 213.913 622.009L218.355 605.338C218.74 603.896 217.882 602.415 216.44 602.031L209.751 600.249C208.309 599.864 206.829 600.722 206.444 602.164Z" fill="#59A54C"></path>
</g>
<path id="Vector_28" d="M190.27 409.372C190.27 409.372 186.963 409.087 186.427 414.96C185.891 420.832 185.196 441.631 185.469 443.045C185.731 444.459 185.617 447.39 185.617 447.39C185.617 447.39 187.442 447.413 188.366 445.269C189.278 443.125 188.708 428.94 193.246 421.767C197.773 414.595 201.411 411.607 197.477 409.213C193.543 406.818 190.281 409.372 190.281 409.372H190.27Z" fill="#2D1B15"></path>
<path id="Vector_29" d="M140.005 495.043C140.005 495.043 58.6564 556.038 59.3064 573.074C59.9563 590.11 73.3092 614.227 94.9977 626.964C94.9977 626.964 110.882 633.624 121.772 621.366C121.772 621.366 103.607 587.544 106.481 584.682C112.114 579.049 163.564 555.741 163.564 555.741C163.564 555.741 181.41 496.605 140.017 495.043H140.005Z" fill="#81CBFC"></path>
<path id="Vector_30" d="M190.886 418.461C190.886 418.461 191.672 435.109 204.387 428.894C208.344 426.967 213.133 428.153 215.664 431.757C220.647 438.849 223.966 442.772 230.602 438.085C237.25 433.399 234.924 444.3 243.442 440.126C248.858 437.469 247.65 431.893 244.331 428.518C243.385 427.56 242.963 426.192 243.054 424.846C243.431 419.624 243.123 407.434 232.427 405.484C230.842 405.199 229.405 405.279 228.151 405.541C225.106 406.18 221.982 405.142 220.157 402.622C216.759 397.947 210.054 392.371 198.298 395.461C172.059 402.36 182.926 432.566 185.481 443.045C187.202 450.093 190.897 418.472 190.897 418.472L190.886 418.461Z" fill="#2D1B15"></path>
</g>
<g id="top_man">
<path id="Vector_31" d="M511.333 94.5585C511.333 94.5585 565.428 111.88 639.787 111.344C670.975 111.116 662.639 114.069 666.094 130.17C669.549 146.271 627.255 162.338 589.876 161.186C552.497 160.034 507.102 157.457 500.203 143.66C493.304 129.862 511.333 94.5699 511.333 94.5699V94.5585Z" fill="#0F6BA8"></path>
<path id="Vector_32" d="M409.31 223.481C409.31 223.481 358.874 141.174 377.393 125.54C410.211 97.831 491.959 83.0755 515.244 96.2916C522.348 100.328 518.539 129.771 516.395 136.362C486.064 229.376 563.992 229.501 500.203 236.97C436.403 244.439 409.31 223.469 409.31 223.469V223.481Z" fill="#0F6BA8"></path>
<path id="Vector_33" d="M429.79 72.6417L416.118 104.912C416.118 104.912 424.316 117.022 437.065 113.054C449.813 109.086 453.291 98.4923 453.291 98.4923L429.79 72.6417Z" fill="#FFAB91"></path>
<g id="Group_4">
<path id="Vector_34" d="M431.01 74.2496C431.01 74.2496 428.501 74.147 427.828 72.7673C427.167 71.3875 430.542 57.2478 431.911 56.632C433.268 56.0163 435.879 56.1645 436.951 58.4451C438.023 60.7371 431.01 74.2382 431.01 74.2382V74.2496Z" fill="#FFBF9D"></path>
<path id="Vector_35" d="M484.41 58.1486C484.41 58.1486 484.946 67.4991 483.304 72.7558C481.673 78.0126 474.25 79.9055 468.64 95.0031C467.499 98.0819 455.082 109.394 449.813 109.086C442.287 108.652 435.742 105.163 433.815 103.441C431.888 101.719 426.517 98.4126 429.049 75.8917C429.847 68.8332 444.249 35.1145 447.008 34.4874C449.768 33.8602 485.607 40.9301 484.41 58.1486Z" fill="#FFBF9D"></path>
<path id="Vector_36" d="M447.008 34.476C447.008 34.476 443.884 32.127 439.231 38.8776C436.05 43.4958 433.473 62.4476 433.325 63.8045C433.176 65.1615 432.754 67.8184 432.754 67.8184C432.754 67.8184 435.354 66.6439 436.78 64.9448C438.205 63.2458 440.189 51.8656 446.301 46.586C452.413 41.3064 456.541 39.5845 453.633 36.3233C450.714 33.062 447.031 34.476 447.031 34.476H447.008Z" fill="#402B24"></path>
<path id="Vector_37" d="M479.723 38.9346C471.388 30.7358 457.727 29.7324 451.98 31.1692C446.233 32.6059 445.081 38.4785 445.081 38.4785L450.19 41.6371C447.909 42.9371 446.655 44.6361 446.29 46.5974C442.105 69.0727 468.32 77.4311 482.791 77.6478C492.084 77.7846 493.806 69.8481 493.806 69.8481C493.806 69.8481 488.059 47.1334 479.723 38.946V38.9346Z" fill="#402B24"></path>
<path id="Vector_38" d="M437.065 57.0425C437.065 57.0425 446.723 58.5819 451.216 52.4243C455.72 46.2667 446.142 41.7625 445.07 42.2414C443.998 42.7204 437.065 57.0425 437.065 57.0425Z" fill="#402B24"></path>
</g>
</g>
<g id="clipboard">
<g id="Group_5">
<path id="Vector_39" d="M892.295 954.265V183.171C892.295 181.912 891.274 180.891 890.015 180.891L319.591 180.891C318.332 180.891 317.311 181.912 317.311 183.171V954.265C317.311 955.524 318.332 956.545 319.591 956.545H890.015C891.274 956.545 892.295 955.524 892.295 954.265Z" fill="#A38973"></path>
<path id="Vector_40" d="M863.788 928.038V216.092L352.512 216.092L352.512 928.038H863.788Z" fill="#8C6C50"></path>
<path id="Vector_41" d="M857.094 921.344V216.092L352.512 216.092L352.512 921.344H857.094Z" fill="white"></path>
<path id="Vector_42" d="M705.514 180.89L704.579 176.147L704.123 173.9L702.641 166.431L696.015 133.066C694.362 124.742 689.938 119.143 684.966 119.143H524.64C519.668 119.143 515.232 124.742 513.556 133.066L506.931 166.431L505.449 173.9L504.992 176.147L504.057 180.89L501.64 193.08H707.954L705.514 180.89ZM604.78 157.754C599.831 157.754 595.806 153.751 595.806 148.78C595.806 143.808 599.843 139.771 604.78 139.771C609.718 139.771 613.788 143.808 613.788 148.78C613.788 153.751 609.752 157.754 604.78 157.754Z" fill="#A38973"></path>
<path id="Vector_43" d="M705.514 180.891H504.069L505.004 176.147L505.46 173.901H704.123L704.579 176.147L705.514 180.891Z" fill="#8C6C50"></path>
</g>
<path id="Vector_44" opacity="0.12" d="M700.85 422.611H407.189V471.792H700.85V422.611Z" fill="#0C3C63"></path>
<path id="Vector_45" opacity="0.12" d="M700.85 544.099H407.189V593.28H700.85V544.099Z" fill="#0C3C63"></path>
<path id="Vector_46" opacity="0.12" d="M794.321 544.099H744.82V593.599H794.321V544.099Z" fill="#0C3C63"></path>
<path id="Vector_47" opacity="0.12" d="M700.85 665.586H407.189V714.767H700.85V665.586Z" fill="#0C3C63"></path>
<path id="Vector_48" opacity="0.12" d="M794.321 665.586H744.82V715.087H794.321V665.586Z" fill="#0C3C63"></path>
<path id="Vector_49" opacity="0.12" d="M700.85 787.074H407.189V836.255H700.85V787.074Z" fill="#0C3C63"></path>
<path id="Vector_50" opacity="0.12" d="M794.321 787.074H744.82V836.574H794.321V787.074Z" fill="#0C3C63"></path>
</g>
<g id="tv">
<g id="Group_6">
<g id="Group_7">
<path id="Vector_51" d="M381.196 928.382L350.789 933.356L356.657 969.232L387.064 964.258L381.196 928.382Z" fill="#393232"></path>
<path id="Vector_52" d="M408.078 967.88L338.007 979.351L333.731 970.765L407.212 957.378L408.078 967.88Z" fill="#393232"></path>
</g>
<g id="Group_8">
<path id="Vector_53" d="M462.003 918.79L269.794 950.239L241.378 802.365L440.794 766.605L462.003 918.79Z" fill="#928CB6"></path>
<path id="Vector_54" d="M250.649 807.451L436.175 777.085L453.884 907.866L277.092 936.807L250.649 807.451Z" fill="#393232"></path>
<path id="Vector_55" d="M356.913 930.866C356.697 930.866 356.514 930.706 356.48 930.489C356.446 930.25 356.605 930.022 356.845 929.976L372.524 927.411C372.786 927.376 372.991 927.536 373.037 927.775C373.071 928.015 372.912 928.243 372.672 928.289L356.993 930.854C356.993 930.854 356.947 930.854 356.925 930.854L356.913 930.866Z" fill="#2E383C"></path>
</g>
</g>
<path id="Vector_56" d="M436.176 777.085L396.447 796.641L363.299 795.535L319.546 826.699L365.511 799.321C365.511 799.321 390.757 805.513 389.207 808.158C387.656 810.792 370.871 841.74 370.871 841.74L374.063 873.395L375.443 842.983L400.404 813.472L411.534 796.55L421.477 811.214L409.276 848.331L426.323 806.847L418.558 795.809L436.176 777.096V777.085Z" fill="white"></path>
</g>
<path id="Vector_57" opacity="0.12" d="M705.639 250.325L417.324 306.107L426.666 354.392L714.981 298.611L705.639 250.325Z" fill="#0C3C63"></path>
<g id="top_man_hand">
<g id="Group_9">
<path id="Vector_58" d="M533.032 269.879L516.84 312.949C516.35 315.571 509.645 316.518 501.868 315.058C494.091 313.599 488.196 310.28 488.686 307.658L489.234 261.646L533.032 269.879Z" fill="#81CBFC"></path>
<path id="Vector_59" opacity="0.21" d="M520.957 267.61L533.021 269.879L516.829 312.949C516.407 315.172 511.538 316.187 505.335 315.56L520.957 267.622V267.61Z" fill="#0C3C63"></path>
<path id="Vector_60" d="M489.222 261.647C488.812 263.813 498.299 267.405 510.386 269.674C522.485 271.943 532.611 272.035 533.021 269.88C533.42 267.713 523.944 264.121 511.846 261.84C499.759 259.571 489.621 259.48 489.211 261.635L489.222 261.647Z" fill="#81CBFC"></path>
<path id="Vector_61" opacity="0.7" d="M489.222 261.647C488.812 263.813 498.299 267.405 510.386 269.674C522.485 271.943 532.611 272.035 533.021 269.88C533.42 267.713 523.944 264.121 511.846 261.84C499.759 259.571 489.621 259.48 489.211 261.635L489.222 261.647Z" fill="#0C3C63"></path>
<path id="Vector_62" d="M526.499 272.548C531.448 272.548 533.797 271.784 534.116 270.085C535.017 265.204 514.411 261.19 512.062 260.746C505.928 259.594 500.146 258.967 495.756 258.967C490.807 258.967 488.458 259.731 488.139 261.43C488.07 261.795 488.082 262.365 488.527 263.015C490.511 265.923 500.83 268.99 510.192 270.757C516.327 271.909 522.12 272.536 526.51 272.536L526.499 272.548ZM531.835 269.64C531.436 269.857 530.159 270.324 526.499 270.324C522.302 270.324 516.498 269.686 510.591 268.58C497.923 266.196 491.366 263.129 490.42 261.875C490.807 261.658 492.084 261.19 495.756 261.19C499.952 261.19 505.745 261.829 511.663 262.935C524.332 265.307 530.889 268.386 531.847 269.64H531.835Z" fill="#0F6BA8"></path>
<g id="Group_10" opacity="0.42">
<path id="Vector_63" d="M526.499 272.548C531.448 272.548 533.797 271.784 534.116 270.085C535.017 265.204 514.411 261.19 512.062 260.746C505.928 259.594 500.146 258.967 495.756 258.967C490.807 258.967 488.458 259.731 488.139 261.43C488.07 261.795 488.082 262.365 488.527 263.015C490.511 265.923 500.83 268.99 510.192 270.757C516.327 271.909 522.12 272.536 526.51 272.536L526.499 272.548ZM531.835 269.64C531.436 269.857 530.159 270.324 526.499 270.324C522.302 270.324 516.498 269.686 510.591 268.58C497.923 266.196 491.366 263.129 490.42 261.875C490.807 261.658 492.084 261.19 495.756 261.19C499.952 261.19 505.745 261.829 511.663 262.935C524.332 265.307 530.889 268.386 531.847 269.64H531.835Z" fill="#81CBFC"></path>
</g>
</g>
<path id="Vector_64" d="M408.774 127.832C403.563 117.729 381.19 114.696 370.802 133.739C348.692 174.311 364.12 224.997 376.184 250.426C391.806 283.358 470.578 302.332 470.578 302.332C470.578 302.332 478.629 274.156 478.059 271.852C477.488 269.549 411.363 248.465 418.603 179.511C421.066 156.1 414.704 139.327 408.774 127.821V127.832Z" fill="#0F6BA8"></path>
<path id="Vector_65" d="M472.209 296.563C472.209 296.563 477.774 300.326 484.957 302.344C492.141 304.351 507.957 299.881 508.527 298.524C509.098 297.167 508.128 278.021 505.312 276.664C502.495 275.319 478.059 271.864 478.059 271.864L472.209 296.563Z" fill="#FFBF9D"></path>
</g>
<path id="Vector_66" d="M639.787 111.344V119.691C639.787 119.691 648.134 128.334 652.239 129.178C656.344 130.022 666.949 130.17 666.949 130.17C666.949 130.17 668.648 126.065 665.25 125.073C661.852 124.081 656.196 122.017 656.196 122.017L655.067 119.691H687.463C687.463 119.691 687.463 117.296 685.764 116.589C684.065 115.882 669.777 111.492 667.656 111.218C665.535 110.945 639.787 111.344 639.787 111.344Z" fill="#FFBF9D"></path>
<g id="Group_11">
<path id="Vector_67" d="M125.159 966.112C170.337 964.618 193.383 923.602 193.383 859.323C193.383 795.045 169.003 752.625 127.359 752.625C82.1579 752.625 61.3361 795.056 61.3361 859.323C61.3361 923.591 75.3846 967.754 125.159 966.112ZM100.437 787.792C116.686 787.792 128.625 818.295 128.625 860.874C128.625 903.453 117.199 934.686 100.437 934.686C81.6448 934.686 72.2487 903.453 72.2487 860.874C72.2487 818.295 83.1728 787.792 100.437 787.792Z" fill="#383838"></path>
<path id="Vector_68" d="M90.2541 967.036L87.4603 958.689C117.45 948.643 133.962 913.362 133.962 859.323C133.962 834.601 130.187 812.605 123.06 795.717C115.991 778.978 105.99 767.472 93.3329 761.542L97.0731 753.572C126.116 767.187 142.776 805.729 142.776 859.335C142.776 917.456 124.132 955.701 90.2655 967.047L90.2541 967.036Z" fill="#2A2A2A"></path>
<g id="Group_12" opacity="0.58">
<path id="Vector_69" d="M179.756 896.828C181.341 878.685 183.667 855.937 182.767 837.749C182.003 822.423 180.098 806.402 171.364 793.79C162.629 781.178 145.068 773.436 131.396 780.403C124.246 784.041 119.4 790.86 115.364 797.85C122.08 808.033 126.744 825.319 128.169 846.769C134.247 842.31 142.776 840.862 150.154 842.983C160.656 846.005 168.718 854.887 173.165 864.865C177.612 874.843 178.935 885.915 179.745 896.816L179.756 896.828Z" fill="#2A2A2A"></path>
</g>
<path id="Vector_70" d="M152.503 757.038C145.524 753.173 137.52 750.527 128.374 749.284C126.903 749.068 125.421 748.908 123.904 748.783C120.392 748.498 116.743 748.384 112.935 748.498C111.464 748.532 110.038 748.6 108.602 748.714C104.588 748.999 100.756 749.535 97.0731 750.322C83.5264 753.15 72.1918 759.205 62.9896 767.905C62.5905 768.259 62.2256 768.635 61.8493 769.012C60.3327 770.517 58.8959 772.113 57.4933 773.755C57.4477 773.801 57.4135 773.846 57.3793 773.892C50.6287 781.874 45.2465 791.475 41.2668 802.468C41.2326 802.559 41.1984 802.628 41.1756 802.719C37.5723 812.639 35.075 823.666 33.6611 835.548C33.6611 835.571 33.6382 835.571 33.6382 835.571C33.604 835.924 33.547 836.301 33.5128 836.677C32.8856 842.242 32.4751 847.989 32.2927 853.918C32.2699 854.203 32.2699 854.511 32.2585 854.796C32.2243 856.86 32.1901 858.913 32.1901 861.011C32.1901 861.923 32.1901 862.858 32.2129 863.77C32.3155 872.402 32.9769 880.692 34.1856 888.583C34.2426 889.017 34.311 889.439 34.368 889.872C34.847 892.825 35.3829 895.722 35.9987 898.55C36.0899 898.983 36.1925 899.405 36.2837 899.838C36.8197 902.233 37.4126 904.582 38.074 906.897C38.3819 908.025 38.7012 909.154 39.0547 910.26C39.1801 910.66 39.3055 911.047 39.431 911.446V911.469C39.7046 912.313 39.9669 913.157 40.252 913.978C40.4002 914.388 40.5371 914.799 40.6853 915.209C41.0046 916.122 41.3467 917.034 41.6888 917.946C42.1335 919.132 42.601 920.295 43.0799 921.435C43.4562 922.37 43.8667 923.294 44.2772 924.206C44.3 924.263 44.3114 924.298 44.3343 924.332C44.5167 924.765 44.7106 925.187 44.9272 925.62C45.2123 926.247 45.5202 926.875 45.8166 927.502C45.9991 927.901 46.1929 928.277 46.3868 928.642C46.8315 929.532 47.299 930.41 47.7666 931.276C47.7894 931.333 47.8008 931.367 47.8236 931.402C48.3937 932.439 48.9639 933.443 49.5454 934.423C50.1384 935.404 50.7313 936.373 51.3357 937.343C51.4041 937.445 51.4611 937.536 51.5295 937.65C52.0655 938.494 52.6242 939.315 53.1944 940.125C53.2856 940.273 53.3882 940.41 53.4795 940.558C54.0838 941.413 54.711 942.257 55.3381 943.101C56.0223 943.991 56.7293 944.891 57.4477 945.769C58.1661 946.625 58.8845 947.491 59.6371 948.312C60.3897 949.133 61.1423 949.954 61.9063 950.753C62.6589 951.528 63.4229 952.269 64.2211 953.01C65.6008 954.322 67.0262 955.576 68.4972 956.739C68.9761 957.138 69.4665 957.514 69.9454 957.868C70.2305 958.096 70.5155 958.313 70.8234 958.518C71.1655 958.792 71.5076 959.042 71.8383 959.271C75.2364 961.688 78.8511 963.786 82.6483 965.519C83.2755 965.827 83.9141 966.112 84.5868 966.375H84.6096C85.2482 966.66 85.921 966.933 86.5938 967.184C87.2551 967.435 87.9165 967.686 88.6007 967.914C89.2849 968.165 89.9576 968.382 90.6646 968.598C91.4172 968.849 92.1698 969.066 92.9224 969.282C93.5724 969.465 94.211 969.624 94.8723 969.784C96.6968 970.229 98.5555 970.628 100.46 970.913C100.517 970.936 100.562 970.947 100.619 970.947C101.247 971.05 101.885 971.141 102.512 971.221C103.037 971.312 103.527 971.369 104.052 971.415C104.861 971.517 105.682 971.597 106.503 971.643C107.039 971.7 107.575 971.734 108.134 971.768H108.237C109.001 971.825 109.799 971.859 110.586 971.871C111.35 971.894 112.159 971.905 112.946 971.905C114.086 971.905 115.215 971.882 116.344 971.837C116.846 971.837 117.348 971.802 117.827 971.768H118.043C118.134 971.768 118.203 971.768 118.294 971.745C118.648 971.723 119.024 971.711 119.389 971.677C119.583 971.677 119.765 971.654 119.948 971.643C120.962 971.574 121.966 971.483 122.969 971.369C123.277 971.335 123.596 971.301 123.904 971.244C123.904 971.244 123.927 971.266 123.927 971.244C124.52 971.175 125.113 971.095 125.695 971.016C126.162 970.959 126.63 970.89 127.074 970.799C127.485 970.742 127.884 970.696 128.272 970.605C128.42 970.582 128.557 970.571 128.682 970.537C129.127 970.445 129.572 970.377 130.028 970.286C139.082 968.439 147.155 965.109 154.236 960.479C168.456 951.152 178.696 936.51 185.15 918.071H185.173C190.92 901.708 193.714 882.357 193.714 861.057C193.714 813.506 182.846 773.835 152.537 757.084L152.503 757.038ZM145.194 932.519C140.108 932.359 135.399 930.17 131.191 926.327C128.922 924.252 126.789 921.652 124.839 918.642C123.585 916.703 122.422 914.594 121.327 912.324C115.101 899.359 111.372 880.955 111.372 859.46C111.372 858.651 111.372 857.852 111.395 857.043C111.646 837.418 114.885 820.348 120.381 807.816L120.404 807.793C121.692 804.84 123.106 802.137 124.646 799.72C126.584 796.664 128.705 794.041 130.997 791.932C135.205 788.043 139.971 785.865 145.171 785.683C145.479 785.66 145.798 785.66 146.117 785.66C146.391 785.66 146.653 785.66 146.927 785.683C169.186 786.652 180.315 817.554 180.315 859.46C180.315 868.56 179.711 877.089 178.525 884.9C177.042 894.958 174.625 903.806 171.421 911.059C170.668 912.758 169.858 914.366 169.026 915.894C168.616 916.646 168.205 917.365 167.76 918.06C167.544 918.414 167.327 918.756 167.099 919.098C166.882 919.44 166.654 919.782 166.415 920.113C165.731 921.116 165.024 922.051 164.282 922.918C163.803 923.511 163.302 924.058 162.777 924.605C162.298 925.141 161.774 925.666 161.238 926.145C160.827 926.544 160.394 926.897 159.972 927.251C159.778 927.411 159.573 927.593 159.368 927.73C158.9 928.083 158.433 928.425 157.954 928.745C157.669 928.939 157.395 929.121 157.11 929.281C156.106 929.908 155.092 930.421 154.031 930.877C153.837 930.968 153.621 931.06 153.404 931.128C153.119 931.253 152.811 931.356 152.514 931.447C150.701 932.052 148.831 932.416 146.87 932.508C146.551 932.531 146.209 932.531 145.867 932.531C145.65 932.531 145.422 932.531 145.205 932.508L145.194 932.519Z" fill="#383838"></path>
<path id="Vector_71" d="M108.134 971.734C91.6908 971.734 76.7871 960.525 66.1481 940.17C55.6117 919.999 49.8076 891.788 49.8076 860.737C49.8076 829.687 55.4749 800.985 65.7604 780.768C70.926 770.619 77.1064 762.694 84.142 757.232C91.4742 751.531 99.5475 748.646 108.134 748.646C108.807 748.646 109.365 749.193 109.365 749.877C109.365 750.561 108.818 751.109 108.134 751.109C92.0899 751.109 78.1897 761.748 67.9498 781.885C57.8353 801.772 52.2707 829.778 52.2707 860.749C52.2707 923.648 75.7722 969.294 108.145 969.294C108.818 969.294 109.377 969.841 109.377 970.525C109.377 971.209 108.83 971.757 108.145 971.757L108.134 971.734Z" fill="#605D5D"></path>
<path id="Vector_72" d="M71.4961 855.64C71.4391 857.328 71.4277 859.027 71.4277 860.726C71.4277 861.33 71.4277 861.946 71.4505 862.539C71.4505 863.36 71.4505 864.181 71.4733 864.991C71.5075 866.94 71.5646 868.879 71.6558 870.795C71.6786 871.616 71.7128 872.437 71.7584 873.246C71.8496 875.219 71.9751 877.146 72.1347 879.062C72.1917 879.883 72.2601 880.693 72.3286 881.502C72.5224 883.646 72.7391 885.767 72.9899 887.854C73.0811 888.675 73.1838 889.496 73.2978 890.305C73.6171 892.825 73.9934 895.323 74.4039 897.751C74.4381 897.911 74.4609 898.093 74.4951 898.253C74.5977 898.914 74.7232 899.564 74.8372 900.203C75.4074 903.305 76.0573 906.326 76.7529 909.257C76.9468 910.067 77.152 910.865 77.3459 911.674C78.0415 914.411 78.8169 917.079 79.6151 919.657C79.8659 920.466 80.1168 921.253 80.3791 922.04C81.0632 924.104 81.793 926.099 82.5456 928.038C82.8535 928.825 83.1728 929.634 83.5149 930.398C84.2789 932.257 85.0885 934.07 85.9323 935.826C86.0236 936.02 86.1148 936.225 86.206 936.396C88.2471 940.57 90.4707 944.401 92.8425 947.856C93.1504 948.301 93.4697 948.746 93.7776 949.179C94.7582 950.536 95.7617 951.813 96.788 953.033C97.0731 953.375 97.3581 953.717 97.6318 954.037L98.3274 954.789C99.4335 956.009 100.562 957.15 101.714 958.21C102.147 958.609 102.569 958.997 103.003 959.35C103.402 959.692 103.778 960.012 104.166 960.32C104.633 960.696 105.101 961.072 105.557 961.414C106.366 962.019 107.188 962.577 108.009 963.113C109.331 963.957 110.677 964.721 112.057 965.383C112.273 965.485 112.501 965.599 112.741 965.702C114.212 966.386 115.717 966.968 117.256 967.424C117.975 967.652 118.705 967.857 119.446 968.017C121.932 968.61 124.497 968.906 127.109 968.906C127.302 968.906 127.508 968.963 127.667 969.031C128.066 969.248 128.351 969.659 128.351 970.138C128.351 970.286 128.317 970.423 128.283 970.571C127.884 970.662 127.496 970.719 127.086 970.765C126.641 970.856 126.174 970.924 125.706 970.981C125.113 971.073 124.52 971.141 123.939 971.209C123.939 971.232 123.916 971.209 123.916 971.209C122.411 971.061 120.905 970.856 119.446 970.525C119.389 970.502 119.343 970.491 119.297 970.491C118.294 970.263 117.291 969.989 116.31 969.681C115.74 969.499 115.17 969.305 114.588 969.089C111.099 967.8 107.735 965.976 104.508 963.649C103.664 963.022 102.82 962.384 101.988 961.677C99.73 959.795 97.552 957.651 95.4766 955.234C91.7479 950.935 88.3156 945.838 85.2596 939.965C79.3528 928.653 74.9284 914.742 72.2145 899.188C70.1164 887.215 69.0331 874.25 69.0331 860.714C69.0331 829.368 74.689 800.974 84.9859 780.745C88.2471 774.314 91.9189 768.806 95.9556 764.222C96.138 764.028 96.2976 763.823 96.4915 763.652C96.5827 763.527 96.6854 763.424 96.7994 763.31C98.6581 761.269 100.608 759.422 102.638 757.791C102.866 757.609 103.082 757.438 103.322 757.255L103.356 757.221C103.356 757.221 103.482 757.13 103.539 757.073C103.881 756.822 104.2 756.571 104.542 756.32C107.336 754.302 110.221 752.671 113.185 751.428C115.17 750.607 117.211 749.957 119.275 749.49C120.814 749.148 122.388 748.897 123.961 748.76C125.09 748.669 126.219 748.612 127.359 748.612C127.804 748.612 128.215 748.885 128.431 749.262C128.523 749.421 128.58 749.615 128.58 749.832C128.58 749.957 128.557 750.083 128.523 750.185C128.363 750.687 127.895 751.063 127.359 751.063C125.672 751.063 124.03 751.166 122.399 751.417C120.951 751.611 119.514 751.896 118.1 752.295C116.618 752.705 115.17 753.207 113.733 753.834C113.391 753.96 113.049 754.119 112.718 754.267C111.361 754.895 110.038 755.613 108.727 756.4C107.689 757.05 106.652 757.745 105.648 758.498C105.545 758.566 105.42 758.658 105.306 758.749C103.447 760.14 101.657 761.736 99.901 763.515C99.5817 763.857 99.2396 764.211 98.8975 764.576C98.487 765.02 98.0765 765.465 97.6774 765.933C96.2634 767.541 94.8837 769.297 93.5609 771.178C93.0022 771.965 92.4548 772.775 91.9189 773.618C90.8242 775.283 89.7751 777.039 88.7489 778.887C88.3156 779.673 87.8936 780.46 87.4831 781.281C87.3805 781.464 87.2893 781.657 87.1753 781.851C86.3884 783.391 85.6358 784.964 84.9175 786.595C84.564 787.405 84.1991 788.203 83.8798 789.035H83.857C83.2982 790.381 82.7509 791.772 82.2149 793.186C81.9299 793.973 81.6448 794.782 81.3369 795.603C80.744 797.325 80.151 799.093 79.6037 800.906C79.3528 801.693 79.1247 802.502 78.8853 803.323C78.1897 805.763 77.5283 808.249 76.9126 810.804C76.7301 811.59 76.5363 812.4 76.3766 813.198C75.9433 815.114 75.5328 817.064 75.1793 819.048C75.0197 819.858 74.8714 820.678 74.7346 821.5C74.3925 823.415 74.0846 825.354 73.7995 827.304C73.6969 828.113 73.5715 828.912 73.4803 829.744C73.2294 831.477 73.0355 833.233 72.8531 835.012C72.7505 835.822 72.6592 836.643 72.6022 837.464C72.3856 839.562 72.2031 841.671 72.0435 843.815C72.0093 844.625 71.9523 845.446 71.918 846.267C71.7698 848.536 71.6672 850.851 71.6102 853.177C71.576 853.987 71.5531 854.808 71.5531 855.629L71.4961 855.64Z" fill="#605D5D"></path>
<path id="Vector_73" d="M118.02 971.734C101.577 971.734 86.6736 960.525 76.0346 940.17C65.4982 919.999 59.6941 891.788 59.6941 860.737C59.6941 829.687 65.3614 800.985 75.6469 780.768C80.8124 770.619 86.9929 762.694 94.0285 757.232C101.361 751.531 109.434 748.646 118.02 748.646C118.693 748.646 119.252 749.193 119.252 749.877C119.252 750.561 118.705 751.109 118.02 751.109C101.976 751.109 88.0762 761.748 77.8363 781.885C67.7218 801.772 62.1571 829.778 62.1571 860.749C62.1571 923.648 85.6587 969.294 118.032 969.294C118.705 969.294 119.263 969.841 119.263 970.525C119.263 971.209 118.716 971.757 118.032 971.757L118.02 971.734Z" fill="#605D5D"></path>
<path id="Vector_74" d="M99.4906 795.66H81.5765C80.9037 795.66 80.345 795.113 80.345 794.429C80.345 793.745 80.8923 793.197 81.5765 793.197H99.4906C100.163 793.197 100.722 793.745 100.722 794.429C100.722 795.113 100.175 795.66 99.4906 795.66Z" fill="#605D5D"></path>
<path id="Vector_75" d="M97.0275 803.369H79.1134C78.4406 803.369 77.8818 802.821 77.8818 802.137C77.8818 801.453 78.4292 800.906 79.1134 800.906H97.0275C97.7002 800.906 98.259 801.453 98.259 802.137C98.259 802.821 97.7116 803.369 97.0275 803.369Z" fill="#605D5D"></path>
<path id="Vector_76" d="M94.5531 813.266H76.639C75.9662 813.266 75.4075 812.719 75.4075 812.035C75.4075 811.351 75.9548 810.803 76.639 810.803H94.5531C95.2259 810.803 95.7846 811.351 95.7846 812.035C95.7846 812.719 95.2373 813.266 94.5531 813.266Z" fill="#605D5D"></path>
<path id="Vector_77" d="M93.3216 821.522H74.7917C74.1189 821.522 73.5602 820.975 73.5602 820.291C73.5602 819.607 74.1075 819.059 74.7917 819.059H93.3216C93.9944 819.059 94.5531 819.607 94.5531 820.291C94.5531 820.975 94.0058 821.522 93.3216 821.522Z" fill="#605D5D"></path>
<path id="Vector_78" d="M91.4628 829.778H73.5487C72.8759 829.778 72.3171 829.231 72.3171 828.547C72.3171 827.862 72.8645 827.315 73.5487 827.315H91.4628C92.1355 827.315 92.6943 827.862 92.6943 828.547C92.6943 829.231 92.147 829.778 91.4628 829.778Z" fill="#605D5D"></path>
<path id="Vector_79" d="M90.2313 837.475H72.3172C71.6444 837.475 71.0857 836.928 71.0857 836.244C71.0857 835.559 71.633 835.012 72.3172 835.012H90.2313C90.9041 835.012 91.4628 835.559 91.4628 836.244C91.4628 836.928 90.9155 837.475 90.2313 837.475Z" fill="#605D5D"></path>
<path id="Vector_80" d="M88.9884 846.278H71.0743C70.4015 846.278 69.8428 845.731 69.8428 845.047C69.8428 844.363 70.3901 843.815 71.0743 843.815H88.9884C89.6612 843.815 90.2199 844.363 90.2199 845.047C90.2199 845.731 89.6726 846.278 88.9884 846.278Z" fill="#605D5D"></path>
<path id="Vector_81" d="M88.9884 855.64H71.0743C70.4015 855.64 69.8428 855.093 69.8428 854.409C69.8428 853.724 70.3901 853.177 71.0743 853.177H88.9884C89.6612 853.177 90.2199 853.724 90.2199 854.409C90.2199 855.093 89.6726 855.64 88.9884 855.64Z" fill="#605D5D"></path>
<path id="Vector_82" d="M88.9884 864.99H71.0743C70.4015 864.99 69.8428 864.443 69.8428 863.759C69.8428 863.075 70.3901 862.527 71.0743 862.527H88.9884C89.6612 862.527 90.2199 863.075 90.2199 863.759C90.2199 864.443 89.6726 864.99 88.9884 864.99Z" fill="#605D5D"></path>
<path id="Vector_83" d="M90.2313 881.491H72.3172C71.6444 881.491 71.0857 880.943 71.0857 880.259C71.0857 879.575 71.633 879.028 72.3172 879.028H90.2313C90.9041 879.028 91.4628 879.575 91.4628 880.259C91.4628 880.943 90.9155 881.491 90.2313 881.491Z" fill="#605D5D"></path>
<path id="Vector_84" d="M90.8472 890.294H72.9331C72.2603 890.294 71.7015 889.746 71.7015 889.062C71.7015 888.378 72.2489 887.831 72.9331 887.831H90.8472C91.5199 887.831 92.0787 888.378 92.0787 889.062C92.0787 889.746 91.5314 890.294 90.8472 890.294Z" fill="#605D5D"></path>
<path id="Vector_85" d="M92.0786 900.203H74.1645C73.4917 900.203 72.933 899.656 72.933 898.971C72.933 898.287 73.4803 897.74 74.1645 897.74H92.0786C92.7514 897.74 93.3101 898.287 93.3101 898.971C93.3101 899.656 92.7628 900.203 92.0786 900.203Z" fill="#605D5D"></path>
<path id="Vector_86" d="M101.965 789.058H84.051C83.3782 789.058 82.8195 788.511 82.8195 787.826C82.8195 787.142 83.3668 786.595 84.051 786.595H101.965C102.638 786.595 103.197 787.142 103.197 787.826C103.197 788.511 102.649 789.058 101.965 789.058Z" fill="#605D5D"></path>
<path id="Vector_87" d="M76.0231 911.754C75.3732 911.754 74.8372 911.253 74.803 910.603C74.7688 909.93 75.2819 909.348 75.9547 909.303L95.1003 908.197C95.7731 908.162 96.3547 908.675 96.4003 909.348C96.4345 910.021 95.9214 910.603 95.2486 910.648L76.1029 911.754C76.1029 911.754 76.0573 911.754 76.0345 911.754H76.0231Z" fill="#605D5D"></path>
<path id="Vector_88" d="M79.1135 922.211C78.5205 922.211 77.996 921.777 77.9048 921.162C77.8021 920.489 78.2697 919.873 78.9424 919.771L97.4723 917.022C98.1451 916.92 98.7608 917.387 98.8635 918.06C98.9661 918.733 98.4986 919.349 97.8258 919.451L79.2959 922.199C79.2389 922.199 79.1705 922.211 79.1135 922.211Z" fill="#605D5D"></path>
<path id="Vector_89" d="M82.8194 930.466C82.1922 930.466 81.6562 929.988 81.5992 929.349C81.5422 928.676 82.0325 928.083 82.7053 928.015L100.619 926.361C101.292 926.304 101.885 926.795 101.954 927.468C102.011 928.14 101.52 928.733 100.847 928.802L82.9334 930.455C82.9334 930.455 82.8536 930.455 82.8194 930.455V930.466Z" fill="#605D5D"></path>
<path id="Vector_90" d="M87.141 936.829C86.5024 936.829 85.9551 936.339 85.8981 935.689C85.8411 935.005 86.3428 934.389 87.0384 934.332L105.99 932.645C106.686 932.576 107.29 933.089 107.347 933.785C107.404 934.469 106.902 935.085 106.207 935.142L87.255 936.829C87.255 936.829 87.1752 936.829 87.141 936.829Z" fill="#605D5D"></path>
<path id="Vector_91" d="M90.9269 943.58C90.3112 943.58 89.7752 943.135 89.684 942.508C89.5814 941.824 90.0603 941.185 90.7445 941.083L109.696 938.266C110.38 938.164 111.019 938.642 111.122 939.327C111.224 940.011 110.745 940.649 110.061 940.752L91.1094 943.569C91.0524 943.569 90.984 943.58 90.9269 943.58Z" fill="#605D5D"></path>
<path id="Vector_92" d="M94.097 949.213C93.4926 949.213 92.9681 948.78 92.8655 948.175C92.7515 947.491 93.2076 946.841 93.8917 946.727L113.482 943.352C114.166 943.238 114.816 943.694 114.93 944.378C115.044 945.062 114.588 945.712 113.904 945.826L94.3137 949.202C94.2452 949.213 94.1654 949.224 94.097 949.224V949.213Z" fill="#605D5D"></path>
<path id="Vector_93" d="M97.8827 954.846C97.2898 954.846 96.7652 954.436 96.6512 953.831C96.5144 953.147 96.9591 952.497 97.6433 952.36L117.861 948.415C118.545 948.278 119.195 948.723 119.332 949.407C119.469 950.091 119.024 950.741 118.34 950.878L98.1222 954.823C98.0424 954.835 97.9625 954.846 97.8827 954.846Z" fill="#605D5D"></path>
<path id="Vector_94" d="M102.934 959.35C102.353 959.35 101.828 958.94 101.703 958.347C101.566 957.674 101.999 957.001 102.672 956.864L121.624 952.919C122.297 952.782 122.969 953.215 123.106 953.888C123.243 954.561 122.81 955.234 122.137 955.371L103.185 959.316C103.094 959.339 103.014 959.339 102.934 959.339V959.35Z" fill="#605D5D"></path>
<path id="Vector_95" d="M117.473 970.605C116.777 970.605 116.219 970.046 116.219 969.351C116.219 968.655 116.777 968.096 117.473 968.096C128.352 968.096 140.085 961.038 140.199 960.958C140.792 960.593 141.568 960.787 141.921 961.38C142.286 961.973 142.092 962.748 141.499 963.102C140.997 963.41 129.059 970.605 117.462 970.605H117.473Z" fill="#605D5D"></path>
<path id="Vector_96" d="M60.5836 795.66H46.3754C45.7027 795.66 45.1439 795.113 45.1439 794.429C45.1439 793.745 45.6913 793.197 46.3754 793.197H60.5836C61.2564 793.197 61.8151 793.745 61.8151 794.429C61.8151 795.113 61.2678 795.66 60.5836 795.66Z" fill="#605D5D"></path>
<path id="Vector_97" d="M42.3615 804.19C41.7115 804.19 41.1756 803.688 41.1414 803.027C41.1072 802.354 41.6203 801.772 42.3045 801.738L58.052 800.917C58.7248 800.871 59.3064 801.396 59.3406 802.08C59.3748 802.753 58.8616 803.335 58.1775 803.369L42.4299 804.19C42.4299 804.19 42.3843 804.19 42.3615 804.19Z" fill="#605D5D"></path>
<path id="Vector_98" d="M55.6347 813.266H39.5793C38.9065 813.266 38.3478 812.719 38.3478 812.035C38.3478 811.351 38.8951 810.803 39.5793 810.803H55.6347C56.3075 810.803 56.8662 811.351 56.8662 812.035C56.8662 812.719 56.3189 813.266 55.6347 813.266Z" fill="#605D5D"></path>
<path id="Vector_99" d="M54.4032 821.522H37.732C37.0592 821.522 36.5005 820.975 36.5005 820.291C36.5005 819.607 37.0478 819.059 37.732 819.059H54.4032C55.076 819.059 55.6347 819.607 55.6347 820.291C55.6347 820.975 55.0874 821.522 54.4032 821.522Z" fill="#605D5D"></path>
<path id="Vector_100" d="M51.9287 829.778H35.8732C35.2005 829.778 34.6417 829.231 34.6417 828.547C34.6417 827.862 35.1891 827.315 35.8732 827.315H51.9287C52.6014 827.315 53.1602 827.862 53.1602 828.547C53.1602 829.231 52.6128 829.778 51.9287 829.778Z" fill="#605D5D"></path>
<path id="Vector_101" d="M52.5558 837.475H34.6417C33.9689 837.475 33.4102 836.928 33.4102 836.244C33.4102 835.559 33.9575 835.012 34.6417 835.012H52.5558C53.2286 835.012 53.7873 835.559 53.7873 836.244C53.7873 836.928 53.24 837.475 52.5558 837.475Z" fill="#605D5D"></path>
<path id="Vector_102" d="M51.313 846.278H34.0146C33.3418 846.278 32.7831 845.731 32.7831 845.047C32.7831 844.363 33.3304 843.815 34.0146 843.815H51.313C51.9857 843.815 52.5445 844.363 52.5445 845.047C52.5445 845.731 51.9971 846.278 51.313 846.278Z" fill="#605D5D"></path>
<path id="Vector_103" d="M51.3129 855.64H33.3988C32.726 855.64 32.1672 855.093 32.1672 854.409C32.1672 853.724 32.7146 853.177 33.3988 853.177H51.3129C51.9856 853.177 52.5444 853.724 52.5444 854.409C52.5444 855.093 51.9971 855.64 51.3129 855.64Z" fill="#605D5D"></path>
<path id="Vector_104" d="M51.3129 864.99H33.3988C32.726 864.99 32.1672 864.443 32.1672 863.759C32.1672 863.075 32.7146 862.527 33.3988 862.527H51.3129C51.9856 862.527 52.5444 863.075 52.5444 863.759C52.5444 864.443 51.9971 864.99 51.3129 864.99Z" fill="#605D5D"></path>
<path id="Vector_105" d="M51.3129 881.491H34.6417C33.9689 881.491 33.4102 880.943 33.4102 880.259C33.4102 879.575 33.9575 879.028 34.6417 879.028H51.3129C51.9856 879.028 52.5444 879.575 52.5444 880.259C52.5444 880.943 51.997 881.491 51.3129 881.491Z" fill="#605D5D"></path>
<path id="Vector_106" d="M51.9287 890.294H35.2575C34.5847 890.294 34.026 889.746 34.026 889.062C34.026 888.378 34.5733 887.831 35.2575 887.831H51.9287C52.6015 887.831 53.1602 888.378 53.1602 889.062C53.1602 889.746 52.6129 890.294 51.9287 890.294Z" fill="#605D5D"></path>
<path id="Vector_107" d="M53.1716 900.203H37.1162C36.4434 900.203 35.8846 899.656 35.8846 898.971C35.8846 898.287 36.432 897.74 37.1162 897.74H53.1716C53.8444 897.74 54.4031 898.287 54.4031 898.971C54.4031 899.656 53.8558 900.203 53.1716 900.203Z" fill="#605D5D"></path>
<path id="Vector_108" d="M63.6737 789.058H49.4655C48.7928 789.058 48.234 788.511 48.234 787.826C48.234 787.142 48.7814 786.595 49.4655 786.595H63.6737C64.3464 786.595 64.9052 787.142 64.9052 787.826C64.9052 788.511 64.3578 789.058 63.6737 789.058Z" fill="#605D5D"></path>
<path id="Vector_109" d="M40.195 911.754C39.5564 911.754 39.0205 911.264 38.9749 910.614C38.9293 909.941 39.4424 909.348 40.1152 909.302L56.1706 908.196C56.8434 908.151 57.4363 908.664 57.4819 909.337C57.5275 910.01 57.0144 910.602 56.3416 910.648L40.2862 911.754C40.2862 911.754 40.2292 911.754 40.2064 911.754H40.195Z" fill="#605D5D"></path>
<path id="Vector_110" d="M57.4934 920.557H44.5282C43.8554 920.557 43.2966 920.01 43.2966 919.326C43.2966 918.642 43.844 918.094 44.5282 918.094H57.4934C58.1661 918.094 58.7249 918.642 58.7249 919.326C58.7249 920.01 58.1775 920.557 57.4934 920.557Z" fill="#605D5D"></path>
<path id="Vector_111" d="M48.2227 930.467C47.5842 930.467 47.0482 929.976 47.0026 929.338C46.9456 928.665 47.4587 928.072 48.1315 928.026L62.3396 926.92C63.0124 926.863 63.6054 927.376 63.651 928.049C63.708 928.722 63.1949 929.315 62.5221 929.36L48.314 930.467C48.314 930.467 48.2455 930.467 48.2227 930.467Z" fill="#605D5D"></path>
<path id="Vector_112" d="M53.7873 782.091C53.1373 782.091 52.6014 781.589 52.5672 780.939C52.533 780.266 53.0461 779.685 53.7189 779.651L66.6955 778.909C67.3683 778.875 67.9498 779.388 67.984 780.061C68.0182 780.734 67.5051 781.315 66.8323 781.35L53.8557 782.091C53.8557 782.091 53.8101 782.091 53.7873 782.091Z" fill="#605D5D"></path>
<path id="Vector_113" d="M58.3144 775.853C57.6644 775.853 57.117 775.34 57.0942 774.69C57.06 774.017 57.5846 773.436 58.2573 773.402L69.7858 772.854C70.4585 772.82 71.0401 773.345 71.0743 774.017C71.1085 774.69 70.584 775.272 69.9112 775.306L58.3828 775.853C58.3828 775.853 58.3372 775.853 58.3258 775.853H58.3144Z" fill="#605D5D"></path>
<path id="Vector_114" d="M63.0466 770.346C62.3966 770.346 61.8607 769.844 61.8264 769.183C61.7922 768.51 62.3054 767.928 62.9896 767.894L73.4917 767.347C74.1645 767.312 74.746 767.826 74.7803 768.51C74.8145 769.183 74.3013 769.764 73.6171 769.798L63.115 770.346C63.115 770.346 63.0694 770.346 63.0466 770.346Z" fill="#605D5D"></path>
<path id="Vector_115" d="M71.0743 764.485C70.4471 764.485 69.9112 764.006 69.8541 763.379C69.7857 762.706 70.2875 762.101 70.9602 762.044L78.7827 761.315C79.4555 761.258 80.0598 761.748 80.1168 762.421C80.1853 763.093 79.6835 763.698 79.0108 763.755L71.1883 764.485C71.1883 764.485 71.1085 764.485 71.0743 764.485Z" fill="#605D5D"></path>
<path id="Vector_116" d="M65.6579 939.076H54.2891C53.5935 939.076 53.0348 938.517 53.0348 937.821C53.0348 937.126 53.5935 936.567 54.2891 936.567H65.6579C66.3535 936.567 66.9122 937.126 66.9122 937.821C66.9122 938.517 66.3535 939.076 65.6579 939.076Z" fill="#605D5D"></path>
<path id="Vector_117" d="M59.9677 945.838C59.3063 945.838 58.759 945.325 58.7134 944.652C58.6792 943.956 59.2037 943.363 59.8993 943.329L70.0137 942.77C70.7093 942.736 71.3023 943.261 71.3365 943.956C71.3707 944.652 70.8462 945.245 70.1506 945.279L60.0361 945.838C60.0361 945.838 59.9905 945.838 59.9677 945.838Z" fill="#605D5D"></path>
<path id="Vector_118" d="M73.2409 952.588H65.6579C64.9623 952.588 64.4036 952.03 64.4036 951.334C64.4036 950.639 64.9623 950.08 65.6579 950.08H73.2409C73.9365 950.08 74.4952 950.639 74.4952 951.334C74.4952 952.03 73.9365 952.588 73.2409 952.588Z" fill="#605D5D"></path>
<path id="Vector_119" d="M72.6022 958.78C71.9636 958.78 71.4163 958.29 71.3593 957.64C71.3023 956.956 71.804 956.34 72.4996 956.283L78.8168 955.724C79.501 955.656 80.1168 956.169 80.1738 956.864C80.2308 957.549 79.7291 958.164 79.0335 958.221L72.7162 958.78C72.7162 958.78 72.6364 958.78 72.6022 958.78Z" fill="#605D5D"></path>
<path id="Vector_120" d="M83.3553 962.726H77.6652C76.9696 962.726 76.4109 962.167 76.4109 961.471C76.4109 960.776 76.9696 960.217 77.6652 960.217H83.3553C84.0509 960.217 84.6096 960.776 84.6096 961.471C84.6096 962.167 84.0509 962.726 83.3553 962.726Z" fill="#605D5D"></path>
<path id="Vector_121" d="M34.0259 873.246C33.3645 873.246 32.8286 872.722 32.8058 872.06C32.783 871.388 33.3075 870.817 33.9917 870.795L49.4313 870.247C50.0927 870.236 50.6743 870.749 50.6971 871.433C50.7199 872.106 50.1953 872.676 49.5112 872.699L34.0715 873.246C34.0715 873.246 34.0373 873.246 34.0259 873.246Z" fill="#605D5D"></path>
<path id="Vector_122" d="M88.9884 873.246H71.0743C70.4015 873.246 69.8428 872.699 69.8428 872.015C69.8428 871.331 70.3901 870.783 71.0743 870.783H88.9884C89.6612 870.783 90.2199 871.331 90.2199 872.015C90.2199 872.699 89.6726 873.246 88.9884 873.246Z" fill="#605D5D"></path>
<path id="Vector_123" d="M106.903 781.349H87.7569C87.0841 781.349 86.5254 780.802 86.5254 780.118C86.5254 779.434 87.0727 778.886 87.7569 778.886H106.903C107.575 778.886 108.134 779.434 108.134 780.118C108.134 780.802 107.587 781.349 106.903 781.349Z" fill="#605D5D"></path>
<path id="Vector_124" d="M111.84 773.652H92.0786C91.4058 773.652 90.847 773.105 90.847 772.421C90.847 771.737 91.3944 771.189 92.0786 771.189H111.84C112.513 771.189 113.071 771.737 113.071 772.421C113.071 773.105 112.524 773.652 111.84 773.652Z" fill="#605D5D"></path>
<path id="Vector_125" d="M117.405 768.145C117.268 768.145 117.131 768.122 116.994 768.076C111.087 765.967 97.1644 765.944 97.0275 765.944C96.3548 765.944 95.796 765.397 95.796 764.713C95.796 764.028 96.3434 763.481 97.0275 763.481C97.6205 763.481 111.521 763.504 117.827 765.75C118.465 765.978 118.796 766.674 118.568 767.312C118.385 767.814 117.918 768.122 117.416 768.122L117.405 768.145Z" fill="#605D5D"></path>
<path id="Vector_126" d="M122.342 763.743C121.977 763.743 121.624 763.584 121.373 763.276C118.146 759.171 108.088 758.646 104.474 758.794C103.801 758.829 103.231 758.293 103.197 757.62C103.174 756.947 103.698 756.377 104.371 756.343C104.953 756.32 118.636 755.841 123.3 761.759C123.722 762.295 123.631 763.059 123.095 763.481C122.867 763.652 122.604 763.743 122.342 763.743Z" fill="#605D5D"></path>
<path id="Vector_127" d="M129.138 760.448C128.751 760.448 128.374 760.266 128.135 759.923C125.843 756.651 116.778 754.416 113.482 753.823C112.821 753.709 112.376 753.07 112.49 752.397C112.604 751.736 113.243 751.291 113.915 751.405C115.227 751.645 126.858 753.834 130.142 758.509C130.53 759.068 130.393 759.832 129.845 760.22C129.629 760.368 129.389 760.448 129.138 760.448Z" fill="#605D5D"></path>
<path id="Vector_128" d="M137.782 757.517C137.394 757.517 137.018 757.335 136.778 756.993C134.498 753.743 125.923 752.021 122.81 751.633C122.137 751.554 121.658 750.938 121.749 750.265C121.829 749.592 122.445 749.113 123.118 749.205C124.372 749.364 135.49 750.881 138.797 755.59C139.184 756.149 139.048 756.913 138.5 757.301C138.284 757.449 138.044 757.529 137.793 757.529L137.782 757.517Z" fill="#605D5D"></path>
<path id="Vector_129" d="M107.393 963.113C107.165 963.113 106.937 963.113 106.709 963.113C106.013 963.113 105.466 962.532 105.477 961.836C105.477 961.141 106.047 960.582 106.754 960.605C113.379 960.707 119.936 959.225 125.706 956.317C126.322 956.009 127.074 956.249 127.394 956.876C127.702 957.492 127.462 958.244 126.835 958.564C120.905 961.551 114.2 963.125 107.404 963.125L107.393 963.113Z" fill="#605D5D"></path>
<path id="Vector_130" d="M114.303 967.572C114.132 967.572 113.972 967.572 113.801 967.572C113.106 967.572 112.558 966.99 112.57 966.295C112.57 965.611 113.14 965.063 113.824 965.063C113.824 965.063 113.835 965.063 113.847 965.063C120.586 965.166 127.348 962.976 132.422 959.054C132.97 958.632 133.757 958.735 134.178 959.282C134.6 959.829 134.498 960.616 133.95 961.038C128.568 965.212 121.43 967.583 114.303 967.583V967.572Z" fill="#605D5D"></path>
<path id="Vector_131" d="M146.129 762.523C119.32 762.523 101.053 803.597 101.053 859.586C101.053 915.574 120.141 955.69 146.129 955.69C173.747 955.69 191.205 915.574 191.205 859.586C191.205 803.597 176.176 762.523 146.129 762.523ZM146.129 932.542C126.367 932.542 111.851 902.039 111.851 859.46C111.851 816.881 125.752 785.649 146.129 785.649C168.98 785.649 180.406 816.881 180.406 859.46C180.406 902.039 167.122 932.542 146.129 932.542Z" fill="#2A2A2A"></path>
<path id="Vector_132" d="M141.351 962.931C126.493 962.931 113.037 952.486 103.447 933.534C93.9601 914.776 88.7261 888.538 88.7261 859.665C88.7261 830.793 93.8232 804.11 103.094 785.295C107.746 775.842 113.322 768.476 119.662 763.39C126.288 758.076 133.585 755.374 141.351 755.374C158.148 755.374 171.854 765.727 181.011 785.318C189.494 803.471 193.976 829.174 193.976 859.665C193.976 921.435 172.823 962.931 141.351 962.931ZM141.351 757.825C126.96 757.825 114.485 767.7 105.283 786.378C96.1836 804.863 91.1663 830.884 91.1663 859.665C91.1663 918.083 112.273 960.479 141.34 960.479C156.118 960.479 168.707 950.787 177.749 932.439C186.758 914.172 191.513 889.005 191.513 859.665C191.513 830.325 187.111 804.19 178.776 786.356C169.927 767.427 157.338 757.825 141.34 757.825H141.351Z" fill="#605D5D"></path>
<g id="Group_13" opacity="0.58">
<path id="Vector_133" d="M185.139 918.037C183.907 924.092 181.9 929.76 179.198 935.005C174.477 944.15 167.646 951.938 159.185 957.959C159.185 957.959 159.185 957.993 159.162 957.982C150.861 963.912 140.975 968.131 130.005 970.263C129.56 970.354 129.116 970.423 128.659 970.514C128.534 970.548 128.386 970.571 128.249 970.582C127.85 970.674 127.462 970.731 127.052 970.776C126.607 970.867 126.139 970.936 125.672 970.993C125.079 971.084 124.486 971.153 123.904 971.221C123.904 971.244 123.882 971.221 123.882 971.221C123.574 971.278 123.254 971.312 122.947 971.346C121.943 971.449 120.94 971.54 119.925 971.62C119.742 971.643 119.571 971.654 119.366 971.654C119.024 971.688 118.67 971.711 118.328 971.711C118.146 971.745 117.986 971.745 117.804 971.745C117.325 971.78 116.823 971.814 116.321 971.814C115.193 971.871 114.064 971.882 112.923 971.882C112.137 971.882 111.327 971.859 110.563 971.848C109.776 971.825 108.989 971.791 108.214 971.745H108.111C107.553 971.711 107.017 971.677 106.481 971.62C105.66 971.563 104.839 971.495 104.029 971.392C103.504 971.335 103.014 971.289 102.49 971.198C101.862 971.13 101.224 971.038 100.597 970.924C100.54 970.924 100.494 970.902 100.437 970.89C98.5442 970.605 96.6741 970.206 94.8496 969.761C94.1882 969.602 93.5382 969.442 92.8997 969.26C92.1471 969.043 91.3945 968.826 90.6419 968.575C89.9463 968.359 89.2621 968.142 88.5779 967.891C87.8937 967.663 87.2324 967.412 86.571 967.161C85.8868 966.911 85.2254 966.637 84.5869 966.352H84.5641C83.9027 966.078 83.2527 965.793 82.6256 965.497C78.8284 963.763 75.2136 961.665 71.8155 959.248C71.4734 959.02 71.1313 958.769 70.8007 958.495C70.4928 958.301 70.2077 958.085 69.9226 957.845C69.4437 957.492 68.9534 957.115 68.4744 956.716C67.0035 955.553 65.5781 954.299 64.1983 952.987C63.4115 952.258 62.6361 951.505 61.8835 950.73C61.1081 949.943 60.3669 949.122 59.6143 948.289C58.8617 947.468 58.1433 946.602 57.4249 945.747C56.7065 944.869 55.9882 943.979 55.3154 943.078C54.6882 942.235 54.0611 941.391 53.4567 940.535C53.3655 940.387 53.2628 940.25 53.1716 940.102C52.6015 939.293 52.0427 938.472 51.5068 937.628C51.4384 937.525 51.3813 937.434 51.3129 937.32C50.7086 936.351 50.1156 935.381 49.5227 934.401C48.9525 933.42 48.3824 932.417 47.8008 931.379C47.778 931.345 47.7666 931.31 47.7438 931.253C47.2763 930.398 46.8087 929.52 46.364 928.619C46.1702 928.243 45.9649 927.867 45.7939 927.479C45.486 926.852 45.1895 926.225 44.9044 925.598C44.6878 925.164 44.4939 924.742 44.3115 924.309C44.2887 924.275 44.2773 924.241 44.2545 924.184C43.844 923.271 43.4335 922.336 43.0572 921.413C42.5782 920.272 42.1107 919.098 41.666 917.923C41.3239 917.011 40.9818 916.099 40.6625 915.187C40.5143 914.776 40.3775 914.366 40.2292 913.955C39.9441 913.134 39.6705 912.29 39.4082 911.446V911.424C39.2828 911.025 39.1573 910.637 39.0319 910.238V910.215C38.6898 909.12 38.3477 907.991 38.0512 906.862C37.6978 905.597 37.3557 904.32 37.0364 903.008C42.5668 904.149 48.2569 904.32 53.9128 903.704C54.6996 903.635 55.5092 903.544 56.3074 903.419C58.7021 903.077 61.1081 902.598 63.4457 901.982C63.6624 901.925 63.8562 901.879 64.0729 901.822C64.643 901.663 65.2018 901.514 65.7719 901.343C67.9385 900.716 70.0823 899.986 72.1576 899.154C72.4313 899.063 72.6935 898.96 72.9444 898.846C73.469 898.652 73.9821 898.436 74.4838 898.196C74.7347 898.105 74.9627 898.002 75.2022 897.888C75.3504 897.831 75.4873 897.763 75.6355 897.694C77.46 896.885 79.2503 896.007 80.9721 895.083C83.8229 893.544 86.3772 891.936 88.6692 890.248C89.3533 889.769 90.0147 889.268 90.6419 888.743C90.9497 888.515 91.2462 888.264 91.5541 888.013C91.9874 887.637 92.4093 887.283 92.8426 886.907C96.3548 883.771 99.1941 880.396 101.691 876.644C105.375 871.091 108.248 864.774 111.236 857.419C111.293 857.271 111.361 857.134 111.418 856.986C111.395 857.795 111.395 858.594 111.395 859.403C111.395 880.909 115.124 899.302 121.35 912.267C122.445 914.537 123.608 916.658 124.862 918.585C126.812 921.595 128.945 924.184 131.214 926.27C135.421 930.124 140.131 932.302 145.217 932.462C145.433 932.485 145.661 932.485 145.878 932.485C146.22 932.485 146.562 932.485 146.881 932.462C148.831 932.371 150.713 932.017 152.526 931.402C152.834 931.31 153.119 931.208 153.415 931.082C153.632 931.014 153.826 930.923 154.043 930.831C155.103 930.387 156.118 929.862 157.121 929.235C157.406 929.075 157.692 928.893 157.965 928.699C158.444 928.38 158.912 928.038 159.379 927.684C159.573 927.525 159.79 927.365 159.984 927.205C160.417 926.852 160.839 926.487 161.249 926.099C161.774 925.62 162.287 925.096 162.789 924.56C163.313 924.024 163.804 923.465 164.294 922.872C165.024 921.994 165.742 921.048 166.426 920.067C166.654 919.725 166.894 919.383 167.11 919.052C167.338 918.71 167.555 918.368 167.772 918.015C168.205 917.319 168.627 916.601 169.037 915.848C169.881 914.331 170.68 912.712 171.432 911.013C171.466 911.036 171.489 911.047 171.523 911.07C171.706 911.161 171.877 911.264 172.059 911.378C175.765 913.453 179.562 915.392 183.405 917.194C183.531 917.251 183.633 917.296 183.759 917.353C184.112 917.536 184.489 917.695 184.853 917.855C184.945 917.912 185.036 917.946 185.127 918.003H185.15L185.139 918.037Z" fill="#2A2A2A"></path>
</g>
<path id="Vector_134" d="M146.06 933.294C135.992 933.294 126.96 925.62 120.62 911.697C114.543 898.321 111.19 879.666 111.19 859.175C111.19 838.684 114.451 819.721 120.392 806.311C126.664 792.137 135.775 784.337 146.06 784.337C167.886 784.337 180.919 812.309 180.919 859.175C180.919 880.259 177.818 898.413 171.945 911.674C165.674 925.814 156.722 933.294 146.06 933.294ZM146.06 789.138C128.637 789.138 116.002 818.592 116.002 859.175C116.002 879.005 119.195 896.942 124.999 909.713C130.507 921.823 137.987 928.494 146.06 928.494C156.95 928.494 163.758 918.288 167.555 909.736C173.086 897.261 176.119 879.313 176.119 859.175C176.119 815.98 164.602 789.138 146.06 789.138Z" fill="#A5A3A4"></path>
</g>
<path id="Vector_135" opacity="0.12" d="M835.018 304.944H785.518V354.444H835.018V304.944Z" fill="#0C3C63"></path>
<path id="Vector_136" opacity="0.12" d="M795.815 422.634H746.314V472.134H795.815V422.634Z" fill="#0C3C63"></path>
<g id="recycle">
<path id="Vector_137" d="M1034.98 134.8L1066.69 59.8362C1068.21 56.2443 1064.26 52.7892 1060.9 54.7847L1036.87 69.0612L1025.41 50.1893C1018.69 39.117 1006.68 32.355 993.714 32.355H904.097C891.064 32.355 878.965 39.1626 872.203 50.3033L840.925 101.799C838.815 105.277 839.944 109.804 843.445 111.879L896.617 143.466C900.072 145.518 904.519 144.401 906.606 140.969L948.843 71.4331L971.124 108.105L944.441 123.967C941.032 125.985 942.275 131.208 946.232 131.47L1030.99 137.228C1032.71 137.354 1034.31 136.362 1034.98 134.777V134.8Z" fill="#93D427"></path>
<path id="Vector_138" d="M925.923 246.948L844.574 246.275L864.677 208.36L891.965 223.161C895.454 225.054 899.285 221.314 897.495 217.779L859.044 142.018C858.269 140.478 856.593 139.612 854.893 139.84L774.263 150.98C770.397 151.516 769.451 156.67 772.895 158.541L797.457 171.871L787.114 191.381C781.048 202.83 781.39 216.616 788.026 227.734L833.912 304.704C840.594 315.902 852.624 322.812 865.669 322.915L925.911 323.416C929.982 323.451 933.289 320.155 933.289 316.096L933.187 254.246C933.187 250.232 929.948 246.982 925.934 246.948H925.923Z" fill="#93D427"></path>
<path id="Vector_139" d="M1105.42 191.028L1077.74 137.525C1075.87 133.91 1071.41 132.519 1067.82 134.423L1013.17 163.376C1009.62 165.257 1008.25 169.636 1010.1 173.194L1047.48 245.454L1004.57 245.375L1004.92 214.336C1004.97 210.367 999.871 208.714 997.579 211.952L948.535 281.317C947.531 282.719 947.543 284.612 948.546 286.003L996.04 352.107C998.32 355.277 1003.31 353.703 1003.36 349.792L1003.68 321.843L1025.76 321.877C1038.71 321.9 1050.74 315.161 1057.48 304.1L1104.03 227.757C1104.03 227.757 1104.09 227.643 1104.13 227.586C1110.91 216.457 1111.4 202.579 1105.42 191.005V191.028Z" fill="#93D427"></path>
<path id="Vector_140" d="M948.843 71.4445L906.606 140.98C904.519 144.412 900.072 145.518 896.617 143.477L843.445 111.891C839.944 109.816 838.815 105.289 840.925 101.811L872.203 50.3148C878.977 39.174 891.064 32.3665 904.097 32.3665C910.62 32.3665 916.903 34.0655 922.399 37.1557C927.895 40.2459 932.616 44.7387 936.003 50.3148L948.843 71.4559V71.4445Z" fill="#81B522"></path>
<path id="Vector_141" d="M933.278 316.096C933.278 320.167 929.971 323.451 925.9 323.416L865.658 322.915C852.613 322.812 840.583 315.902 833.901 304.704C832.852 302.959 831.973 301.146 831.232 299.276C829.636 295.228 828.758 290.884 828.644 286.528C828.473 279.925 830.274 274.042 832.977 268.112L844.562 246.264L925.911 246.937C929.925 246.971 933.164 250.221 933.164 254.234L933.266 316.084L933.278 316.096Z" fill="#81B522"></path>
<path id="Vector_142" d="M1104.13 227.609C1104.13 227.609 1104.06 227.723 1104.03 227.78C1102.46 230.323 1100.62 232.626 1098.54 234.679C1091.57 241.566 1082.01 245.511 1072.2 245.5L1047.47 245.454L1010.09 173.194C1008.24 169.636 1009.61 165.257 1013.16 163.376L1067.81 134.423C1071.4 132.519 1075.86 133.91 1077.73 137.525L1105.41 191.028C1111.4 202.613 1110.91 216.479 1104.12 227.609H1104.13Z" fill="#81B522"></path>
</g>
<path id="shadow_2" opacity="0.18" d="M912.695 957.241C832.464 957.241 762.757 962.178 727.431 969.431C714.409 966.808 696.688 965.189 677.132 965.189C637.176 965.189 604.792 971.928 604.792 980.252C604.792 988.576 637.176 995.315 677.132 995.315C696.677 995.315 714.409 993.696 727.431 991.073C762.746 998.326 832.452 1003.26 912.695 1003.26C1028.61 1003.26 1122.58 992.966 1122.58 980.252C1122.58 967.538 1028.61 957.241 912.695 957.241Z" fill="#9EB1C1"></path>
<path id="shadow_1" opacity="0.18" d="M372.045 964.003C347.95 964.003 326.33 965.36 311.552 967.526C302.829 968.803 294.003 969.26 285.2 968.86C270.045 968.176 253.75 967.811 236.794 967.811C215.676 967.811 195.595 968.393 177.464 969.419C173.576 964.858 147.645 961.323 116.23 961.323C82.1237 961.323 54.4714 965.485 54.4714 970.605C54.4714 974.938 74.2214 978.576 100.927 979.602C94.0626 981.791 90.2654 984.175 90.2654 986.683C90.2654 997.106 155.878 1005.57 236.805 1005.57C317.732 1005.57 383.345 997.117 383.345 986.683V986.661C383.345 985.6 384.064 984.676 385.124 984.654C423.472 983.844 452.755 979.568 452.755 974.391C452.755 968.644 416.631 963.991 372.056 963.991L372.045 964.003Z" fill="#9EB1C1"></path>
<g id="battery">
<path id="Vector_143" d="M642.661 893.316C642.136 893.122 641.68 892.734 641.429 892.187C641.019 891.309 641.247 890.282 641.931 889.655C640.836 887.169 633.47 880.864 629.764 878.343L629.228 877.979C627.837 877.055 626.263 875.994 625.226 874.295C623.47 871.433 624.222 869.289 624.838 868.263C627.062 864.523 633.63 864.044 635.979 864.17C642.615 864.534 647.986 867.967 653.186 871.296C656.447 873.395 659.537 875.367 662.867 876.587C668.432 878.628 671.374 877.34 673.324 871.992C673.905 870.418 673.78 868.868 673.654 867.237C673.415 864.17 673.118 860.338 677.999 856.803C684.031 852.436 692.401 852.561 698.022 854.614C699.3 855.081 700.542 855.994 701.66 857.157C702.435 856.894 703.291 856.644 704.203 856.393C716.016 853.314 727.898 857.248 735.082 861.957C739.849 865.082 742.859 868.674 743.338 871.798C744.319 878.127 737.329 879.917 732.22 881.228C730.133 881.764 727.761 882.369 726.895 883.064C725.948 883.828 724.569 883.669 723.816 882.734C723.052 881.787 723.2 880.407 724.147 879.655C725.743 878.366 728.366 877.693 731.137 876.986C736.724 875.561 739.324 874.512 739.005 872.482C738.777 871 736.724 868.309 732.676 865.64C726.279 861.444 715.731 857.932 705.309 860.646C704.99 860.726 704.682 860.817 704.385 860.897C705.457 862.813 706.198 864.865 706.438 866.655C706.86 869.894 705.503 871.376 704.659 871.969C702.96 873.166 700.542 872.961 697.464 871.365C694.419 869.791 692.777 867.271 693.074 864.637C693.256 863.006 694.225 860.977 697.27 859.129C697.008 858.958 696.745 858.822 696.494 858.73C691.135 856.769 684.578 857.43 680.553 860.349C677.668 862.436 677.793 864.112 678.01 866.895C678.158 868.833 678.329 871.023 677.429 873.497C674.623 881.16 669.207 883.589 661.339 880.704C657.553 879.324 654.121 877.123 650.791 874.991C645.854 871.832 641.201 868.845 635.716 868.548C633.117 868.411 629.319 869.289 628.59 870.51C628.407 870.817 628.533 871.319 628.943 872.003C629.49 872.881 630.539 873.588 631.646 874.341L632.216 874.729C632.364 874.831 646.857 884.877 646.412 890.362C646.31 891.639 645.546 892.7 644.326 893.27C643.778 893.521 643.174 893.532 642.649 893.338L642.661 893.316ZM700.246 862.482C698.342 863.462 697.521 864.432 697.441 865.139C697.361 865.869 698.182 866.815 699.482 867.488C701.021 868.286 701.808 868.366 702.093 868.366C702.184 868.012 702.23 866.975 701.557 865.162C701.215 864.238 700.759 863.326 700.246 862.493V862.482Z" fill="#000300"></path>
<path id="Vector_144" d="M648.317 914.696C647.427 914.708 647.302 914.673 646.823 914.696C641.635 914.742 637.621 913.054 637.837 910.945L638.157 907.9C638.385 905.79 642.764 904.034 647.952 904C648.169 904 648.362 904 648.545 904C648.727 904 648.921 903.977 649.138 903.966C654.326 903.67 658.648 905.14 658.773 907.239L658.967 910.26C659.104 912.359 654.999 914.309 649.811 914.605C649.332 914.605 649.206 914.651 648.317 914.696Z" fill="#A6B8BF"></path>
<path id="Vector_145" d="M715.56 914.411C716.45 914.411 716.575 914.377 717.054 914.411C722.242 914.411 726.279 912.689 726.097 910.58L725.823 907.547C725.629 905.437 721.273 903.727 716.085 903.727C715.868 903.727 715.674 903.727 715.492 903.727C715.309 903.727 715.116 903.704 714.899 903.704C709.71 903.453 705.377 904.958 705.218 907.068L704.978 910.089C704.819 912.199 708.889 914.103 714.078 914.354C714.557 914.354 714.682 914.388 715.572 914.434L715.56 914.411Z" fill="#A6B8BF"></path>
<path id="Vector_146" d="M681.819 984.585C654.782 984.3 633.31 981.119 633.447 977.356C633.527 975.052 621.6 914.343 634.166 913.134C640.437 912.53 666.619 912.188 681.956 912.062C697.293 912.245 723.463 912.678 729.746 913.305C742.312 914.559 730.156 975.223 730.236 977.538C730.361 981.301 708.878 984.403 681.83 984.597L681.819 984.585Z" fill="#075668"></path>
<path id="Vector_147" d="M630.46 914.73C630.46 910.967 654.817 909.941 681.933 910.021C709.061 910.044 733.395 911.15 733.395 914.913C736.827 923.511 710.908 921.937 682.879 921.983C652.844 922.017 627.016 923.248 630.448 914.73H630.46Z" fill="#B6C9D1"></path>
<path id="Vector_148" d="M628.715 921.196C627.803 920.865 627.187 919.942 627.29 918.927C627.404 917.718 628.476 916.84 629.684 916.954C648.921 918.824 666.493 919.782 681.933 919.805C697.361 919.828 714.944 918.938 734.193 917.137C735.401 917.023 736.473 917.912 736.576 919.121C736.69 920.329 735.801 921.401 734.592 921.504C715.207 923.317 697.486 924.218 681.921 924.195C666.345 924.172 648.625 923.203 629.262 921.321C629.069 921.299 628.886 921.264 628.715 921.196Z" fill="#4A9ABF"></path>
<path id="Vector_149" d="M682.583 937.32C663.722 937.183 643.448 935.963 628.362 934.446C629.297 952.03 633.481 976.033 633.436 977.367C633.299 981.13 654.771 984.312 681.807 984.597C708.844 984.403 730.327 981.301 730.213 977.538C730.167 976.204 734.421 952.223 735.413 934.64C720.327 936.111 701.432 937.263 682.583 937.331V937.32Z" fill="#0C6D87"></path>
<path id="Vector_150" d="M632.056 975.463C631.144 975.132 630.528 974.208 630.631 973.194C630.745 971.985 631.817 971.107 633.025 971.221C650.803 972.943 667.234 973.901 681.853 974.06C696.437 973.958 712.869 973.057 730.658 971.403C731.867 971.289 732.927 972.179 733.041 973.387C733.155 974.596 732.266 975.668 731.057 975.771C713.143 977.447 696.586 978.348 681.842 978.45C667.063 978.291 650.506 977.333 632.592 975.6C632.398 975.577 632.216 975.543 632.045 975.474L632.056 975.463Z" fill="#4A9ABF"></path>
<path id="Vector_151" d="M644.919 952.144C643.858 951.756 643.254 950.616 643.562 949.51C643.881 948.335 645.078 947.651 646.253 947.959C649.252 948.768 652.479 948.552 655.512 948.187C656.709 948.039 657.804 948.905 657.952 950.103C658.089 951.3 657.234 952.395 656.025 952.543C652.559 952.953 648.83 953.193 645.113 952.189C645.044 952.178 644.987 952.155 644.93 952.132L644.919 952.144Z" fill="#4A9ABF"></path>
<path id="Vector_152" d="M708.867 952.258C707.806 951.87 707.202 950.73 707.51 949.624C707.829 948.449 709.026 947.765 710.201 948.073C713.2 948.882 716.427 948.666 719.46 948.301C720.669 948.153 721.752 949.019 721.9 950.217C722.037 951.414 721.182 952.509 719.973 952.657C716.507 953.067 712.778 953.307 709.061 952.303C708.992 952.292 708.935 952.269 708.878 952.246L708.867 952.258Z" fill="#4A9ABF"></path>
<path id="Vector_153" d="M713.85 957.549C712.881 957.195 712.276 956.203 712.436 955.143C712.926 952.041 712.949 948.677 712.903 945.507C712.881 944.298 713.85 943.295 715.07 943.284C716.279 943.261 717.271 944.23 717.294 945.439C717.339 948.814 717.316 952.406 716.769 955.827C716.575 957.024 715.458 957.834 714.26 957.651C714.112 957.628 713.975 957.594 713.85 957.549Z" fill="#4A9ABF"></path>
<path id="Vector_154" d="M641.235 910.249C640.278 909.896 639.491 909.109 639.194 908.048C637.689 902.689 637.609 897.01 638.989 891.605C639.765 888.595 641.863 888.036 642.729 887.933C644.269 887.751 645.409 888.515 645.785 888.766C650.552 891.947 653.38 898.116 653.539 905.676C653.574 907.49 652.137 908.995 650.324 909.029C648.511 909.063 647.005 907.626 646.971 905.813C646.937 903.92 646.606 899.998 644.713 896.965C644.406 900.089 644.679 903.236 645.523 906.258C646.013 908.003 644.999 909.827 643.254 910.317C642.558 910.511 641.863 910.466 641.235 910.238V910.249Z" fill="#47484A"></path>
<path id="Vector_155" d="M718 899.017C717.567 898.857 717.157 898.606 716.803 898.253C715.515 896.964 715.526 894.889 716.803 893.601C718.137 892.266 720.749 889.313 721.638 885.858C719.164 887.796 717.077 890.168 715.48 892.871C714.557 894.433 712.538 894.958 710.976 894.034C709.414 893.11 708.889 891.092 709.813 889.53C712.641 884.729 716.701 880.749 721.547 878.024C724.249 876.507 726.108 877.636 726.781 878.195C727.978 879.187 728.218 880.533 728.297 880.977C729.289 886.622 726.792 892.928 721.444 898.264C720.509 899.199 719.152 899.45 717.989 899.028L718 899.017Z" fill="#47484A"></path>
<path id="Vector_156" d="M679.481 932.645L692.458 947.423L682.845 949.681L686.551 964.003L674.088 946.864L683.278 944.971L679.481 932.645Z" fill="#FFC82F"></path>
</g>
<g id="bin">
<g id="Group_14">
<path id="Vector_157" d="M977.624 641.811L989.757 635.118L987.316 630.716L975.195 637.421L977.624 641.811Z" fill="#59A54C"></path>
<path id="Vector_158" d="M1008.1 718.462C1009.04 720.15 1010.5 721.119 1011.35 720.651L1039.31 705.2C1040.18 704.721 1040.12 702.977 1039.19 701.289L1007.9 635.129C1006.72 633.008 1004.9 631.776 1003.81 632.381L968.581 651.846C967.498 652.45 967.567 654.651 968.741 656.772L1008.12 718.462H1008.1Z" fill="#DAEEF4"></path>
<path id="Vector_159" opacity="0.32" d="M994.888 637.307L1003.82 632.369C1004.9 631.765 1006.74 632.997 1007.91 635.117L1039.2 701.278C1040.12 702.965 1040.18 704.71 1039.33 705.189L1028.15 711.369L994.9 637.307H994.888Z" fill="#9ECFE2"></path>
<path id="Vector_160" d="M988.354 631.64C988.354 631.64 985.629 624.216 984.591 624.262C983.553 624.307 963.37 631.218 959.835 641.549C960.166 642.324 962.458 643.601 962.458 643.601C962.458 643.601 966.905 638.39 973.701 635.893C974.055 636.338 975.195 638.789 975.195 638.789C975.195 638.789 987.111 633.053 988.343 631.64H988.354Z" fill="#84E572"></path>
<path id="Vector_161" d="M991.136 633.595L975.847 642.046L978.274 646.437L993.563 637.986L991.136 633.595Z" fill="#84E572"></path>
</g>
<g id="Group_15">
<path id="Vector_162" d="M868.817 674.595L822.714 735.464C820.696 739.409 809.578 737.745 797.901 731.758C786.213 725.749 778.391 717.687 780.42 713.753L803.033 640.808L868.828 674.595H868.817Z" fill="#F3654F"></path>
<path id="Vector_163" d="M850.697 665.278L868.817 674.595L822.714 735.464C821.004 738.805 812.771 738.109 803.192 734.187L850.697 665.278Z" fill="#E24F3E"></path>
<path id="Vector_164" d="M803.021 640.808C801.368 644.058 814.732 654.24 832.897 663.579C851.073 672.907 867.163 677.833 868.817 674.595C870.481 671.356 857.106 661.162 838.941 651.823C820.776 642.495 804.686 637.558 803.021 640.808Z" fill="#C4403E"></path>
<path id="Vector_165" d="M866.011 677.434C868.281 677.434 869.774 676.761 870.447 675.439C871.793 672.805 869.318 669.292 862.419 664.036C856.695 659.668 848.656 654.754 839.773 650.192C825.314 642.769 811.984 637.968 805.815 637.968C803.546 637.968 802.052 638.641 801.368 639.964C797.639 647.273 828.507 663.397 832.042 665.21C846.501 672.633 859.831 677.434 866 677.434H866.011ZM867.026 673.66C866.821 673.705 866.502 673.751 866.011 673.751C860.561 673.751 847.288 668.893 833.741 661.937C814.709 652.165 805.735 644.183 804.812 641.743C805.017 641.697 805.336 641.652 805.838 641.652C811.288 641.652 824.562 646.509 838.108 653.465C857.128 663.237 866.114 671.22 867.038 673.66H867.026Z" fill="#FF8E66"></path>
</g>
<g id="Group_16">
<path id="Vector_166" d="M952.64 754.609C952.515 755.362 952.936 756.069 953.586 756.4L964.624 768.681L969.596 769.718L974.648 770.243L988.902 761.907L988.708 761.862C989.403 761.736 989.973 761.189 990.099 760.448L1001.49 687.355C1001.49 687.263 1001.48 687.172 1001.47 687.081C1001.81 684.048 993.873 680.33 983.645 678.723C973.393 677.126 964.716 678.266 964.111 681.265C964.089 681.357 964.032 681.436 964.02 681.528L952.64 754.621V754.609Z" fill="#F3654F"></path>
<path id="Vector_167" d="M980.737 759.946C980.611 760.756 980.03 761.36 979.323 761.52L979.517 761.565L967.646 769.297L969.608 769.707L974.659 770.232L988.913 761.896L988.719 761.851C989.415 761.725 989.985 761.178 990.11 760.437L1001.5 687.343C1001.5 687.252 1001.49 687.161 1001.48 687.07C1001.7 685.063 998.309 682.771 993.041 680.98L980.737 759.958V759.946Z" fill="#E24F3E"></path>
<g id="Group_17">
<path id="Vector_168" d="M985.173 704.493L984.979 705.759C984.899 706.318 985.275 706.842 985.834 706.934L998.149 708.849L998.674 705.554L986.359 703.638C985.8 703.547 985.275 703.935 985.184 704.493H985.173Z" fill="#E24F3E"></path>
<path id="Vector_169" d="M986.279 697.389L986.085 698.666C985.994 699.225 986.381 699.75 986.94 699.841L999.255 701.757L999.769 698.461L987.465 696.546C986.906 696.454 986.381 696.842 986.29 697.401L986.279 697.389Z" fill="#E24F3E"></path>
<path id="Vector_170" d="M997.556 712.658L985.241 710.731C984.682 710.651 984.158 711.027 984.055 711.597L983.861 712.863C983.782 713.422 984.158 713.946 984.728 714.038L997.032 715.953L997.556 712.658Z" fill="#E24F3E"></path>
<path id="Vector_171" d="M974.271 704.22L974.465 702.954C974.557 702.395 974.18 701.871 973.621 701.791L961.181 699.852L960.668 703.148L973.097 705.086C973.656 705.166 974.18 704.79 974.271 704.231V704.22Z" fill="#E24F3E"></path>
<path id="Vector_172" d="M961.762 696.044L974.203 697.982C974.75 698.062 975.286 697.686 975.366 697.127L975.56 695.861C975.651 695.303 975.264 694.778 974.705 694.687L962.264 692.748L961.751 696.044H961.762Z" fill="#E24F3E"></path>
<path id="Vector_173" d="M973.154 711.324L973.359 710.058C973.439 709.499 973.063 708.986 972.504 708.884L960.063 706.945L959.55 710.241L971.991 712.179C972.538 712.259 973.074 711.883 973.154 711.324Z" fill="#E24F3E"></path>
</g>
</g>
<path id="Vector_174" d="M945.023 982.293L936.539 736.684L1060.63 739.364L1031.87 982.293H945.023Z" fill="#84E572"></path>
<g id="Group_18">
<path id="Vector_175" d="M949.516 698.689L933.323 741.758C932.833 744.381 926.128 745.328 918.351 743.868C910.574 742.408 904.679 739.09 905.169 736.467L905.717 690.456L949.516 698.689Z" fill="#4CCDD4"></path>
<path id="Vector_176" d="M937.451 696.42L949.516 698.689L933.323 741.758C932.901 743.982 928.032 744.997 921.829 744.37L937.451 696.431V696.42Z" fill="#45B3C5"></path>
<path id="Vector_177" d="M905.717 690.456C905.306 692.623 914.793 696.215 926.881 698.484C938.979 700.753 949.105 700.844 949.516 698.689C949.915 696.523 940.439 692.931 928.34 690.65C916.253 688.381 906.116 688.29 905.705 690.445L905.717 690.456Z" fill="#459FAE"></path>
<path id="Vector_178" d="M942.993 701.358C947.942 701.358 950.291 700.594 950.61 698.895C951.511 694.014 930.906 690 928.557 689.555C922.422 688.404 916.641 687.777 912.251 687.777C907.302 687.777 904.953 688.541 904.633 690.24C904.565 690.605 904.576 691.175 905.021 691.825C907.005 694.732 917.325 697.8 926.687 699.567C932.822 700.719 938.614 701.346 943.004 701.346L942.993 701.358ZM948.33 698.45C947.931 698.666 946.653 699.134 942.993 699.134C938.797 699.134 932.993 698.495 927.086 697.389C914.417 695.006 907.86 691.939 906.914 690.684C907.302 690.468 908.579 690 912.251 690C916.447 690 922.24 690.639 928.158 691.745C940.826 694.117 947.383 697.195 948.341 698.45H948.33Z" fill="#4CDAE1"></path>
</g>
<g id="Group_19">
<path id="Vector_179" d="M893.846 754.222C910.814 743.218 919.913 737.778 919.218 736.262C918.534 734.745 913.129 722.863 907.86 717.333C902.604 711.802 894.371 709.134 892.489 706.329C890.596 703.535 885.818 688.312 878.646 683.956C871.245 685.804 853.172 701.038 847.995 706.443C842.829 711.848 835.314 710.081 831.084 713.536C826.853 716.979 827.88 719.226 830.172 722.932C832.464 726.626 852.009 746.103 856.695 753.731C861.393 761.36 865.806 769.73 867.437 769.285C869.067 768.852 885.761 759.456 893.835 754.222H893.846Z" fill="#86C7D4"></path>
<path id="Vector_180" d="M831.095 713.536C831.346 713.331 831.609 713.148 831.882 712.977C837.892 717.869 848.131 729.626 853.08 728.314C859.067 726.729 862.602 711.689 865.863 714.186C869.124 716.66 874.712 721.564 867.71 728.964C860.709 736.365 858.816 740.276 864.107 741.838C868.623 743.172 888.452 748.452 895.602 753.093C895.021 753.469 894.45 753.834 893.857 754.222C885.784 759.456 869.09 768.852 867.46 769.285C865.829 769.718 861.416 761.36 856.718 753.731C852.031 746.103 832.487 726.638 830.195 722.932C827.891 719.226 826.876 716.98 831.107 713.536H831.095Z" fill="#B4E1E3"></path>
<path id="Vector_181" d="M878.646 683.957C885.818 688.312 890.596 703.535 892.489 706.329C894.371 709.134 902.604 711.791 907.86 717.333C908.693 718.2 909.525 719.249 910.346 720.378C905.831 718.77 900.54 717.208 895.249 716.421C881.645 714.414 884.815 708.906 882.956 704.824C881.668 701.973 876.719 692.406 873.138 686.465C875.271 685.222 877.175 684.31 878.646 683.945V683.957Z" fill="#9DD7E1"></path>
<path id="Vector_182" d="M828.313 718.975C828.188 718.394 828.188 717.812 828.313 717.242C828.473 716.797 828.724 716.25 829.077 715.645C829.545 714.984 830.172 714.3 831.095 713.547C835.326 710.092 842.829 711.86 848.006 706.455C853.137 701.095 870.983 686.043 878.475 684.025C876.742 687.765 873.686 691.562 863.788 698.461C852.054 706.648 856.353 711.609 851.359 715.611C846.889 719.203 830.183 722.898 828.313 718.987V718.975Z" fill="#70AEC3"></path>
</g>
<path id="Vector_183" opacity="0.5" d="M945.023 982.293L936.539 736.684L1060.63 739.364L1031.87 982.293H945.023Z" fill="#569F48"></path>
<path id="Vector_184" d="M798.745 982.293L763.875 731.883H977.749L969.494 982.293H798.745Z" fill="#84E572"></path>
<path id="Vector_185" opacity="0.62" d="M935.273 856.826C936.516 889.952 911.726 916.794 879.889 916.794C848.052 916.794 821.243 889.952 819.989 856.826C818.746 823.7 843.548 796.858 875.385 796.858C907.222 796.858 934.03 823.712 935.273 856.826Z" fill="#569F48"></path>
<g id="Group_20">
<path id="Vector_186" d="M855.703 842.47L867.175 822.685C869.022 819.515 872.477 817.543 876.16 817.543C879.843 817.543 883.161 819.424 885.043 822.571C885.339 823.073 885.704 823.7 886.16 824.476L893.607 837.327C892.193 838.422 890.494 839.094 889.091 840.212C884.473 832.253 880.653 825.673 880.448 825.308C879.535 823.792 877.928 822.891 876.16 822.891C874.393 822.891 872.705 823.849 871.804 825.365L860.241 845.309C858.679 844.465 857.185 843.473 855.703 842.458V842.47Z" fill="white"></path>
<path id="Vector_187" d="M841.883 866.359L851.416 849.882C852.978 850.76 854.517 851.672 856.034 852.607L846.489 869.073C846.011 869.848 845.771 870.749 845.771 871.661C845.771 874.421 848.029 876.667 850.811 876.667H877.095V882.015H850.811C845.087 882.015 840.4 877.363 840.4 871.661C840.4 869.768 840.913 867.921 841.883 866.348V866.359Z" fill="white"></path>
<path id="Vector_188" d="M883.789 876.679H901.577C904.303 876.633 906.526 874.387 906.526 871.673C906.526 870.76 906.275 869.871 905.774 869.05C905.648 868.811 898.613 856.701 891.999 845.275C893.538 844.385 895.135 843.564 896.651 842.606L910.38 866.313C911.373 867.944 911.886 869.78 911.886 871.673C911.886 877.294 907.302 881.935 901.612 882.027H883.754C883.789 880.236 883.812 878.457 883.789 876.679Z" fill="white"></path>
<path id="Vector_189" d="M858.394 847.179C858.565 847.179 858.725 847.156 858.885 847.134L868.702 845.332C870.151 845.07 871.131 843.667 870.858 842.219C870.584 840.771 869.17 839.813 867.722 840.075L860.344 841.432L858.36 834.111C857.972 832.686 856.49 831.831 855.076 832.23C853.651 832.606 852.795 834.077 853.183 835.491L855.806 845.206C856.125 846.381 857.185 847.179 858.383 847.179H858.394Z" fill="white"></path>
<path id="Vector_190" d="M870.014 889.176C870.721 889.176 871.428 888.891 871.952 888.355L878.931 881.103C879.889 880.111 879.934 878.549 878.999 877.488L872.386 870.019C871.405 868.925 869.717 868.811 868.6 869.78C867.494 870.76 867.391 872.448 868.372 873.554L873.343 879.187L868.087 884.638C867.049 885.71 867.083 887.397 868.167 888.424C868.668 888.925 869.352 889.176 870.014 889.176Z" fill="white"></path>
<path id="Vector_191" d="M890.733 856.016C891.782 856.016 892.797 855.378 893.219 854.34L896.024 847.396L903.288 849.642C904.702 850.076 906.196 849.3 906.652 847.886C907.085 846.472 906.31 844.978 904.884 844.534L895.26 841.546C893.926 841.136 892.501 841.808 891.976 843.085L888.247 852.322C887.7 853.69 888.373 855.252 889.73 855.8C890.072 855.937 890.402 855.994 890.733 855.994V856.016Z" fill="white"></path>
</g>
<path id="Vector_192" opacity="0.62" d="M766.349 749.683L768.493 765.021H992.471V749.683H766.349Z" fill="#569F48"></path>
<path id="Vector_193" d="M1057.15 764.781L976.655 765.02L977.453 750.06H1059.17L1057.15 764.781Z" fill="#59A54C"></path>
<g id="Group_21">
<path id="Vector_194" d="M956.825 752.819H942.229V786.23H956.825V752.819Z" fill="#569F48"></path>
<path id="Vector_195" d="M908.545 752.819H893.937V786.23H908.545V752.819Z" fill="#569F48"></path>
<path id="Vector_196" d="M860.241 752.819H845.646V786.23H860.241V752.819Z" fill="#569F48"></path>
<path id="Vector_197" d="M811.95 752.819H797.354V786.23H811.95V752.819Z" fill="#569F48"></path>
</g>
<g id="Group_22">
<path id="Vector_198" d="M942.229 786.242H956.836L953.917 752.819H939.321L942.229 786.242Z" fill="#84E572"></path>
<path id="Vector_199" opacity="0.21" d="M942.229 786.242H956.836L953.917 752.819H939.321L942.229 786.242Z" fill="#569F48"></path>
<path id="Vector_200" d="M893.937 786.242H908.533L905.625 752.819H891.018L893.937 786.242Z" fill="#84E572"></path>
<path id="Vector_201" opacity="0.21" d="M893.937 786.242H908.533L905.625 752.819H891.018L893.937 786.242Z" fill="#569F48"></path>
<path id="Vector_202" d="M845.646 786.242H860.241L857.334 752.819H842.726L845.646 786.242Z" fill="#84E572"></path>
<path id="Vector_203" d="M797.354 786.242H811.95L809.031 752.819H794.435L797.354 786.242Z" fill="#84E572"></path>
<path id="Vector_204" opacity="0.21" d="M845.646 786.242H860.241L857.334 752.819H842.726L845.646 786.242Z" fill="#569F48"></path>
<path id="Vector_205" opacity="0.21" d="M797.354 786.242H811.95L809.031 752.819H794.435L797.354 786.242Z" fill="#569F48"></path>
</g>
<path id="Vector_206" d="M1071.37 750.117C1071.37 753.139 1067.98 755.602 1063.79 755.602H758.116C753.931 755.602 750.545 753.139 750.545 750.117L747.443 719.58C747.443 716.535 750.83 714.083 755.015 714.083H1066.89C1071.07 714.083 1074.47 716.535 1074.47 719.58L1071.37 750.117Z" fill="#84E572"></path>
<path id="Vector_207" opacity="0.5" d="M1066.9 714.083H985.093C988.423 714.083 991.102 716.535 991.102 719.58V750.117C991.102 753.139 988.423 755.602 985.093 755.602H1063.8C1067.99 755.602 1071.38 753.139 1071.38 750.117L1074.48 719.58C1074.48 716.535 1071.08 714.083 1066.9 714.083Z" fill="#569F48"></path>
</g>
</g>
</svg>