<svg width="600" height="auto" viewBox="0 0 1150 677" fill="none" xmlns="http://www.w3.org/2000/svg">
    <g id="Gem_services_home_page" clip-path="url(#clip0_4_46)">
    <rect width="1150" height="677"></rect>
    <path id="Bolt_big" d="M758.134 66.9401C753.977 73.1065 751.446 79.9983 750 86.8902L755.965 87.9784C754.7 94.5075 754.7 101.037 756.146 107.566L750.181 108.835C751.627 115.908 754.338 122.619 758.496 128.604L759.58 127.879L763.557 125.158C767.172 130.418 771.692 135.133 777.476 138.76L774.222 143.839C780.368 148.01 787.237 150.549 794.106 152L795.191 146.015C801.698 147.285 808.206 147.285 814.532 145.834L815.798 151.819C822.847 150.368 829.536 147.466 835.501 143.476L834.597 142.025L832.247 138.398C837.489 134.77 842.189 130.236 845.804 124.614L850.866 127.879C855.023 121.712 857.554 114.82 859 107.928L853.035 106.84C854.3 100.311 854.3 93.782 852.854 87.4343L858.819 86.1647C857.373 79.0915 854.481 72.381 850.504 66.396L845.443 69.8419C841.828 64.5824 837.308 59.8669 831.705 56.2396L834.959 51.1614C828.813 46.99 821.944 44.4509 815.075 43L813.99 48.985C807.483 47.7155 800.975 47.7155 794.648 49.1664L793.383 43.1814C786.333 44.6323 779.645 47.5341 773.68 51.5241L775.849 54.7887L776.934 56.421C771.692 60.0483 766.992 64.5824 763.376 70.2047L758.134 66.9401ZM782.176 82.7188C790.31 70.386 806.94 66.9401 819.232 74.9201C831.705 83.0815 835.139 99.7671 827.005 112.1C818.871 124.614 802.24 128.06 789.949 119.898C777.476 111.918 774.041 95.2329 782.176 82.7188Z" fill="#A1B3D5"></path>
    <path id="Bolt_small" d="M694.5 25.2C692.2 28.6 690.8 32.4 690 36.2L693.3 36.8C692.6 40.4 692.6 44 693.4 47.6L690.1 48.3C690.9 52.2 692.4 55.9 694.7 59.2L695.3 58.8L697.5 57.3C699.5 60.2 702 62.8 705.2 64.8L703.4 67.6C706.8 69.9 710.6 71.3 714.4 72.1L715 68.8C718.6 69.5 722.2 69.5 725.7 68.7L726.4 72C730.3 71.2 734 69.6 737.3 67.4L736.8 66.6L735.5 64.6C738.4 62.6 741 60.1 743 57L745.8 58.8C748.1 55.4 749.5 51.6 750.3 47.8L747 47.2C747.7 43.6 747.7 40 746.9 36.5L750.2 35.8C749.4 31.9 747.8 28.2 745.6 24.9L742.8 26.8C740.8 23.9 738.3 21.3 735.2 19.3L737 16.5C733.6 14.2 729.8 12.8 726 12L725.4 15.3C721.8 14.6 718.2 14.6 714.7 15.4L714 12.1C710.1 12.9 706.4 14.5 703.1 16.7L704.3 18.5L704.9 19.4C702 21.4 699.4 23.9 697.4 27L694.5 25.2ZM707.8 33.9C712.3 27.1 721.5 25.2 728.3 29.6C735.2 34.1 737.1 43.3 732.6 50.1C728.1 57 718.9 58.9 712.1 54.4C705.2 50 703.3 40.8 707.8 33.9Z" fill="#A1B3D5"></path>
    <path id="Bg_box_rightside" d="M971.6 105.4H726V337.2H971.6V105.4Z" fill="#E5F1FA"></path>
    <path id="Bg_box_leftside" d="M564.7 82H292V339.3H564.7V82Z" fill="#E5F1FA"></path>
    <path id="Vector" d="M664.3 431.5L662.4 430C679.1 409.5 685.9 392.3 683.2 377.7C679.5 357.7 658.5 345.6 639.9 334.9C629.5 328.9 619.6 323.2 614.1 316.8C609.9 312 608.2 306.7 609 301.3C610.7 288.9 624.6 279.6 625.2 279.2L626.5 281.2C626.4 281.3 613 290.3 611.4 301.6C610.7 306.4 612.3 310.9 616 315.2C621.3 321.3 631 326.9 641.2 332.8C660.2 343.8 681.8 356.2 685.7 377.3C688.5 392.6 681.5 410.4 664.3 431.5Z" fill="#113D63"></path>
    <path id="Joint_wire_lower" d="M721.5 498.6L713.2 493.3C726.8 472.1 726.8 452.9 713.2 437.7C690.7 412.4 644.9 432.4 644.4 432.6L640.4 423.7C640.9 423.5 653.5 417.9 669.5 415.9C691.4 413.1 709 418.4 720.5 431.3C737.1 449.7 737.4 473.7 721.5 498.6Z" fill="#113D63"></path>
    <g id="Joint_wire_part_upper">
    <path id="Vector_2" d="M518.3 294.9C518 294.3 510.8 279.2 509.2 260.3C507 234.6 516.3 214.6 536.1 202.3C550.6 193.4 566.5 190.8 582.1 194.8C600.1 199.5 614.5 212.3 618.6 219.5L610.1 224.3C607.4 219.5 595.4 208.3 579.7 204.3C566.5 200.9 553.6 203 541.3 210.6C524.6 220.9 517.1 237.3 519.1 259.4C520.6 276.4 527.2 290.4 527.3 290.5L518.3 294.9Z" fill="#113D63"></path>
    <path id="Vector_3" d="M624.181 211.862L600.539 225.513L604.289 232.008L627.931 218.357L624.181 211.862Z" fill="#113D63"></path>
    </g>
    <g id="Machine_part1( move_part)">
    <path id="Vector_4" d="M804 194.8H787.9V269.5H804V194.8Z" fill="#113D63"></path>
    <path id="Vector_5" d="M805.7 246.7H786.8C783.4 249.4 781.3 253.6 781.3 258.3V272H811.2V258.3C811.2 253.6 809 249.4 805.7 246.7Z" fill="#809BBB" stroke="#7D8CA0" stroke-miterlimit="10"></path>
    <g id="Group_new">
    <path id="Vector_6" d="M814 271.9H778.7V276.2H814V271.9Z" fill="#113D63"></path>
    </g>
    </g>
    <path id="Machine_move_right_handle" d="M771.4 349.8L765.4 350.7L748.2 306.3L764.7 303.9L771.4 349.8Z" fill="#113D63"></path>
    <path id="Machine_move_mid_part" d="M815.3 292.2H779.8C775.5 292.2 771.9 288.7 771.9 284.3C771.9 280 775.4 276.4 779.8 276.4H815.3C819.6 276.4 823.2 279.9 823.2 284.3C823.1 288.7 819.6 292.2 815.3 292.2Z" fill="#809BBB" stroke="#7D8CA0" stroke-miterlimit="10"></path>
    <g id="Machine_movepart_left">
    <path id="Vector_7" d="M783.8 279C781.3 276.3 777.2 276 774.4 278.4L751.2 298.4C745.8 302.9 745.9 311.3 751.4 315.7C756.6 319.9 764.3 318.7 767.9 313L784.5 287.1C786.1 284.7 785.9 281.3 783.8 279Z" fill="#809BBB" stroke="#7D8CA0" stroke-miterlimit="10"></path>
    <g id="Group_2">
    <g id="Group_3">
    <path id="Vector_8" d="M755.5 304.1C753.6 306.4 754.6 309.9 757.4 310.9C759.1 311.5 761.1 310.9 762.2 309.5C764.1 307.2 763.1 303.7 760.3 302.7C758.6 302.1 756.6 302.7 755.5 304.1Z" fill="#113D63"></path>
    </g>
    </g>
    <g id="Group_4">
    <g id="Group_5">
    <path id="Vector_9" d="M775.8 282.1C774.4 283.9 775.1 286.5 777.3 287.3C778.6 287.8 780.1 287.3 781 286.2C782.4 284.4 781.7 281.8 779.5 281C778.2 280.5 776.7 281 775.8 282.1Z" fill="#113D63"></path>
    </g>
    </g>
    </g>
    <g id="Machine_movepart_right">
    <path id="Vector_10" d="M810.1 279.4C812.2 276.4 816.3 275.6 819.3 277.6L845 294.4C850.9 298.2 851.9 306.4 847.1 311.6C842.5 316.5 834.7 316.2 830.4 311.1L810.5 287.6C808.6 285.2 808.4 281.9 810.1 279.4Z" fill="#809BBB" stroke="#7D8CA0" stroke-miterlimit="10"></path>
    <g id="Group_6">
    <g id="Group_7">
    <path id="Vector_11" d="M812.8 283.1C812.4 285.4 814.3 287.3 816.5 287C817.9 286.8 819 285.7 819.3 284.4C819.7 282.1 817.8 280.2 815.6 280.5C814.2 280.6 813.1 281.7 812.8 283.1Z" fill="#113D63"></path>
    </g>
    </g>
    <g id="Group_8">
    <g id="Group_9">
    <path id="Vector_12" d="M834.3 302.8C833.7 305.7 836.2 308.3 839.1 307.9C840.9 307.7 842.4 306.3 842.7 304.5C843.3 301.6 840.8 299 837.8 299.4C836.1 299.6 834.6 301 834.3 302.8Z" fill="#113D63"></path>
    </g>
    </g>
    </g>
    <path id="Machine_mid_part2" d="M799 190.9H739.6V210H799V190.9Z" fill="#113D63"></path>
    <path id="machine_part2_left" d="M746.8 221.3H708.3C696.7 221.3 687.4 211.9 687.4 200.4C687.4 188.8 696.8 179.5 708.3 179.5H746.8V221.3Z" fill="#809BBB" stroke="#7D8CA0" stroke-miterlimit="10"></path>
    <g id="Machine_part2_right">
    <path id="Vector_13" d="M796.7 221.3H769.6V179.5H796.7C808.3 179.5 817.6 188.9 817.6 200.4C817.6 212 808.2 221.3 796.7 221.3Z" fill="#809BBB" stroke="#7D8CA0" stroke-miterlimit="10"></path>
    <path id="Vector_14" d="M801.6 210.4C796 212.7 789.5 210.1 787.2 204.5C784.9 198.9 787.5 192.4 793.1 190.1C798.7 187.8 805.2 190.4 807.5 196C809.8 201.6 807.2 208.1 801.6 210.4ZM794.9 194.4C791.7 195.8 790.1 199.5 791.5 202.8C792.9 206 796.6 207.6 799.9 206.2C803.1 204.8 804.7 201.1 803.3 197.8C801.9 194.5 798.1 193 794.9 194.4Z" fill="#113D63"></path>
    </g>
    <g id="Machine_part_3">
    <path id="Vector_15" d="M631.513 288.197L598.354 236.873L587.602 243.819L620.761 295.143L631.513 288.197Z" fill="#113D63"></path>
    <path id="Vector_16" d="M526.2 319.7C521.2 312 523.5 301.7 531.2 296.7L616.9 241.5L634.9 269.5L549.2 324.7C541.5 329.7 531.2 327.5 526.2 319.7Z" fill="#113D63"></path>
    <g id="Group_10">
    <path id="Vector_17" d="M627.5 296.1L720.2 227.4C732.1 218.6 735.1 202 727 189.6C718.9 177.2 702.6 173.2 689.7 180.5L589.5 237.3L627.5 296.1Z" fill="#809BBB" stroke="#7D8CA0" stroke-miterlimit="10"></path>
    <path id="Vector_18" d="M713.3 220C705 225.4 693.8 223 688.4 214.7C683 206.4 685.4 195.2 693.7 189.8C702 184.4 713.2 186.8 718.6 195.1C724 203.5 721.6 214.6 713.3 220ZM697.8 196.2C693 199.3 691.6 205.8 694.7 210.6C697.8 215.4 704.3 216.8 709.1 213.7C713.9 210.6 715.3 204.1 712.2 199.3C709.1 194.5 702.6 193.1 697.8 196.2Z" fill="#113D63"></path>
    </g>
    </g>
    <g id="Machine_part_4">
    <path id="Vector_19" d="M663.6 463.5C641 483.1 606.9 480.6 587.3 458.1L498.5 355.7C478.9 333.1 481.4 299 503.9 279.4C526.5 259.8 560.6 262.3 580.2 284.8L669 387.2C688.6 409.8 686.2 443.9 663.6 463.5Z" fill="#809BBB" stroke="#7D8CA0" stroke-miterlimit="10"></path>
    <path id="Vector_20" d="M518.7 296.3C506.8 306.6 505.5 324.6 515.8 336.5C526.1 348.4 544.1 349.7 556 339.4C567.9 329.1 569.2 311.1 558.9 299.2C548.5 287.3 530.5 286 518.7 296.3ZM548.5 330.7C541.4 336.9 530.6 336.1 524.5 329C518.3 321.9 519.1 311.1 526.2 305C533.3 298.8 544.1 299.6 550.2 306.7C556.3 313.8 555.6 324.6 548.5 330.7Z" fill="#113D63"></path>
    </g>
    <g id="Machine_part_5">
    <g id="Group_11">
    <path id="Vector_21" d="M683.1 473.4H584.9V421.3C584.9 399.7 602.4 382.1 624.1 382.1H643.9C665.5 382.1 683.1 399.6 683.1 421.3V473.4Z" fill="#453B73"></path>
    <g id="Group_12">
    <path id="Vector_22" d="M619.9 413.7C610.6 421.8 609.6 435.9 617.7 445.2C625.8 454.5 639.9 455.5 649.2 447.4C658.5 439.3 659.5 425.2 651.4 415.9C643.3 406.6 629.2 405.6 619.9 413.7ZM643.3 440.6C637.7 445.4 629.3 444.8 624.5 439.3C619.7 433.7 620.3 425.3 625.8 420.5C631.4 415.7 639.8 416.3 644.6 421.8C649.5 427.4 648.9 435.8 643.3 440.6Z" fill="#4EC2C2"></path>
    </g>
    </g>
    </g>
    <g id="Box_machine_lower_part">
    <path id="Vector_23" d="M699.3 468.4H573.7V505.3H699.3V468.4Z" fill="#453B73"></path>
    <g id="Group_13">
    <path id="Vector_24" d="M742.7 519.9H519.5C519.4 520.9 519.3 522 519.3 523V630.1H742.9V523C742.9 522 742.8 520.9 742.7 519.9Z" fill="#809BBB" stroke="#7D8CA0" stroke-miterlimit="10"></path>
    <path id="Vector_25" d="M693.9 486.2H568.1C541.2 493.5 521.5 506.1 519.4 524H742.6C740.5 506.1 720.8 493.5 693.9 486.2Z" fill="#8CB2D3"></path>
    </g>
    <path id="Vector_26" d="M749.5 597.6H514.1V630.2H749.5V597.6Z" fill="#8CB2D3"></path>
    <g id="Group_14">
    <path id="Vector_27" d="M609.7 550.9C606.4 550.9 603.7 548.2 603.7 544.9C603.7 541.6 606.4 538.9 609.7 538.9C613 538.9 615.7 541.6 615.7 544.9C615.7 548.2 613 550.9 609.7 550.9Z" fill="#386995"></path>
    <path id="Vector_28" d="M630.1 550.9C626.8 550.9 624.1 548.2 624.1 544.9C624.1 541.6 626.8 538.9 630.1 538.9C633.4 538.9 636.1 541.6 636.1 544.9C636.1 548.2 633.4 550.9 630.1 550.9Z" fill="#386995"></path>
    <path id="Vector_29" d="M650.5 550.9C647.2 550.9 644.5 548.2 644.5 544.9C644.5 541.6 647.2 538.9 650.5 538.9C653.8 538.9 656.5 541.6 656.5 544.9C656.5 548.2 653.8 550.9 650.5 550.9Z" fill="#386995"></path>
    <path id="Vector_30" d="M670.9 550.9C667.6 550.9 664.9 548.2 664.9 544.9C664.9 541.6 667.6 538.9 670.9 538.9C674.2 538.9 676.9 541.6 676.9 544.9C676.9 548.2 674.2 550.9 670.9 550.9Z" fill="#386995"></path>
    </g>
    <path id="Vector_31" d="M580.4 592.4H544.3V559.3H580.4V592.4ZM544.9 591.8H579.8V559.8H544.9V591.8Z" fill="#8CB2D3"></path>
    <g id="Group_15">
    <g id="Group_16">
    <path id="Vector_32" d="M555.3 505.6C559 500.3 564.5 496.6 569.9 493.3H567.3C561.8 496.6 556.4 500.3 552.7 505.6H555.3Z" fill="#453B73"></path>
    <path id="Vector_33" d="M561.6 505.6C565.3 500.3 570.8 496.6 576.2 493.3H573.6C568.2 496.6 562.7 500.3 559 505.6H561.6Z" fill="#453B73"></path>
    <path id="Vector_34" d="M567.9 505.6C571.5 500.3 577 496.6 582.5 493.3H579.9C574.5 496.6 569 500.3 565.3 505.6H567.9Z" fill="#453B73"></path>
    <path id="Vector_35" d="M574.2 505.6C577.8 500.3 583.3 496.6 588.8 493.3H586.2C580.8 496.6 575.3 500.3 571.6 505.6H574.2Z" fill="#453B73"></path>
    <path id="Vector_36" d="M580.5 505.6C584.1 500.3 589.6 496.6 595.1 493.3H592.5C587.1 496.6 581.6 500.3 577.9 505.6H580.5Z" fill="#453B73"></path>
    <path id="Vector_37" d="M586.8 505.6C590.4 500.3 595.9 496.6 601.3 493.3H598.7C593.3 496.6 587.8 500.3 584.2 505.6H586.8Z" fill="#453B73"></path>
    <path id="Vector_38" d="M593.1 505.6C596.7 500.3 602.2 496.6 607.6 493.3H605C599.6 496.6 594.1 500.3 590.5 505.6H593.1Z" fill="#453B73"></path>
    </g>
    </g>
    </g>
    <g id="Box_4">
    <path id="Vector_39" d="M215.5 360.4H117.5V446.4H215.5V360.4Z" fill="#BA7B4F"></path>
    <path id="Vector_40" d="M245 360.4H147V446.4H245V360.4Z" fill="#EFA873"></path>
    <g id="Group_17">
    <path id="Vector_41" d="M198.4 360.4H187.8V377.8H198.4V360.4Z" fill="white"></path>
    </g>
    <g id="Group_18">
    <path id="Vector_42" d="M226.1 430.4H215.9V440.1H226.1V430.4Z" fill="#E68B43"></path>
    <path id="Vector_43" d="M240.3 430.4H230.1V440.1H240.3V430.4Z" fill="#E68B43"></path>
    <path id="Vector_44" d="M211.9 430.4H201.7V440.1H211.9V430.4Z" fill="#E68B43"></path>
    </g>
    </g>
    <path id="Vector_45" d="M1043.4 446.4H1042V451.5H1043.4V446.4Z" fill="#113D63"></path>
    <path id="Vector_46" d="M1043.4 507.4H1042.2V512.5H1043.4V507.4Z" fill="#241E3B"></path>
    <g id="Rolling_part">
    <path id="Vector_47" d="M729.6 507.4H723.2V512.5H729.6V507.4Z" fill="#241E3B"></path>
    <path id="Vector_48" d="M716.8 507.4H710.4V512.5H716.8V507.4Z" fill="#241E3B"></path>
    <path id="Vector_49" d="M742.2 446.4H735.8V451.5H742.2V446.4Z" fill="#113D63"></path>
    <path id="Vector_50" d="M742.3 507.4H735.9V512.5H742.3V507.4Z" fill="#241E3B"></path>
    <path id="Vector_51" d="M729.4 446.4H723V451.5H729.4V446.4Z" fill="#113D63"></path>
    <path id="Vector_52" d="M755.1 507.4H748.7V512.5H755.1V507.4Z" fill="#241E3B"></path>
    <path id="Vector_53" d="M767.8 507.4H761.4V512.5H767.8V507.4Z" fill="#241E3B"></path>
    <path id="Vector_54" d="M754.9 446.4H748.5V451.5H754.9V446.4Z" fill="#113D63"></path>
    <path id="Vector_55" d="M780.4 446.4H774V451.5H780.4V446.4Z" fill="#113D63"></path>
    <path id="Vector_56" d="M767.7 446.4H761.3V451.5H767.7V446.4Z" fill="#113D63"></path>
    <path id="Vector_57" d="M716.6 446.4H710.2V451.5H716.6V446.4Z" fill="#113D63"></path>
    <path id="Vector_58" d="M665.8 507.4H659.4V512.5H665.8V507.4Z" fill="#241E3B"></path>
    <path id="Vector_59" d="M780.6 507.4H774.2V512.5H780.6V507.4Z" fill="#241E3B"></path>
    <path id="Vector_60" d="M653 507.4H646.6V512.5H653V507.4Z" fill="#241E3B"></path>
    <path id="Vector_61" d="M665.6 446.4H659.2V451.5H665.6V446.4Z" fill="#113D63"></path>
    <path id="Vector_62" d="M704.1 507.4H697.7V512.5H704.1V507.4Z" fill="#241E3B"></path>
    <path id="Vector_63" d="M652.8 446.4H646.4V451.5H652.8V446.4Z" fill="#113D63"></path>
    <path id="Vector_64" d="M640.3 507.4H633.9V512.5H640.3V507.4Z" fill="#241E3B"></path>
    <path id="Vector_65" d="M703.9 446.4H697.5V451.5H703.9V446.4Z" fill="#113D63"></path>
    <path id="Vector_66" d="M933.7 507.4H927.3V512.5H933.7V507.4Z" fill="#241E3B"></path>
    <path id="Vector_67" d="M691.3 507.4H684.9V512.5H691.3V507.4Z" fill="#241E3B"></path>
    <path id="Vector_68" d="M691.1 446.4H684.7V451.5H691.1V446.4Z" fill="#113D63"></path>
    <path id="Vector_69" d="M678.5 507.4H672.1V512.5H678.5V507.4Z" fill="#241E3B"></path>
    <path id="Vector_70" d="M844.2 446.4H837.8V451.5H844.2V446.4Z" fill="#113D63"></path>
    <path id="Vector_71" d="M869.7 446.4H863.3V451.5H869.7V446.4Z" fill="#113D63"></path>
    <path id="Vector_72" d="M895.4 507.4H889V512.5H895.4V507.4Z" fill="#241E3B"></path>
    <path id="Vector_73" d="M882.7 507.4H876.3V512.5H882.7V507.4Z" fill="#241E3B"></path>
    <path id="Vector_74" d="M882.5 446.4H876.1V451.5H882.5V446.4Z" fill="#113D63"></path>
    <path id="Vector_75" d="M869.9 507.4H863.5V512.5H869.9V507.4Z" fill="#241E3B"></path>
    <path id="Vector_76" d="M895.3 446.4H888.9V451.5H895.3V446.4Z" fill="#113D63"></path>
    <path id="Vector_77" d="M921 507.4H914.6V512.5H921V507.4Z" fill="#241E3B"></path>
    <path id="Vector_78" d="M908 446.4H901.6V451.5H908V446.4Z" fill="#113D63"></path>
    <path id="Vector_79" d="M933.5 446.4H927.1V451.5H933.5V446.4Z" fill="#113D63"></path>
    <path id="Vector_80" d="M908.2 507.4H901.8V512.5H908.2V507.4Z" fill="#241E3B"></path>
    <path id="Vector_81" d="M920.8 446.4H914.4V451.5H920.8V446.4Z" fill="#113D63"></path>
    <path id="Vector_82" d="M857 446.4H850.6V451.5H857V446.4Z" fill="#113D63"></path>
    <path id="Vector_83" d="M818.7 446.4H812.3V451.5H818.7V446.4Z" fill="#113D63"></path>
    <path id="Vector_84" d="M806.1 507.4H799.7V512.5H806.1V507.4Z" fill="#241E3B"></path>
    <path id="Vector_85" d="M793.4 507.4H787V512.5H793.4V507.4Z" fill="#241E3B"></path>
    <path id="Vector_86" d="M805.9 446.4H799.5V451.5H805.9V446.4Z" fill="#113D63"></path>
    <path id="Vector_87" d="M818.9 507.4H812.5V512.5H818.9V507.4Z" fill="#241E3B"></path>
    <path id="Vector_88" d="M793.2 446.4H786.8V451.5H793.2V446.4Z" fill="#113D63"></path>
    <path id="Vector_89" d="M857.2 507.4H850.8V512.5H857.2V507.4Z" fill="#241E3B"></path>
    <path id="Vector_90" d="M844.4 507.4H838V512.5H844.4V507.4Z" fill="#241E3B"></path>
    <path id="Vector_91" d="M640.1 446.4H633.7V451.5H640.1V446.4Z" fill="#113D63"></path>
    <path id="Vector_92" d="M831.6 507.4H825.2V512.5H831.6V507.4Z" fill="#241E3B"></path>
    <path id="Vector_93" d="M831.5 446.4H825.1V451.5H831.5V446.4Z" fill="#113D63"></path>
    <path id="Vector_94" d="M678.4 446.4H672V451.5H678.4V446.4Z" fill="#113D63"></path>
    <path id="Vector_95" d="M423.3 507.4H416.9V512.5H423.3V507.4Z" fill="#241E3B"></path>
    <path id="Vector_96" d="M435.9 446.4H429.5V451.5H435.9V446.4Z" fill="#113D63"></path>
    <path id="Vector_97" d="M397.8 507.4H391.4V512.5H397.8V507.4Z" fill="#241E3B"></path>
    <path id="Vector_98" d="M410.6 507.4H404.2V512.5H410.6V507.4Z" fill="#241E3B"></path>
    <path id="Vector_99" d="M436.1 507.4H429.7V512.5H436.1V507.4Z" fill="#241E3B"></path>
    <path id="Vector_100" d="M410.4 446.4H404V451.5H410.4V446.4Z" fill="#113D63"></path>
    <path id="Vector_101" d="M423.2 446.4H416.8V451.5H423.2V446.4Z" fill="#113D63"></path>
    <path id="Vector_102" d="M461.6 507.4H455.2V512.5H461.6V507.4Z" fill="#241E3B"></path>
    <path id="Vector_103" d="M448.7 446.4H442.3V451.5H448.7V446.4Z" fill="#113D63"></path>
    <path id="Vector_104" d="M474.2 446.4H467.8V451.5H474.2V446.4Z" fill="#113D63"></path>
    <path id="Vector_105" d="M461.4 446.4H455V451.5H461.4V446.4Z" fill="#113D63"></path>
    <path id="Vector_106" d="M448.9 507.4H442.5V512.5H448.9V507.4Z" fill="#241E3B"></path>
    <path id="Vector_107" d="M385.1 507.4H378.7V512.5H385.1V507.4Z" fill="#241E3B"></path>
    <path id="Vector_108" d="M627.5 507.4H621.1V512.5H627.5V507.4Z" fill="#241E3B"></path>
    <path id="Vector_109" d="M344.4 482.4L339.3 482.9C339.5 485.2 340 487.5 340.7 489.7L345.6 488.1C345.1 486.3 344.6 484.4 344.4 482.4Z" fill="#241E3B"></path>
    <path id="Vector_110" d="M360.8 454L358.7 449.3C356.6 450.2 354.6 451.4 352.7 452.8L355.7 456.9C357.3 455.8 359 454.8 360.8 454Z" fill="#241E3B"></path>
    <path id="Vector_111" d="M351.4 460.8L347.6 457.4C346.1 459.1 344.7 461 343.6 463L348 465.6C349 463.9 350.1 462.3 351.4 460.8Z" fill="#241E3B"></path>
    <path id="Vector_112" d="M345.6 470.9L340.7 469.3C340 471.5 339.5 473.8 339.3 476.1L344.4 476.6C344.6 474.6 345 472.7 345.6 470.9Z" fill="#241E3B"></path>
    <path id="Vector_113" d="M352.8 506.2C354.7 507.6 356.7 508.7 358.8 509.7L360.9 505C359.1 504.2 357.4 503.2 355.9 502.1L352.8 506.2Z" fill="#241E3B"></path>
    <path id="Vector_114" d="M397.7 446.4H391.3V451.5H397.7V446.4Z" fill="#113D63"></path>
    <path id="Vector_115" d="M384.9 446.4H378.5V451.5H384.9V446.4Z" fill="#113D63"></path>
    <path id="Vector_116" d="M474.4 507.4H468V512.5H474.4V507.4Z" fill="#241E3B"></path>
    <path id="Vector_117" d="M372.1 451.5V446.4C369.8 446.4 367.5 446.7 365.2 447.1L366.3 452.1C368.2 451.7 370.2 451.5 372.1 451.5Z" fill="#113D63"></path>
    <path id="Vector_118" d="M366.4 506.8L365.3 511.8C367.5 512.3 369.9 512.5 372.2 512.5H372.3V507.4H372.2C370.3 507.4 368.3 507.2 366.4 506.8Z" fill="#241E3B"></path>
    <path id="Vector_119" d="M343.6 496C344.8 498 346.1 499.9 347.7 501.6L351.5 498.2C350.2 496.8 349 495.2 348.1 493.5L343.6 496Z" fill="#241E3B"></path>
    <path id="Vector_120" d="M576.5 507.4H570.1V512.5H576.5V507.4Z" fill="#241E3B"></path>
    <path id="Vector_121" d="M589 446.4H582.6V451.5H589V446.4Z" fill="#113D63"></path>
    <path id="Vector_122" d="M563.5 446.4H557.1V451.5H563.5V446.4Z" fill="#113D63"></path>
    <path id="Vector_123" d="M563.7 507.4H557.3V512.5H563.7V507.4Z" fill="#241E3B"></path>
    <path id="Vector_124" d="M589.2 507.4H582.8V512.5H589.2V507.4Z" fill="#241E3B"></path>
    <path id="Vector_125" d="M576.3 446.4H569.9V451.5H576.3V446.4Z" fill="#113D63"></path>
    <path id="Vector_126" d="M627.3 446.4H620.9V451.5H627.3V446.4Z" fill="#113D63"></path>
    <path id="Vector_127" d="M614.7 507.4H608.3V512.5H614.7V507.4Z" fill="#241E3B"></path>
    <path id="Vector_128" d="M614.6 446.4H608.2V451.5H614.6V446.4Z" fill="#113D63"></path>
    <path id="Vector_129" d="M601.8 446.4H595.4V451.5H601.8V446.4Z" fill="#113D63"></path>
    <path id="Vector_130" d="M602 507.4H595.6V512.5H602V507.4Z" fill="#241E3B"></path>
    <path id="Vector_131" d="M538.2 507.4H531.8V512.5H538.2V507.4Z" fill="#241E3B"></path>
    <path id="Vector_132" d="M512.7 507.4H506.3V512.5H512.7V507.4Z" fill="#241E3B"></path>
    <path id="Vector_133" d="M512.5 446.4H506.1V451.5H512.5V446.4Z" fill="#113D63"></path>
    <path id="Vector_134" d="M499.9 507.4H493.5V512.5H499.9V507.4Z" fill="#241E3B"></path>
    <path id="Vector_135" d="M487.1 507.4H480.7V512.5H487.1V507.4Z" fill="#241E3B"></path>
    <path id="Vector_136" d="M499.7 446.4H493.3V451.5H499.7V446.4Z" fill="#113D63"></path>
    <path id="Vector_137" d="M550.8 446.4H544.4V451.5H550.8V446.4Z" fill="#113D63"></path>
    <path id="Vector_138" d="M525.2 446.4H518.8V451.5H525.2V446.4Z" fill="#113D63"></path>
    <path id="Vector_139" d="M550.9 507.4H544.5V512.5H550.9V507.4Z" fill="#241E3B"></path>
    <path id="Vector_140" d="M487 446.4H480.6V451.5H487V446.4Z" fill="#113D63"></path>
    <path id="Vector_141" d="M525.4 507.4H519V512.5H525.4V507.4Z" fill="#241E3B"></path>
    <path id="Vector_142" d="M538 446.4H531.6V451.5H538V446.4Z" fill="#113D63"></path>
    <path id="Vector_143" d="M971.8 446.4H965.4V451.5H971.8V446.4Z" fill="#113D63"></path>
    <path id="Vector_144" d="M1022.9 446.4H1016.5V451.5H1022.9V446.4Z" fill="#113D63"></path>
    <path id="Vector_145" d="M1035.6 446.4H1029.2V451.5H1035.6V446.4Z" fill="#113D63"></path>
    <path id="Vector_146" d="M1023 507.4H1016.6V512.5H1023V507.4Z" fill="#241E3B"></path>
    <path id="Vector_147" d="M946.3 446.4H939.9V451.5H946.3V446.4Z" fill="#113D63"></path>
    <path id="Vector_148" d="M972 507.4H965.6V512.5H972V507.4Z" fill="#241E3B"></path>
    <path id="Vector_149" d="M959.2 507.4H952.8V512.5H959.2V507.4Z" fill="#241E3B"></path>
    <path id="Vector_150" d="M959.1 446.4H952.7V451.5H959.1V446.4Z" fill="#113D63"></path>
    <path id="Vector_151" d="M946.5 507.4H940.1V512.5H946.5V507.4Z" fill="#241E3B"></path>
    <path id="Vector_152" d="M997.5 507.4H991.1V512.5H997.5V507.4Z" fill="#241E3B"></path>
    <path id="Vector_153" d="M1010.3 507.4H1003.9V512.5H1010.3V507.4Z" fill="#241E3B"></path>
    <path id="Vector_154" d="M1010.1 446.4H1003.7V451.5H1010.1V446.4Z" fill="#113D63"></path>
    <path id="Vector_155" d="M984.6 446.4H978.2V451.5H984.6V446.4Z" fill="#113D63"></path>
    <path id="Vector_156" d="M984.8 507.4H978.4V512.5H984.8V507.4Z" fill="#241E3B"></path>
    <path id="Vector_157" d="M997.3 446.4H990.9V451.5H997.3V446.4Z" fill="#113D63"></path>
    <path id="Vector_158" d="M1035.8 507.4H1029.4V512.5H1035.8V507.4Z" fill="#241E3B"></path>
    </g>
    <path id="Vector_159" d="M1043.4 505.8H372.2C357.7 505.8 345.9 494 345.9 479.5C345.9 465 357.7 453.2 372.2 453.2H1043.3V448H372.2C354.9 448 340.8 462.1 340.8 479.4C340.8 496.7 354.9 510.8 372.2 510.8H1043.3V505.8H1043.4Z" fill="#241E3B"></path>
    <path id="Vector_160" d="M1037 507.8H365.8C351.3 507.8 339.5 496 339.5 481.5C339.5 467 351.3 455.2 365.8 455.2H1037V450H365.8C348.5 450 334.4 464.1 334.4 481.4C334.4 498.7 348.5 512.8 365.8 512.8H1037V507.8Z" fill="#386995"></path>
    <g id="rolling_lower_part_back">
    <path id="Vector_161" d="M198.3 507.4H191.9V512.5H198.3V507.4Z" fill="#113D63"></path>
    <path id="Vector_162" d="M160 507.4H153.6V512.5H160V507.4Z" fill="#113D63"></path>
    <path id="Vector_163" d="M147.2 507.4H140.8V512.5H147.2V507.4Z" fill="#113D63"></path>
    <path id="Vector_164" d="M134.5 507.4H128.1V512.5H134.5V507.4Z" fill="#113D63"></path>
    <path id="Vector_165" d="M185.5 507.4H179.1V512.5H185.5V507.4Z" fill="#113D63"></path>
    <path id="Vector_166" d="M172.7 507.4H166.3V512.5H172.7V507.4Z" fill="#113D63"></path>
    <path id="Vector_167" d="M70.7 507.4H64.3V512.5H70.7V507.4Z" fill="#113D63"></path>
    <path id="Vector_168" d="M57.8 507.4H51.9V512.5H57.8V507.4Z" fill="#113D63"></path>
    <path id="Vector_169" d="M83.4 507.4H77V512.5H83.4V507.4Z" fill="#113D63"></path>
    <path id="Vector_170" d="M121.7 507.4H115.3V512.5H121.7V507.4Z" fill="#113D63"></path>
    <path id="Vector_171" d="M108.9 507.4H102.5V512.5H108.9V507.4Z" fill="#113D63"></path>
    <path id="Vector_172" d="M96.2 507.4H89.8V512.5H96.2V507.4Z" fill="#113D63"></path>
    <path id="Vector_173" d="M307.9 507.4H306.7V512.5H307.9V507.4Z" fill="#113D63"></path>
    <path id="Vector_174" d="M287.6 507.4H281.2V512.5H287.6V507.4Z" fill="#113D63"></path>
    <path id="Vector_175" d="M236.5 507.4H230.1V512.5H236.5V507.4Z" fill="#113D63"></path>
    <path id="Vector_176" d="M223.8 507.4H217.4V512.5H223.8V507.4Z" fill="#113D63"></path>
    <path id="Vector_177" d="M211 507.4H204.6V512.5H211V507.4Z" fill="#113D63"></path>
    <path id="Vector_178" d="M274.8 507.4H268.4V512.5H274.8V507.4Z" fill="#113D63"></path>
    <path id="Vector_179" d="M249.3 507.4H242.9V512.5H249.3V507.4Z" fill="#113D63"></path>
    <path id="Vector_180" d="M300.3 507.4H293.9V512.5H300.3V507.4Z" fill="#113D63"></path>
    <path id="Vector_181" d="M262 507.4H255.6V512.5H262V507.4Z" fill="#113D63"></path>
    </g>
    <g id="rolling_uppr_part_back">
    <path id="Vector_182" d="M108.8 446.4H102.4V451.5H108.8V446.4Z" fill="#113D63"></path>
    <path id="Vector_183" d="M198.1 446.4H191.7V451.5H198.1V446.4Z" fill="#113D63"></path>
    <path id="Vector_184" d="M172.6 446.4H166.2V451.5H172.6V446.4Z" fill="#113D63"></path>
    <path id="Vector_185" d="M159.8 446.4H153.4V451.5H159.8V446.4Z" fill="#113D63"></path>
    <path id="Vector_186" d="M134.3 446.4H127.9V451.5H134.3V446.4Z" fill="#113D63"></path>
    <path id="Vector_187" d="M147 446.4H140.6V451.5H147V446.4Z" fill="#113D63"></path>
    <path id="Vector_188" d="M121.5 446.4H115.1V451.5H121.5V446.4Z" fill="#113D63"></path>
    <path id="Vector_189" d="M83.2 446.4H76.8V451.5H83.2V446.4Z" fill="#113D63"></path>
    <path id="Vector_190" d="M70.5 446.4H64.1V451.5H70.5V446.4Z" fill="#113D63"></path>
    <path id="Vector_191" d="M57.7 446.4H51.9V451.5H57.7V446.4Z" fill="#113D63"></path>
    <path id="Vector_192" d="M96 446.4H89.6V451.5H96V446.4Z" fill="#113D63"></path>
    <path id="Vector_193" d="M185.3 446.4H178.9V451.5H185.3V446.4Z" fill="#113D63"></path>
    <path id="Vector_194" d="M287.4 446.4H281V451.5H287.4V446.4Z" fill="#113D63"></path>
    <path id="Vector_195" d="M307.9 446.4H306.5V451.5H307.9V446.4Z" fill="#113D63"></path>
    <path id="Vector_196" d="M300.1 446.4H293.7V451.5H300.1V446.4Z" fill="#113D63"></path>
    <path id="Vector_197" d="M236.4 446.4H230V451.5H236.4V446.4Z" fill="#113D63"></path>
    <path id="Vector_198" d="M210.8 446.4H204.4V451.5H210.8V446.4Z" fill="#113D63"></path>
    <path id="Vector_199" d="M223.6 446.4H217.2V451.5H223.6V446.4Z" fill="#113D63"></path>
    <path id="Vector_200" d="M274.6 446.4H268.2V451.5H274.6V446.4Z" fill="#113D63"></path>
    <path id="Vector_201" d="M249.1 446.4H242.7V451.5H249.1V446.4Z" fill="#113D63"></path>
    <path id="Vector_202" d="M261.9 446.4H255.5V451.5H261.9V446.4Z" fill="#113D63"></path>
    </g>
    <path id="Vector_203" d="M307.9 505.8H51.9V510.9H307.9V505.8Z" fill="#113D63"></path>
    <path id="Vector_204" d="M307.9 448H51.9V453.1H307.9V448Z" fill="#113D63"></path>
    <g id="Rolling_mid_back_part">
    <path id="Vector_205" d="M307.9 450.6H51.9V508.4H307.9V450.6Z" fill="#437FAA"></path>
    <path id="Vector_206" d="M301.5 448H51.9V453.1H301.5V448Z" fill="#386995"></path>
    <g id="Group_19">
    <path id="Vector_207" d="M98.1 467.5C91.8 472.9 91.2 482.4 96.6 488.7C102 495 111.5 495.6 117.8 490.2C124.1 484.8 124.7 475.3 119.3 469C113.8 462.8 104.4 462.1 98.1 467.5ZM113.8 485.7C110.1 488.9 104.4 488.5 101.1 484.8C97.9 481.1 98.3 475.4 102 472.1C105.7 468.9 111.4 469.3 114.7 473C117.9 476.7 117.5 482.4 113.8 485.7Z" fill="#1E497E"></path>
    </g>
    <path id="Vector_208" d="M307.9 506.5H51.9V519.1H307.9V506.5Z" fill="#386995"></path>
    <path id="Vector_209" d="M155.2 446.3V519.2H129.4L147 446.4L155.2 446.3Z" fill="#386995"></path>
    </g>
    <g id="Rolling_mid_part">
    <path id="Vector_210" d="M1043.4 450.6H372.2C356.2 450.6 343.3 463.5 343.3 479.5C343.3 495.5 356.2 508.4 372.2 508.4H1043.3V450.6H1043.4Z" fill="#437FAA"></path>
    <g id="Group_20">
    <path id="Vector_211" d="M520.5 467.5C514.2 472.9 513.6 482.4 519 488.7C524.4 495 533.9 495.6 540.2 490.2C546.5 484.8 547.1 475.3 541.7 469C536.3 462.8 526.8 462.1 520.5 467.5ZM536.3 485.7C532.6 488.9 526.9 488.5 523.6 484.8C520.4 481.1 520.8 475.4 524.5 472.1C528.2 468.9 533.9 469.3 537.2 473C540.4 476.7 540 482.4 536.3 485.7Z" fill="#1E497E"></path>
    </g>
    <g id="Group_21">
    <path id="Vector_212" d="M677.1 467.5C670.8 472.9 670.2 482.4 675.6 488.7C681 495 690.5 495.6 696.8 490.2C703.1 484.8 703.7 475.3 698.3 469C692.8 462.8 683.3 462.1 677.1 467.5ZM692.8 485.7C689.1 488.9 683.4 488.5 680.1 484.8C676.8 481.1 677.3 475.4 681 472.1C684.7 468.9 690.4 469.3 693.7 473C696.9 476.7 696.5 482.4 692.8 485.7Z" fill="#1E497E"></path>
    </g>
    <g id="Group_22">
    <path id="Vector_213" d="M833.6 467.5C827.3 472.9 826.7 482.4 832.1 488.7C837.5 495 847 495.6 853.3 490.2C859.6 484.8 860.2 475.3 854.8 469C849.3 462.8 839.8 462.1 833.6 467.5ZM849.3 485.7C845.6 488.9 839.9 488.5 836.6 484.8C833.3 481.1 833.8 475.4 837.5 472.1C841.2 468.9 846.9 469.3 850.2 473C853.4 476.7 853 482.4 849.3 485.7Z" fill="#1E497E"></path>
    </g>
    <g id="Group_23">
    <path id="Vector_214" d="M990.1 467.5C983.8 472.9 983.2 482.4 988.6 488.7C994 495 1003.5 495.6 1009.8 490.2C1016.1 484.8 1016.7 475.3 1011.3 469C1005.8 462.8 996.3 462.1 990.1 467.5ZM1005.8 485.7C1002.1 488.9 996.4 488.5 993.1 484.8C989.8 481.1 990.3 475.4 994 472.1C997.7 468.9 1003.4 469.3 1006.7 473C1009.9 476.7 1009.5 482.4 1005.8 485.7Z" fill="#1E497E"></path>
    </g>
    <path id="Vector_215" d="M1043.4 506.5H308.3C304.8 506.5 302 509.3 302 512.8C302 516.3 304.8 519.1 308.3 519.1H1043.4V506.5Z" fill="#386995"></path>
    <g id="Group_24">
    <path id="Vector_216" d="M364 467.5C357.7 472.9 357.1 482.4 362.5 488.7C367.9 495 377.4 495.6 383.7 490.2C390 484.8 390.6 475.3 385.2 469C379.8 462.8 370.3 462.1 364 467.5ZM379.7 485.7C376 488.9 370.3 488.5 367 484.8C363.8 481.1 364.2 475.4 367.9 472.1C371.6 468.9 377.3 469.3 380.6 473C383.9 476.7 383.5 482.4 379.7 485.7Z" fill="#1E497E"></path>
    </g>
    </g>
    <g id="Roation_machine">
    <path id="Vector_217" d="M461.8 299.4H321.5V640.2H461.8V299.4Z" fill="#80BFE3" stroke="#6FB8D8" stroke-width="3" stroke-miterlimit="10"></path>
    <path id="Vector_218" d="M433.4 299.4H321.5V640.2H433.4V299.4Z" fill="#245488" fill-opacity="0.26"></path>
    <g id="Group 4">
    <g id="Group 3">
    <g id="Group 2">
    <path id="Vector_219" d="M406.2 203.669H171.5V221.269H406.2V203.669Z" fill="#80BFE3"></path>
    <path id="Vector_220" d="M218.195 210.789C222.022 206.962 222.022 200.757 218.195 196.93C214.368 193.102 208.163 193.102 204.336 196.93C200.509 200.757 200.509 206.962 204.336 210.789C208.163 214.616 214.368 214.616 218.195 210.789Z" fill="#80BFE3"></path>
    </g>
    <path id="Vector_221" d="M425.4 639.969V227.769C425.4 221.169 420.1 215.869 413.5 215.869H166.9C160.3 215.869 155 221.169 155 227.769V639.969H425.4Z" fill="#84D3EF"></path>
    </g>
    <g id="Group_25">
    <path id="Vector_222" d="M183.7 539.6H174.4V613.2H183.7V539.6Z" fill="#1E497E" fill-opacity="0.26"></path>
    <path id="Vector_223" d="M201.7 539.6H192.4V613.2H201.7V539.6Z" fill="#1E497E" fill-opacity="0.26"></path>
    <path id="Vector_224" d="M219.7 539.6H210.4V613.2H219.7V539.6Z" fill="#1E497E" fill-opacity="0.26"></path>
    <path id="Vector_225" d="M237.8 539.6H228.5V613.2H237.8V539.6Z" fill="#1E497E" fill-opacity="0.26"></path>
    <path id="Vector_226" d="M255.8 539.6H246.5V613.2H255.8V539.6Z" fill="#1E497E" fill-opacity="0.26"></path>
    <path id="Vector_227" d="M273.8 539.6H264.5V613.2H273.8V539.6Z" fill="#1E497E" fill-opacity="0.26"></path>
    <path id="Vector_228" d="M291.9 539.6H282.6V613.2H291.9V539.6Z" fill="#1E497E" fill-opacity="0.26"></path>
    </g>
    </g>
    </g>
    <g id="Rolling_machine_mid_part">
    <path id="Vector_229" opacity="0.41" d="M408.3 235.6H172.6V486.5H408.3V235.6Z" fill="#0F6CA8"></path>
    <path id="Vector_230" d="M376.2 268.3H202.5V333.6H376.2V268.3Z" fill="#1E497E" fill-opacity="0.26"></path>
    <g id="Group_26">
    <g id="Group_27">
    <path id="Vector_231" d="M270.6 314.7H256.6V323.9H270.6V314.7Z" fill="#76BCE3"></path>
    <path id="Vector_232" d="M270.6 303.8H256.6V313H270.6V303.8Z" fill="#76BCE3"></path>
    <path id="Vector_233" d="M270.6 293H256.6V302.2H270.6V293Z" fill="#76BCE3"></path>
    <path id="Vector_234" d="M270.6 282.1H256.6V291.3H270.6V282.1Z" fill="#76BCE3"></path>
    </g>
    <g id="Group_28">
    <path id="Vector_235" d="M286.9 314.7H272.9V323.9H286.9V314.7Z" fill="#76BCE3"></path>
    <path id="Vector_236" d="M286.9 303.8H272.9V313H286.9V303.8Z" fill="#76BCE3"></path>
    <path id="Vector_237" d="M286.9 293H272.9V302.2H286.9V293Z" fill="#76BCE3"></path>
    </g>
    <g id="Group_29">
    <path id="Vector_238" d="M336.1 314.7H322.1V323.9H336.1V314.7Z" fill="#76BCE3"></path>
    <path id="Vector_239" d="M336.1 303.8H322.1V313H336.1V303.8Z" fill="#76BCE3"></path>
    <path id="Vector_240" d="M336.1 293H322.1V302.2H336.1V293Z" fill="#76BCE3"></path>
    </g>
    <g id="Group_30">
    <path id="Vector_241" d="M303.4 314.7H289.4V323.9H303.4V314.7Z" fill="#76BCE3"></path>
    <path id="Vector_242" d="M303.4 303.8H289.4V313H303.4V303.8Z" fill="#76BCE3"></path>
    <path id="Vector_243" d="M303.4 293H289.4V302.2H303.4V293Z" fill="#76BCE3"></path>
    <path id="Vector_244" d="M303.4 282.1H289.4V291.3H303.4V282.1Z" fill="#76BCE3"></path>
    </g>
    <g id="Group_31">
    <path id="Vector_245" d="M319.6 314.7H305.6V323.9H319.6V314.7Z" fill="#76BCE3"></path>
    <path id="Vector_246" d="M237.9 314.7H223.9V323.9H237.9V314.7Z" fill="#76BCE3"></path>
    <path id="Vector_247" d="M319.6 303.8H305.6V313H319.6V303.8Z" fill="#76BCE3"></path>
    </g>
    <g id="Group_32">
    <path id="Vector_248" d="M254.4 314.7H240.4V323.9H254.4V314.7Z" fill="#76BCE3"></path>
    <path id="Vector_249" d="M254.4 303.8H240.4V313H254.4V303.8Z" fill="#76BCE3"></path>
    </g>
    <g id="Group_33">
    <path id="Vector_250" d="M352.1 314.7H338.1V323.9H352.1V314.7Z" fill="#76BCE3"></path>
    <path id="Vector_251" d="M352.1 303.8H338.1V313H352.1V303.8Z" fill="#76BCE3"></path>
    </g>
    </g>
    <path id="Vector_252" d="M241.1 444.3H225.3V460.1H241.1V444.3Z" fill="#1E497E" fill-opacity="0.26"></path>
    <path id="Vector_253" d="M265 444.3H249.2V460.1H265V444.3Z" fill="#1E497E" fill-opacity="0.26"></path>
    <path id="Vector_254" d="M288.9 444.3H273.1V460.1H288.9V444.3Z" fill="#1E497E" fill-opacity="0.26"></path>
    <path id="Vector_255" d="M312.8 444.3H297V460.1H312.8V444.3Z" fill="#1E497E" fill-opacity="0.26"></path>
    <path id="Vector_256" d="M336.7 444.3H320.9V460.1H336.7V444.3Z" fill="#1E497E" fill-opacity="0.26"></path>
    <path id="Vector_257" d="M360.6 444.3H344.8V460.1H360.6V444.3Z" fill="#1E497E" fill-opacity="0.26"></path>
    </g>
    <g id="Rotation_circle_left">
    <path id="Vector_258" d="M249.3 419.3C265.427 419.3 278.5 406.227 278.5 390.1C278.5 373.973 265.427 360.9 249.3 360.9C233.173 360.9 220.1 373.973 220.1 390.1C220.1 406.227 233.173 419.3 249.3 419.3Z" fill="#245488" fill-opacity="0.26"></path>
    <g id="Group_34" opacity="0.3">
    <g id="Group_35">
    <path id="Vector_259" d="M229.3 373.1L239.2 382.5C237.5 384.6 236.5 387.4 236.4 390.3H222.8C222.8 383.6 225.3 377.7 229.3 373.1Z" fill="#1E497E"></path>
    <path id="Vector_260" d="M231.5 370.8C236.1 366.7 242.1 364.1 248.7 364L248.5 377.6C245.9 377.8 243.4 378.7 241.5 380.2L231.5 370.8Z" fill="#1E497E"></path>
    <path id="Vector_261" d="M267.4 371.1L257.6 380.6C255.9 379.2 253.9 378.2 251.7 377.7L251.9 364C257.9 364.7 263.2 367.2 267.4 371.1Z" fill="#1E497E"></path>
    <path id="Vector_262" d="M275.8 390.2H262.2C262.2 387.5 261.3 385 259.8 383L269.6 373.5C273.4 378 275.7 383.8 275.8 390.2Z" fill="#1E497E"></path>
    </g>
    </g>
    </g>
    <g id="Rotate_point_left">
    <path id="Vector_263" d="M241.1 369.3L251.8 387.8L246.8 389.9L241.1 369.3Z" fill="#3B6593"></path>
    <path id="Vector_264" d="M253.4 387.4C254.3 389.6 253.3 392.1 251.1 393C248.9 393.9 246.4 392.9 245.5 390.7C244.6 388.5 245.6 386 247.8 385.1C250 384.2 252.4 385.2 253.4 387.4Z" fill="#3B6593"></path>
    </g>
    <g id="Rotation_circle_right">
    <path id="Vector_265" d="M331.3 419.3C347.427 419.3 360.5 406.227 360.5 390.1C360.5 373.973 347.427 360.9 331.3 360.9C315.173 360.9 302.1 373.973 302.1 390.1C302.1 406.227 315.173 419.3 331.3 419.3Z" fill="#245488" fill-opacity="0.26"></path>
    <g id="Group_36">
    <path id="Vector_266" d="M311.3 373.1L321.2 382.5C319.5 384.6 318.5 387.4 318.4 390.3H304.8C304.8 383.6 307.3 377.7 311.3 373.1Z" fill="#1E497E" fill-opacity="0.26"></path>
    <path id="Vector_267" d="M313.5 370.8C318.1 366.7 324.1 364.1 330.7 364L330.5 377.6C327.9 377.8 325.4 378.7 323.5 380.2L313.5 370.8Z" fill="#1E497E" fill-opacity="0.26"></path>
    <path id="Vector_268" d="M349.4 371.1L339.6 380.6C337.9 379.2 335.9 378.2 333.7 377.7L333.9 364C339.9 364.7 345.3 367.2 349.4 371.1Z" fill="#1E497E" fill-opacity="0.26"></path>
    <path id="Vector_269" d="M357.8 390.2H344.2C344.2 387.5 343.3 385 341.8 383L351.6 373.5C355.4 378 357.7 383.8 357.8 390.2Z" fill="#1E497E" fill-opacity="0.26"></path>
    </g>
    </g>
    <g id="rotation_point_right">
    <path id="Vector_270" d="M352.1 383.5L332.3 391.7L330.9 386.4L352.1 383.5Z" fill="#3B6593"></path>
    <path id="Vector_271" d="M332.5 393.2C330.2 393.8 327.8 392.5 327.2 390.2C326.6 387.9 327.9 385.5 330.2 384.9C332.5 384.3 334.9 385.6 335.5 387.9C336.1 390.2 334.8 392.6 332.5 393.2Z" fill="#3B6593"></path>
    </g>
    <g id="Box_3">
    <path id="Vector_272" d="M658.3 360.4H560.3V446.4H658.3V360.4Z" fill="#BA7B4F"></path>
    <path id="Vector_273" d="M687.9 360.4H589.9V446.4H687.9V360.4Z" fill="#EFA873"></path>
    <g id="Group_37">
    <path id="Vector_274" d="M641.3 360.4H630.7V377.8H641.3V360.4Z" fill="white"></path>
    </g>
    <g id="Group_38">
    <path id="Vector_275" d="M669 430.4H658.8V440.1H669V430.4Z" fill="#E68B43"></path>
    <path id="Vector_276" d="M683.2 430.4H673V440.1H683.2V430.4Z" fill="#E68B43"></path>
    <path id="Vector_277" d="M654.8 430.4H644.6V440.1H654.8V430.4Z" fill="#E68B43"></path>
    </g>
    </g>
    <g id="Box_2">
    <path id="Vector_278" d="M835.3 360.4H737.3V446.4H835.3V360.4Z" fill="#BA7B4F"></path>
    <path id="Vector_279" d="M864.9 360.4H766.9V446.4H864.9V360.4Z" fill="#EFA873"></path>
    <g id="Group_39">
    <path id="Vector_280" d="M818.3 360.4H807.7V377.8H818.3V360.4Z" fill="white"></path>
    </g>
    <g id="Group_40">
    <path id="Vector_281" d="M846 430.4H835.8V440.1H846V430.4Z" fill="#E68B43"></path>
    <path id="Vector_282" d="M860.1 430.4H849.9V440.1H860.1V430.4Z" fill="#E68B43"></path>
    <path id="Vector_283" d="M831.8 430.4H821.6V440.1H831.8V430.4Z" fill="#E68B43"></path>
    </g>
    </g>
    <g id="Right_down_icon">
    <path id="Vector_284" d="M940.554 319.989C951.801 308.742 951.801 290.507 940.554 279.26C929.307 268.013 911.072 268.013 899.825 279.26C888.578 290.507 888.578 308.742 899.825 319.989C911.072 331.236 929.307 331.236 940.554 319.989Z" fill="#7CC366"></path>
    <path id="Vector_285" d="M913.5 314.7C912.4 314.7 911.3 314.3 910.5 313.5L901.4 304.4C899.8 302.8 899.8 300.1 901.4 298.5C903 296.9 905.7 296.9 907.3 298.5L913.4 304.6L931.6 286.4C933.2 284.8 935.9 284.8 937.5 286.4C939.1 288 939.1 290.7 937.5 292.3L916.3 313.5C915.7 314.3 914.6 314.7 913.5 314.7Z" fill="white"></path>
    </g>
    <g id="Right_upper_icon">
    <path id="Vector_286" d="M948.23 216.535C951.885 201.056 942.299 185.544 926.82 181.889C911.34 178.234 895.829 187.819 892.173 203.299C888.518 218.778 898.104 234.29 913.583 237.945C929.063 241.6 944.575 232.015 948.23 216.535Z" fill="#7CC366"></path>
    <path id="Vector_287" d="M913.5 225C912.4 225 911.3 224.6 910.5 223.8L901.4 214.7C899.8 213.1 899.8 210.4 901.4 208.8C903 207.2 905.7 207.2 907.3 208.8L913.4 214.9L931.6 196.7C933.2 195.1 935.9 195.1 937.5 196.7C939.1 198.3 939.1 201 937.5 202.6L916.3 223.8C915.7 224.5 914.6 225 913.5 225Z" fill="white"></path>
    </g>
    <g id="box_1">
    <path id="Vector_288" d="M1012.3 360.4H914.3V446.4H1012.3V360.4Z" fill="#BA7B4F"></path>
    <path id="Vector_289" d="M1041.9 360.4H943.9V446.4H1041.9V360.4Z" fill="#EFA873"></path>
    <g id="Group_41">
    <path id="Vector_290" d="M995.3 360.4H984.7V377.8H995.3V360.4Z" fill="white"></path>
    </g>
    <g id="Group_42">
    <path id="Vector_291" d="M1023 430.4H1012.8V440.1H1023V430.4Z" fill="#E68B43"></path>
    <path id="Vector_292" d="M1037.1 430.4H1026.9V440.1H1037.1V430.4Z" fill="#E68B43"></path>
    <path id="Vector_293" d="M1008.8 430.4H998.6V440.1H1008.8V430.4Z" fill="#E68B43"></path>
    </g>
    </g>
    <path id="Bun" d="M1016.11 360.414C1018.7 354.253 1015.8 347.16 1009.64 344.571C1003.48 341.982 996.389 344.878 993.8 351.038C991.211 357.199 994.107 364.292 1000.27 366.881C1006.43 369.47 1013.52 366.574 1016.11 360.414Z" fill="#0F0F10"></path>
    <g id="Back_hand">
    <path id="Vector_294" d="M914.6 378.3C914.6 378.3 901.6 377.4 903.4 364.7C904.2 359.4 918.7 366.1 918.7 366.1C918.7 366.1 916.8 357.7 919.9 358.4C921.3 364.3 922.6 369.9 923.7 375C923.8 377.2 918.4 380 914.6 378.3Z" fill="#F9B9A4"></path>
    </g>
    <path id="Back_full_hand" d="M979.1 385.2C984.4 375.2 974.1 363.3 963.4 373.2L941.3 398.4L923.3 374C921.1 377.1 919.7 378.5 916.5 378.4C916.5 378.4 928.6 412.6 937.9 414.8C949.1 417.5 974.9 391.9 979.1 385.2Z" fill="#F9B9A4"></path>
    <g id="Phone">
    <path id="Vector_295" d="M900.9 355C900.8 353.6 902.7 352.4 902.9 353.3L912.6 350.8C913.3 350.6 914 351.1 914.2 351.8L920.8 377.3C921 378.1 920.6 378.8 919.9 379L910 381.6C910 381.7 909.9 381.9 909.7 382C908.6 382.3 907.9 381.9 907.5 381.3C907.4 381.1 907.3 381 907.3 380.8C907.3 380.6 900.9 355.3 900.9 355Z" fill="black"></path>
    <path id="Vector_296" d="M909.9 382.2L921.3 379.2C922 379 922.4 378.2 922.2 377.4L915.4 351.2C915.2 350.4 914.5 350 913.8 350.1L902.6 352.9C901.9 353.1 901.5 353.8 901.7 354.6L908.3 381C908.4 381.9 909.2 382.4 909.9 382.2Z" fill="black"></path>
    <path id="Vector_297" d="M909.7 382H909.8L921.1 379C921.7 378.8 922.1 378.1 921.9 377.5L915.1 351.3C914.9 350.6 914.3 350.2 913.7 350.4L902.5 353.2C902.5 353.2 902.5 353.2 902.4 353.2C902.1 353.3 901.9 353.5 901.8 353.8C901.7 354.1 901.6 354.4 901.7 354.7L908.3 381.1C908.5 381.7 909.1 382.1 909.7 382Z" fill="black"></path>
    <path id="Vector_298" d="M902.2 354.6L908.8 381L921.6 377.6L914.8 351.4L902.2 354.6Z" fill="#ADDDF6"></path>
    </g>
    <g id="back_hand_finger">
    <path id="Vector_299" d="M906 365.7L905.9 365.9C905.5 366.5 904.7 366.7 904.1 366.3L900.1 363.2C897.1 360.9 898.3 359.8 901.3 361.4L905.5 363.9C906.2 364.3 906.4 365.1 906 365.7Z" fill="#F9B9A4"></path>
    <g id="Group_43">
    <path id="Vector_300" d="M908.6 370.6C908.2 371.3 907.3 371.5 906.7 371.1L901.1 367.8C900.4 367.4 900.2 366.5 900.6 365.9C901 365.2 901.9 365 902.5 365.4L908.1 368.7C908.8 369.1 909 370 908.6 370.6Z" fill="#F9B9A4"></path>
    <path id="Vector_301" d="M909.8 374.1C909.4 374.8 908.5 375 907.9 374.6L902.3 371.3C901.6 370.9 901.4 370 901.8 369.4C902.2 368.7 903.1 368.5 903.7 368.9L909.3 372.2C910 372.5 910.2 373.4 909.8 374.1Z" fill="#F9B9A4"></path>
    <path id="Vector_302" d="M908.6 376C908.3 376.5 907.6 376.7 907.1 376.4L902.7 373.8C902.2 373.5 902 372.8 902.3 372.3C902.6 371.8 903.3 371.6 903.8 371.9L908.2 374.5C908.7 374.7 908.9 375.4 908.6 376Z" fill="#F9B9A4"></path>
    </g>
    </g>
    <g id="T-shirt">
    <path id="Vector_303" d="M1012.1 409.8C1010.5 415.5 1008.4 421.3 1006.5 426.5C1003.5 434.4 1000.8 447 1000.1 450L956.1 451C955.5 428.7 955.4 428.7 955 421.4C954.7 416.7 954.4 411.5 954.3 406.8C954.1 399.3 954.2 392.9 955 390.8C957.3 384.8 964.8 376.6 971.2 370.6C977.6 364.6 1016.2 374.1 1014.7 385.1C1016.3 391.5 1014.7 400.6 1012.1 409.8Z" fill="#B7DBF3"></path>
    <g id="Group_44">
    <path id="Vector_304" d="M979.9 368.6C979.9 368.6 970.7 378.2 977.4 387.2C994.3 385.1 1002 374.1 1002.3 373.7C992.6 363.8 979.9 368.6 979.9 368.6Z" fill="#F9B9A4"></path>
    </g>
    </g>
    <g id="Neck">
    <path id="Vector_305" d="M986.5 349.6L985.8 353.6L983.2 368L982.3 372.9C982.6 378.2 996.4 378.9 1000.4 375.3C1000.4 374.3 1000.6 372.1 1000.8 369.4C1001.1 364.4 1001.5 357.7 1001.7 354.9V354.2L995.8 352.4C992.3 351.4 988.6 350.3 986.5 349.6Z" fill="#F9B9A4"></path>
    <path id="Vector_306" d="M985.7 353.7L983 368.8C996.1 369.6 1001.2 358.3 1001.2 358.3L1001.1 357.2C1001.1 357.2 994.8 354.9 989.1 353.7C988 353.4 986.9 353.4 985.7 353.7Z" fill="#F48869"></path>
    </g>
    <g id="Face">
    <path id="Vector_307" d="M973.1 335.8C968.6 347.1 973.1 358.9 978.7 361.4C987.8 365.5 1002.3 360.6 1006.8 349.2C1011.3 337.8 1007.5 325.6 998.2 321.9C988.8 318.3 977.6 324.5 973.1 335.8Z" fill="#F9B9A4"></path>
    <path id="Vector_308" d="M983.1 322.8C983.1 322.8 1000.4 333.1 1001.4 360.8C1015.7 349.4 1019.2 337.5 1011.9 326.8C1005.3 317.2 991.6 316.5 983.1 322.8Z" fill="#0F0F10"></path>
    <path id="Vector_309" d="M984.4 323.6C984.4 323.6 978.2 324.7 973.2 335.5C975.8 325.9 986.8 309.4 1005.4 320.9C1024 332.4 984.4 323.6 984.4 323.6Z" fill="#0F0F10"></path>
    <path id="Vector_310" d="M996.5 347.2C995.4 349.3 996.1 351.9 998.2 353C1000.3 354.1 1002.9 353.4 1004 351.3C1005.1 349.2 1004.4 346.6 1002.3 345.5C1000.2 344.4 997.6 345.1 996.5 347.2Z" fill="#F7A58E"></path>
    </g>
    <g id="Cap">
    <path id="Vector_311" d="M1016.3 346.2C1018.3 339.8 1022.3 323.1 1008.2 316.2C995.6 310 984.7 316.3 979.3 320.8C977.3 320.8 972.3 318.4 971.2 319.3C970.9 319.9 970.9 321.2 975.8 324.2C994.3 331.8 1009.8 340.1 1015.1 350.5C1015.1 350.5 1016.2 351.3 1017 351.4C1017.5 351.7 1016.4 348.8 1016.3 346.2Z" fill="#FDEC73"></path>
    <path id="Vector_312" d="M992.2 327.5C992.2 327.5 1000.8 314.3 1014.5 320.6L1014.9 320C1014.9 320 1011.7 317.1 1007.8 315.1C1003.4 313.6 992.6 313.5 984.6 323.5C987.4 325.7 992.2 327.5 992.2 327.5Z" fill="#FDDB59"></path>
    </g>
    <path id="Hand_Full_front" d="M981.8 421.3C974 424.3 950.6 383.3 946.7 375.5C942.5 364.4 978.6 402.1 979.4 401.2C982.9 396.2 996 386.2 999.5 382.8C1006.1 376.3 1015.5 383.8 1012.4 390.2C1012.4 390.2 994.4 418 981.8 421.3Z" fill="#F9B9A4"></path>
    <g id="Front_hand">
    <path id="Vector_313" d="M950.5 381.4L954.9 380.4L951.1 368.2C951.1 368.2 949.6 367.6 947.6 367.6C945.6 367.6 943.7 368.6 943.7 368.6C943.7 368.6 942.3 373.1 942.2 373.8C941.5 379.2 950.5 381.4 950.5 381.4Z" fill="#F9B9A4"></path>
    <path id="Vector_314" d="M952.4 372.4C952.4 372.2 948.2 358.4 948.2 358.4C948.2 358.4 947 359 946.9 361.1C946.8 363.3 948 372.4 948 372.4H952.4Z" fill="#F9B9A4"></path>
    <path id="Vector_315" d="M943.4 370.2C945.2 369.4 946.6 369.6 946.6 369.6V369.4C946.5 369.4 945.1 369.2 943.2 370L943.4 370.2Z" fill="#E5826E"></path>
    <path id="Vector_316" d="M942.9 371.9C944.7 371.1 946.1 371.3 946.1 371.3V371.1C946 371.1 944.6 370.9 942.7 371.7L942.9 371.9Z" fill="#E5826E"></path>
    <path id="Vector_317" d="M942.4 374C944.2 373.2 945.6 373.4 945.6 373.4V373.2C945.5 373.2 944.1 373 942.2 373.8L942.4 374Z" fill="#E5826E"></path>
    </g>
    <g id="legs">
    <g id="Group_45">
    <path id="Vector_318" d="M978 479.3C987.1 536.3 1007.1 648.3 1007.1 648.3L1021.8 647.5L1014.6 482.6C1012.1 458.9 977.8 445.2 978 479.3Z" fill="#072D4A"></path>
    <g id="Group_46">
    <path id="Vector_319" d="M1030 675.8C1033.4 673.2 1026.1 669.8 1026.1 669.8L1022.9 645.5V644.8H1007.4L1006.3 654.5L1015.5 675.7L1030 675.8Z" fill="#072D4A"></path>
    <path id="Vector_320" d="M1009.6 675.8L1016 653.3L1006.3 654.5L1007.4 675.8H1009.6Z" fill="#072D4A"></path>
    </g>
    </g>
    <g id="Group_47">
    <path id="Vector_321" d="M983.5 478.8C980.7 536.4 967.5 650.3 967.5 650.3L952.8 649.5L946.5 487C946.8 456.9 980.1 444.9 983.5 478.8Z" fill="#072D4A"></path>
    <g id="Group_48">
    <path id="Vector_322" d="M944.6 677.1C941.2 674.5 948.5 671.1 948.5 671.1L951.6 646.8V646.1H967.1L968.2 655.8L959.1 677L944.6 677.1Z" fill="#072D4A"></path>
    <path id="Vector_323" d="M965.1 677.1L958.7 654.6L968.4 655.8L967.3 677L965.1 677.1Z" fill="#072D4A"></path>
    </g>
    </g>
    <path id="Vector_324" d="M1000.1 450.1C1000.1 450.1 1014.3 459.6 1014.9 487C996.8 490.2 947.1 492.2 947.1 492.2C946 475.5 948.7 460.1 955.4 450.5C992 448.8 1000.1 450.1 1000.1 450.1Z" fill="#072D4A"></path>
    </g>
    <g id="legs_2">
    <g id="Group_49">
    <path id="Vector_325" d="M978.303 479.675C987.403 536.675 1007.4 648.675 1007.4 648.675L1022.1 647.875L1014.9 482.975C1012.4 459.275 978.103 445.575 978.303 479.675Z" fill="#072D4A"></path>
    <g id="Group_50">
    <path id="Vector_326" d="M1030.3 676.175C1033.7 673.575 1026.4 670.175 1026.4 670.175L1023.2 645.875V645.175H1007.7L1006.6 654.875L1015.8 676.075L1030.3 676.175Z" fill="#072D4A"></path>
    <path id="Vector_327" d="M1009.9 676.175L1016.3 653.675L1006.6 654.875L1007.7 676.175H1009.9Z" fill="#072D4A"></path>
    </g>
    </g>
    <g id="Group_51">
    <path id="Vector_328" d="M983.803 479.175C981.003 536.775 967.803 650.675 967.803 650.675L953.103 649.875L946.803 487.375C947.103 457.275 980.403 445.275 983.803 479.175Z" fill="#072D4A"></path>
    <g id="Group_52">
    <path id="Vector_329" d="M944.903 677.475C941.503 674.875 948.803 671.475 948.803 671.475L951.903 647.175V646.475H967.403L968.503 656.175L959.403 677.375L944.903 677.475Z" fill="#072D4A"></path>
    <path id="Vector_330" d="M965.403 677.475L959.003 654.975L968.703 656.175L967.603 677.375L965.403 677.475Z" fill="#072D4A"></path>
    </g>
    </g>
    <path id="Vector_331" d="M1000.4 450.475C1000.4 450.475 1014.6 459.975 1015.2 487.375C997.103 490.575 947.403 492.575 947.403 492.575C946.303 475.875 949.003 460.475 955.703 450.875C992.303 449.175 1000.4 450.475 1000.4 450.475Z" fill="#072D4A"></path>
    </g>
    <path id="Machine_move_right_handle_2" d="M834.3 349.4L840.4 349.2L849.2 302.5L832.5 303.1L834.3 349.4Z" fill="#113D63"></path>
    </g>
    <defs>
    <clipPath id="clip0_4_46">
    <rect width="1150" height="677" fill="white"></rect>
    </clipPath>
    </defs>
    </svg>