<svg xmlns="http://www.w3.org/2000/svg" xmlns:xlink="http://www.w3.org/1999/xlink" viewBox="0 0 1080 1080">
    <defs>
      <linearGradient id="linear-gradient" x1="359.2" y1="981.98" x2="748.79" y2="294.59" gradientUnits="userSpaceOnUse">
        <stop offset="0" stop-color="#f8fafb"></stop>
        <stop offset="1" stop-color="#d0dae1"></stop>
      </linearGradient>
      <linearGradient id="linear-gradient-2" x1="249.21" y1="209.42" x2="223.25" y2="182.34" gradientUnits="userSpaceOnUse">
        <stop offset="0" stop-color="#86d400"></stop>
        <stop offset="1" stop-color="#24aa00"></stop>
      </linearGradient>
      <linearGradient id="linear-gradient-3" x1="190.65" y1="515.17" x2="90.81" y2="503.93" xlink:href="#linear-gradient-2"></linearGradient>
      <linearGradient id="linear-gradient-4" x1="809.7" y1="458.72" x2="992.33" y2="437.31" gradientUnits="userSpaceOnUse">
        <stop offset="0" stop-color="#0c3c63"></stop>
        <stop offset="1" stop-color="#0c3063"></stop>
      </linearGradient>
      <linearGradient id="linear-gradient-5" x1="1024.42" y1="643.28" x2="1040.3" y2="643.28" xlink:href="#linear-gradient-2"></linearGradient>
      <linearGradient id="linear-gradient-6" x1="721.68" y1="166.61" x2="732.28" y2="155.02" xlink:href="#linear-gradient-4"></linearGradient>
      <linearGradient id="linear-gradient-7" x1="86.17" y1="748.42" x2="50.82" y2="765.93" xlink:href="#linear-gradient-4"></linearGradient>
      <radialGradient id="radial-gradient" cx="763.87" cy="380.14" r="104.57" gradientTransform="translate(0 201.81) scale(1 0.47)" gradientUnits="userSpaceOnUse">
        <stop offset="0" stop-color="#fff"></stop>
        <stop offset="1" stop-color="#ebeff3"></stop>
      </radialGradient>
      <radialGradient id="radial-gradient-2" cx="337.45" cy="481.08" r="56.7" gradientTransform="translate(0 231.4) scale(1 0.52)" xlink:href="#radial-gradient"></radialGradient>
      <linearGradient id="linear-gradient-8" x1="564.27" y1="919.78" x2="564.27" y2="715.07" gradientUnits="userSpaceOnUse">
        <stop offset="0" stop-color="#feec8f"></stop>
        <stop offset="1" stop-color="#ffc040"></stop>
      </linearGradient>
      <linearGradient id="linear-gradient-9" x1="553.39" y1="404.54" x2="553.39" y2="119.06" gradientTransform="matrix(1, 0, 0, -1, 0, 1082)" gradientUnits="userSpaceOnUse">
        <stop offset="0" stop-color="#ee0048"></stop>
        <stop offset="0.44" stop-color="#f78a37"></stop>
        <stop offset="0.58" stop-color="#f9a334"></stop>
        <stop offset="0.78" stop-color="#fbc131"></stop>
        <stop offset="0.9" stop-color="#fccd30"></stop>
      </linearGradient>
      <linearGradient id="linear-gradient-10" x1="554.35" y1="948.81" x2="554.35" y2="718.53" gradientUnits="userSpaceOnUse">
        <stop offset="0.24" stop-color="#fccd30"></stop>
        <stop offset="0.41" stop-color="#fbc631"></stop>
        <stop offset="0.64" stop-color="#fab433"></stop>
        <stop offset="0.92" stop-color="#f89536"></stop>
        <stop offset="1" stop-color="#f78a37"></stop>
      </linearGradient>
      <linearGradient id="linear-gradient-11" x1="554.59" y1="872.72" x2="554.59" y2="995.33" xlink:href="#linear-gradient-8"></linearGradient>
      <linearGradient id="linear-gradient-12" x1="264.8" y1="931.37" x2="238.84" y2="932.26" gradientUnits="userSpaceOnUse">
        <stop offset="0" stop-color="#fccab9"></stop>
        <stop offset="1" stop-color="#ffab91"></stop>
      </linearGradient>
      <linearGradient id="linear-gradient-13" x1="273.02" y1="961.82" x2="248.53" y2="936.34" gradientUnits="userSpaceOnUse">
        <stop offset="0" stop-color="#4b1400"></stop>
        <stop offset="1" stop-color="#62351d"></stop>
      </linearGradient>
      <linearGradient id="linear-gradient-14" x1="219.84" y1="818.65" x2="266.96" y2="818.65" gradientUnits="userSpaceOnUse">
        <stop offset="0" stop-color="#0c3c63"></stop>
        <stop offset="1" stop-color="#0f6ba8"></stop>
      </linearGradient>
      <linearGradient id="linear-gradient-15" x1="217.1" y1="932.54" x2="193.21" y2="932.24" xlink:href="#linear-gradient-12"></linearGradient>
      <linearGradient id="linear-gradient-16" x1="223.08" y1="957.28" x2="215.66" y2="937.22" xlink:href="#linear-gradient-13"></linearGradient>
      <linearGradient id="linear-gradient-17" x1="185.87" y1="820.1" x2="261.56" y2="820.1" xlink:href="#linear-gradient-14"></linearGradient>
      <linearGradient id="linear-gradient-18" x1="296.56" y1="703.77" x2="251.82" y2="631.99" gradientUnits="userSpaceOnUse">
        <stop offset="0" stop-color="#b3e0fd"></stop>
        <stop offset="1" stop-color="#81cbfc"></stop>
      </linearGradient>
      <linearGradient id="linear-gradient-19" x1="177.9" y1="675.77" x2="255.59" y2="675.77" xlink:href="#linear-gradient-18"></linearGradient>
      <linearGradient id="linear-gradient-20" x1="212.63" y1="706.81" x2="212" y2="691.96" xlink:href="#linear-gradient-12"></linearGradient>
      <linearGradient id="linear-gradient-21" x1="209.84" y1="632.22" x2="167.33" y2="714.66" xlink:href="#linear-gradient-18"></linearGradient>
      <linearGradient id="linear-gradient-22" x1="257.16" y1="690.94" x2="188.18" y2="695.57" gradientUnits="userSpaceOnUse">
        <stop offset="0" stop-color="#9ba2a8"></stop>
        <stop offset="1" stop-color="#ced8e0"></stop>
      </linearGradient>
      <linearGradient id="linear-gradient-23" x1="338.18" y1="628.08" x2="243.69" y2="701.01" xlink:href="#linear-gradient-22"></linearGradient>
      <linearGradient id="linear-gradient-24" x1="228.49" y1="603.63" x2="203.69" y2="604.17" xlink:href="#linear-gradient-12"></linearGradient>
      <linearGradient id="linear-gradient-25" x1="228.84" y1="620.04" x2="204.05" y2="620.58" xlink:href="#linear-gradient-12"></linearGradient>
      <linearGradient id="linear-gradient-26" x1="231.19" y1="584.25" x2="245.92" y2="577.02" xlink:href="#linear-gradient-12"></linearGradient>
      <linearGradient id="linear-gradient-27" x1="243.39" y1="556.55" x2="211.73" y2="594.02" xlink:href="#linear-gradient-12"></linearGradient>
      <linearGradient id="linear-gradient-28" x1="220.54" y1="563.17" x2="223.26" y2="544.74" gradientUnits="userSpaceOnUse">
        <stop offset="0" stop-color="#4d272f"></stop>
        <stop offset="1" stop-color="#62351d"></stop>
      </linearGradient>
      <linearGradient id="linear-gradient-29" x1="206.86" y1="571.1" x2="193.62" y2="553.76" xlink:href="#linear-gradient-28"></linearGradient>
      <linearGradient id="linear-gradient-30" x1="196.2" y1="582.44" x2="210.1" y2="582.44" xlink:href="#linear-gradient-12"></linearGradient>
      <linearGradient id="linear-gradient-31" x1="222.37" y1="572.18" x2="228.22" y2="611.24" xlink:href="#linear-gradient-28"></linearGradient>
      <linearGradient id="linear-gradient-32" x1="742.58" y1="566.67" x2="769.77" y2="595.34" gradientUnits="userSpaceOnUse">
        <stop offset="0" stop-color="#ffab91"></stop>
        <stop offset="1" stop-color="#e18d73"></stop>
      </linearGradient>
      <linearGradient id="linear-gradient-33" x1="745.3" y1="564.09" x2="772.49" y2="592.76" xlink:href="#linear-gradient-32"></linearGradient>
      <linearGradient id="linear-gradient-34" x1="750.64" y1="559.03" x2="777.83" y2="587.7" xlink:href="#linear-gradient-32"></linearGradient>
      <linearGradient id="linear-gradient-35" x1="742.28" y1="566.95" x2="769.47" y2="595.62" xlink:href="#linear-gradient-32"></linearGradient>
      <linearGradient id="linear-gradient-36" x1="847.27" y1="661.35" x2="779.88" y2="581.98" gradientUnits="userSpaceOnUse">
        <stop offset="0" stop-color="#0f6ba8"></stop>
        <stop offset="1" stop-color="#1f487e"></stop>
      </linearGradient>
      <linearGradient id="linear-gradient-37" x1="795.62" y1="930.12" x2="816.44" y2="930.12" xlink:href="#linear-gradient-32"></linearGradient>
      <linearGradient id="linear-gradient-38" x1="808.08" y1="961.11" x2="760.67" y2="937.57" xlink:href="#linear-gradient-13"></linearGradient>
      <linearGradient id="linear-gradient-39" x1="802.98" y1="816.03" x2="859.44" y2="815.57" gradientUnits="userSpaceOnUse">
        <stop offset="0" stop-color="#84e572"></stop>
        <stop offset="1" stop-color="#32d314"></stop>
      </linearGradient>
      <linearGradient id="linear-gradient-40" x1="865.54" y1="930.12" x2="885.7" y2="930.12" xlink:href="#linear-gradient-32"></linearGradient>
      <linearGradient id="linear-gradient-41" x1="877.38" y1="962.37" x2="836.23" y2="936.45" xlink:href="#linear-gradient-13"></linearGradient>
      <linearGradient id="linear-gradient-42" x1="838.7" y1="808.73" x2="903.88" y2="809.19" xlink:href="#linear-gradient-39"></linearGradient>
      <linearGradient id="linear-gradient-43" x1="811.62" y1="719.82" x2="873.78" y2="719.82" xlink:href="#linear-gradient-39"></linearGradient>
      <linearGradient id="linear-gradient-44" x1="912.48" y1="543.84" x2="892.46" y2="560.5" gradientUnits="userSpaceOnUse">
        <stop offset="0" stop-color="#8c6c50"></stop>
        <stop offset="1" stop-color="#4a2816"></stop>
      </linearGradient>
      <linearGradient id="linear-gradient-45" x1="882.38" y1="561.25" x2="895.64" y2="569.68" gradientUnits="userSpaceOnUse">
        <stop offset="0" stop-color="#84e572"></stop>
        <stop offset="1" stop-color="#58c000"></stop>
      </linearGradient>
      <linearGradient id="linear-gradient-46" x1="855.32" y1="586.09" x2="898.95" y2="572.09" xlink:href="#linear-gradient-44"></linearGradient>
      <linearGradient id="linear-gradient-47" x1="843.43" y1="589.47" x2="858.23" y2="589.01" xlink:href="#linear-gradient-32"></linearGradient>
      <linearGradient id="linear-gradient-48" x1="857.63" y1="618.42" x2="888.28" y2="618.42" xlink:href="#linear-gradient-32"></linearGradient>
      <linearGradient id="linear-gradient-49" x1="868" y1="605.97" x2="874.42" y2="616.17" gradientUnits="userSpaceOnUse">
        <stop offset="0.26" stop-color="#de7352"></stop>
        <stop offset="0.38" stop-color="#de7352" stop-opacity="0.86"></stop>
        <stop offset="0.65" stop-color="#de7352" stop-opacity="0.51"></stop>
        <stop offset="1" stop-color="#de7352" stop-opacity="0"></stop>
      </linearGradient>
      <linearGradient id="linear-gradient-50" x1="850.73" y1="584.11" x2="892.46" y2="584.11" xlink:href="#linear-gradient-32"></linearGradient>
      <linearGradient id="linear-gradient-51" x1="852.63" y1="577.72" x2="896.26" y2="563.72" xlink:href="#linear-gradient-44"></linearGradient>
      <linearGradient id="linear-gradient-52" x1="857.07" y1="589.13" x2="893.82" y2="588.19" xlink:href="#linear-gradient-32"></linearGradient>
      <linearGradient id="linear-gradient-53" x1="852.44" y1="577.13" x2="896.07" y2="563.12" xlink:href="#linear-gradient-44"></linearGradient>
      <linearGradient id="linear-gradient-54" x1="849.87" y1="569.11" x2="893.5" y2="555.1" xlink:href="#linear-gradient-44"></linearGradient>
      <linearGradient id="linear-gradient-55" x1="882.95" y1="628.49" x2="860.98" y2="693.87" xlink:href="#linear-gradient-36"></linearGradient>
      <linearGradient id="linear-gradient-56" x1="857.62" y1="632.81" x2="888.27" y2="632.81" xlink:href="#linear-gradient-32"></linearGradient>
      <linearGradient id="linear-gradient-57" x1="891.02" y1="630.49" x2="941.25" y2="693.09" xlink:href="#linear-gradient-36"></linearGradient>
      <linearGradient id="linear-gradient-58" x1="883.21" y1="741.98" x2="843.59" y2="704.32" gradientUnits="userSpaceOnUse">
        <stop offset="0" stop-color="#010101"></stop>
        <stop offset="1" stop-color="#676767"></stop>
      </linearGradient>
      <linearGradient id="linear-gradient-59" x1="869.86" y1="731.31" x2="901.71" y2="717.83" xlink:href="#linear-gradient-32"></linearGradient>
      <linearGradient id="linear-gradient-60" x1="875.4" y1="643.03" x2="925.63" y2="705.62" xlink:href="#linear-gradient-36"></linearGradient>
      <linearGradient id="linear-gradient-61" x1="269.8" y1="401.59" x2="132.86" y2="274.28" xlink:href="#linear-gradient-4"></linearGradient>
      <linearGradient id="linear-gradient-62" x1="819.31" y1="301.77" x2="976.93" y2="168.68" xlink:href="#linear-gradient-2"></linearGradient>
      <linearGradient id="linear-gradient-63" x1="399.46" y1="612.77" x2="487.91" y2="612.77" gradientUnits="userSpaceOnUse">
        <stop offset="0" stop-color="#0f6ba8"></stop>
        <stop offset="0.3" stop-color="#165c96"></stop>
        <stop offset="0.71" stop-color="#1d4d84"></stop>
        <stop offset="1" stop-color="#1f487e"></stop>
      </linearGradient>
      <linearGradient id="linear-gradient-64" x1="437.65" y1="590.68" x2="481.03" y2="590.46" gradientUnits="userSpaceOnUse">
        <stop offset="0" stop-color="#0c3c63" stop-opacity="0"></stop>
        <stop offset="0.16" stop-color="#0c3a5f" stop-opacity="0.16"></stop>
        <stop offset="0.46" stop-color="#0a3354" stop-opacity="0.58"></stop>
        <stop offset="0.7" stop-color="#092d4a"></stop>
      </linearGradient>
      <linearGradient id="linear-gradient-65" x1="615.82" y1="611.28" x2="694.49" y2="613.62" gradientUnits="userSpaceOnUse">
        <stop offset="0" stop-color="#1f487e"></stop>
        <stop offset="0.29" stop-color="#1d4d84"></stop>
        <stop offset="0.7" stop-color="#165c96"></stop>
        <stop offset="1" stop-color="#0f6ba8"></stop>
      </linearGradient>
      <linearGradient id="linear-gradient-66" x1="668.08" y1="589.33" x2="622.12" y2="588.71" xlink:href="#linear-gradient-64"></linearGradient>
      <linearGradient id="linear-gradient-67" x1="553.26" y1="721.28" x2="552.86" y2="670.25" gradientUnits="userSpaceOnUse">
        <stop offset="0" stop-color="#577b98"></stop>
        <stop offset="0.21" stop-color="#5d809c"></stop>
        <stop offset="0.5" stop-color="#6f8ea6"></stop>
        <stop offset="0.84" stop-color="#8da4b7"></stop>
        <stop offset="1" stop-color="#9eb1c1"></stop>
      </linearGradient>
      <linearGradient id="linear-gradient-68" x1="467.09" y1="412.67" x2="637.38" y2="412.67" gradientUnits="userSpaceOnUse">
        <stop offset="0" stop-color="#fcfcfc"></stop>
        <stop offset="1" stop-color="#daeef4"></stop>
      </linearGradient>
      <linearGradient id="linear-gradient-69" x1="510.66" y1="190.36" x2="594.78" y2="190.36" xlink:href="#linear-gradient-63"></linearGradient>
      <linearGradient id="linear-gradient-70" x1="553.08" y1="412.67" x2="629.19" y2="412.67" gradientUnits="userSpaceOnUse">
        <stop offset="0" stop-color="#1f487e" stop-opacity="0"></stop>
        <stop offset="0.17" stop-color="#1f487e" stop-opacity="0.25"></stop>
        <stop offset="0.42" stop-color="#1f487e" stop-opacity="0.57"></stop>
        <stop offset="0.66" stop-color="#1f487e" stop-opacity="0.81"></stop>
        <stop offset="0.86" stop-color="#1f487e" stop-opacity="0.95"></stop>
        <stop offset="1" stop-color="#1f487e"></stop>
      </linearGradient>
      <linearGradient id="linear-gradient-71" x1="506.87" y1="370.61" x2="597.13" y2="370.61" xlink:href="#linear-gradient-2"></linearGradient>
      <linearGradient id="linear-gradient-72" x1="520.41" y1="370.61" x2="583.95" y2="370.61" xlink:href="#linear-gradient-68"></linearGradient>
      <linearGradient id="linear-gradient-73" x1="545.95" y1="616.38" x2="560.12" y2="616.38" xlink:href="#linear-gradient-65"></linearGradient>
    </defs>
    <g id="bg">
      <g id="bg-2" data-name="bg">
        <path id="Vector" d="M962.5,638.32c-.72-226-184.49-408.7-410.5-408S143.3,414.83,144,640.84a408,408,0,0,0,153.8,318.44l512.85-1.63A408.19,408.19,0,0,0,962.5,638.32Z" style="fill: url(#linear-gradient)"></path>
        <path id="Vector_2" data-name="Vector 2" d="M229.59,182.69h14.8a7,7,0,0,1,7,7v13.9a7,7,0,0,1-7,7h-14.8a7,7,0,0,1-7-7v-13.9A6.93,6.93,0,0,1,229.59,182.69Z" style="fill: url(#linear-gradient-2)"></path>
        <path id="Vector_3" data-name="Vector 3" d="M186.09,515.92,98,516.1a6.32,6.32,0,0,1,0-12.63l88.1-.18a6.32,6.32,0,1,1,0,12.63Z" style="fill: url(#linear-gradient-3)"></path>
        <path id="Vector_4" data-name="Vector 4" d="M992.28,453.64l-172.39.18a6.32,6.32,0,1,1,0-12.63L992.28,441a6.4,6.4,0,0,1,6.32,6.32A6.27,6.27,0,0,1,992.28,453.64Z" style="fill: url(#linear-gradient-4)"></path>
        <path id="Vector_5" data-name="Vector 5" d="M1028.21,635.61h8.12a4,4,0,0,1,4,3.79V647a4,4,0,0,1-3.79,4h-8.12a4,4,0,0,1-4-3.79v-7.58A3.85,3.85,0,0,1,1028.21,635.61Z" style="fill: url(#linear-gradient-5)"></path>
        <path id="Vector_6" data-name="Vector 6" d="M724.21,151.64h8.13a3.85,3.85,0,0,1,3.79,4v7.58a4,4,0,0,1-3.79,4h-8.13a3.85,3.85,0,0,1-3.79-4v-7.58A4,4,0,0,1,724.21,151.64Z" style="fill: url(#linear-gradient-6)"></path>
        <path id="Vector_7" data-name="Vector 7" d="M56.84,740.31H75.07a9,9,0,0,1,9,9v18.24a9,9,0,0,1-9,9H56.84a9,9,0,0,1-9-9V749.33A8.94,8.94,0,0,1,56.84,740.31Z" style="fill: url(#linear-gradient-7)"></path>
      </g>
    </g>
    <g id="cloud">
      <g id="cloud-2" data-name="cloud">
        <path id="Cloud1" data-name="Vector 8" d="M806.35,375.48a20.49,20.49,0,0,0-14.44,6c-6.32-17.87-22.75-30.69-42.06-30.69-24.91,0-45,21.12-45,47.11H827.65A22,22,0,0,0,806.35,375.48Z" style="fill: url(#radial-gradient)"></path>
        <path id="Cloud2" data-name="Vector 9" d="M361.55,481.08a12.92,12.92,0,0,0-7.76,2.53,28.79,28.79,0,0,0-26-17.51c-15.88,0-28.7,13.36-28.7,30h76.72A14.57,14.57,0,0,0,361.55,481.08Z" style="fill: url(#radial-gradient-2)"></path>
      </g>
    </g>
    <g id="fire_cloud">
      <g id="fire_cloud-2" data-name="fire_cloud">
        <path id="Fire3" data-name="Vector 10" d="M836,958.19a3.4,3.4,0,0,0,.36,1.45v.18H287c.18-.36.18-.72.36-1.08,2.16-9.75-16.43-18.78,29.24-30.15,4.15-.9,8.31-28.88,12.1-27.44a.56.56,0,0,0,.36.18c.36,0,.36,0,.54-.18.36-.18.54-.36.54-.72.9-9.21,10.65-16.43,22.39-16.43a25.86,25.86,0,0,1,11.19,2.35.66.66,0,0,0,.54.18c.36,0,.36,0,.54-.18s.54-.36.54-.72C366.79,864,389.17,847,416.61,847a60,60,0,0,1,35.2,11c.18.18.36.18.72.18h.18a1.39,1.39,0,0,0,.73-.36c3.61-6.14,11.73-10.29,20.21-10.29,7.59,0,14.63,3.07,18.6,8.12a.94.94,0,0,0,.72.36,1.8,1.8,0,0,0,.72-.9c9.93-21.12,33.4-111,33-182.33h52.35c-.36,71,23.1,160.49,32.67,181.61.18.18.36.9.9.9h.18a1.38,1.38,0,0,0,.91-.36c6-7.22,15.88-11.37,26.71-11.37,15,0,28.16,8.3,31.23,20a2.42,2.42,0,0,0,.73.54c.18.18.18.18.36.18a.66.66,0,0,0,.54-.18,66.65,66.65,0,0,1,31.77-7.58c28.88,0,53.61,17.15,56.86,39.9a1.41,1.41,0,0,0,.72.72H763c.18,0,.54-.18.72-.18a24.09,24.09,0,0,1,14.44-4.51c11.19,0,20.58,7,20.94,16.06a1,1,0,0,0,.54.72.9.9,0,0,0,1.08,0,27.77,27.77,0,0,1,12.64-2.34C863.39,909.27,835.05,948.63,836,958.19Z" style="fill: url(#linear-gradient-8)"></path>
        <path id="Fire2" data-name="Vector 11" d="M616.44,877.32c11.56,0,21.31,6.68,24.19,15.71A50.46,50.46,0,0,1,671,883.1c23.29,0,42.42,14.8,45.13,33.94,4-1.81,10.83,11.91,15.53,12.45,39.17,4.15,22.92,16.79,24.91,28.34h-408c3.07-8.3-8.84-30.87,22.93-37.18,4.87-.91,9.75,1.08,13.36,3.25,1.26-7.95,9.21-14.26,18.77-14.26a21.26,21.26,0,0,1,11.19,3.06c2.53-16.24,18.78-28.52,38.46-28.52,11.37,0,21.66,4.15,28.7,10.83,2.34-7.4,10.29-12.63,19.67-12.63a23.51,23.51,0,0,1,7,1.62c7.59-26.9,23.83-128.89,23.47-206.15H572c-.36,79.79,17,183,24.37,208.32A28.38,28.38,0,0,1,616.44,877.32Z" style="fill: url(#linear-gradient-9)"></path>
        <path id="Fire2" data-name="Vector 12" d="M588.64,948.81C583.05,924.8,561.57,721,561.75,678H544.06c.18,42.78-18.24,247.13-24,270.78Z" style="fill-rule: evenodd;fill: url(#linear-gradient-10)"></path>
        <path id="Fire" data-name="Vector 13" d="M799.13,956.21a13.15,13.15,0,0,1-6.5-1.26,12.06,12.06,0,0,1-1.26,3.24,5.9,5.9,0,0,1-.91,1.45H332a2.68,2.68,0,0,1-.55-.72c-.72.18-1.44.18-2.16.36a18.47,18.47,0,0,1-6.32-.72,16.34,16.34,0,0,1-6-3.43,11.07,11.07,0,0,1-3.25-5.78,10.53,10.53,0,0,1-2.34.36c-5.78.36-10.83-3.25-11.38-7.94s3.8-8.85,9.57-9.21a12.07,12.07,0,0,1,6.32,1.26c1.62-6.49,8.3-11.73,16.79-12.27a21.28,21.28,0,0,1,12.27,2.71c2-3.79,6.68-6.86,12.1-7.22a18.13,18.13,0,0,1,10.83,2.88c2.35-5.59,8.48-9.74,16.25-10.28a23.3,23.3,0,0,1,10.65,2,17.3,17.3,0,0,1,6.86,5.42,17.14,17.14,0,0,1,17.69-1.81c1.8-7.76,9.75-13.9,19.85-14.62,7.59-.54,14.63,2.17,19,6.68a29.7,29.7,0,0,1,17.69-7.22c11.91-.72,22.57,5,26.72,13.72a21,21,0,0,1,7.58-1.81,24.06,24.06,0,0,1,14.44,3.61,19.67,19.67,0,0,1,6.32,7,23.07,23.07,0,0,1,12.45-4.51h.55c3.79-7.4,12.45-12.82,22.74-13.54a30.31,30.31,0,0,1,15.16,2.71c.19-.36.55-.54.91-.9a21.45,21.45,0,0,1,14.44-6.32c10.29-.72,19.49,5,21.48,13.18a22.05,22.05,0,0,1,13-5.06,25,25,0,0,1,8.3.9c3.25-4.51,9-7.76,15.89-8.3,10.83-.72,20.22,5.6,21.66,14.08,4.15-6.14,11.73-10.29,20.76-11a31.28,31.28,0,0,1,14.8,2.53,24.19,24.19,0,0,1,11.37,9.74c3.07-4.33,8.31-7.22,14.81-7.76,9.93-.72,18.95,5.24,20,13.36h.55c7.4-.36,14.08,2.71,17.69,7.58a9.12,9.12,0,0,1,2.34-.36,16.42,16.42,0,0,1,12.28,4.15,11,11,0,0,1,3.25,5.78,10.63,10.63,0,0,1,2.53-.36c5.77-.36,10.83,3.25,11.37,7.94C809.24,951.7,804.91,955.85,799.13,956.21Z" style="fill: url(#linear-gradient-11)"></path>
      </g>
    </g>
    <g id="ground">
      <g id="ground-2" data-name="ground">
        <path id="BG_Line" data-name="BG Line" d="M1047.42,958l-1011.16.73" style="fill: none;stroke: #0c3063;stroke-miterlimit: 10;stroke-width: 0.939999997615814px"></path>
      </g>
    </g>
    <g id="boy">
      <g id="boy-2" data-name="boy">
        <path id="Vector_14" data-name="Vector 14" d="M264.79,947.54l-3.61-32.67-20-.9,3.43,35.92,16.6-.18Z" style="fill: url(#linear-gradient-12)"></path>
        <path id="Vector_15" data-name="Vector 15" d="M242.05,940s17.51,7.22,25.45-4.69l28.88,17.15a2.79,2.79,0,0,1-1.44,5.23l-58.13.36Z" style="fill: url(#linear-gradient-13)"></path>
        <path id="Vector_16" data-name="Vector 16" d="M219.84,712.69,235.19,926.6l31.77-.18s-1.44-132.68-13.9-215.72Z" style="fill: url(#linear-gradient-14)"></path>
        <path id="Vector_17" data-name="Vector 17" d="M217.14,947.91l.36-32.68-20-.9-.54,35.92,16.61-.18Z" style="fill: url(#linear-gradient-15)"></path>
        <path id="Vector_18" data-name="Vector 18" d="M194.39,940.32s17.51,7.22,25.45-4.69L257.57,958l-68.23.55Z" style="fill: url(#linear-gradient-16)"></path>
        <path id="Vector_19" data-name="Vector 19" d="M250.53,714.67l-13-.36v-.9l-50,19.14c-4.87,78.52,2.53,194.23,2.53,194.23l36.1-.18,9.75-186.29Z" style="fill: url(#linear-gradient-17)"></path>
        <path id="Vector_20" data-name="Vector 20" d="M230.13,855.48l4.7-96.5,8.3-7.3" style="fill: none;stroke: #092d4a;stroke-miterlimit: 10;stroke-width: 0.72000002861023px"></path>
        <path id="Vector_21" data-name="Vector 21" d="M233.2,629.11s-4,9.21,15.89,56c0,0,9.93,20,14.62,20.58,7.58.9,39-1.45,55.06-24.91l-21.66-19-23.83,14.08L259,639.58C258.84,639.76,250.53,615.57,233.2,629.11Z" style="fill: url(#linear-gradient-18)"></path>
        <path id="Vector_22" data-name="Vector 22" d="M209.19,616.11c-8.12,2.71-28,11.74-28,11.74A5.57,5.57,0,0,0,178,633.8l9.75,98.75s29.79,13.17,67.88-7.41l-2.35-90.62c.18-2.52-2.35-6.31-4.33-7.94l-22-11.73Z" style="fill: url(#linear-gradient-19)"></path>
        <path id="Vector_23" data-name="Vector 23" d="M251.07,648.24l1.81,37.19" style="fill: none;stroke: #3fa0e0;stroke-miterlimit: 10;stroke-width: 0.72000002861023px"></path>
        <path id="Vector_24" data-name="Vector 24" d="M238.8,693.55s6.86,15.17-22.93,11.2l-30.5,2.34,2.34-9.2,19.5-1.81,22.92-.18Z" style="fill: url(#linear-gradient-20)"></path>
        <path id="Vector_25" data-name="Vector 25" d="M181.21,628s-14.8,4.87-31.05,51.08c0,0-6.13,17.87-3.06,21.12,5.05,5.6,34.29,13.9,61.91,7.22l-3.25-14.26L178.51,688l13.35-35.2C192,652.94,203.06,629.29,181.21,628Z" style="fill: url(#linear-gradient-21)"></path>
        <path id="Vector_26" data-name="Vector 26" d="M164.79,691A12.39,12.39,0,0,1,178,687.78l14.63-32.68" style="fill: none;stroke: #3fa0e0;stroke-miterlimit: 10;stroke-width: 0.72000002861023px"></path>
        <path id="Vector_27" data-name="Vector 27" d="M186.81,710.52s18.77-.54,22.2-3.07" style="fill: none;stroke: #3fa0e0;stroke-miterlimit: 10;stroke-width: 0.72000002861023px"></path>
        <path id="Vector_28" data-name="Vector 28" d="M197.28,691.39,178.69,688" style="fill: none;stroke: #3fa0e0;stroke-miterlimit: 10;stroke-width: 0.72000002861023px"></path>
        <path id="Vector_29" data-name="Vector 29" d="M199.27,696.26l54.15-.36v-6.14l-54.15.36a3.17,3.17,0,0,0-3.07,3.07A3,3,0,0,0,199.27,696.26Z" style="fill: url(#linear-gradient-22)"></path>
        <path id="Vector_30" data-name="Vector 30" d="M246.2,695.9l71.67-.54a9.26,9.26,0,0,0,8.84-6.86l13.72-50.37a6.82,6.82,0,0,0-4.87-8.48,6.19,6.19,0,0,0-1.81-.18l-65.89.54a5.81,5.81,0,0,0-5.77,4.51Z" style="fill: url(#linear-gradient-23)"></path>
        <path id="Vector_31" data-name="Vector 31" d="M291,662.87a6.77,6.77,0,1,0,6.68-6.86A6.94,6.94,0,0,0,291,662.87Z" style="fill: #ebeff3"></path>
        <path id="Vector_32" data-name="Vector 32" d="M209.19,616.11l-1.26-30,19.32-.91,1.26,29.07c.18,5.41-4,7.76-9.21,7.94C213.89,622.43,209.37,621.35,209.19,616.11Z" style="fill: url(#linear-gradient-24)"></path>
        <path id="Vector_33" data-name="Vector 33" d="M208.11,589.39s-2.71,17.88,20.4,22.21l-.72-13.72Z" style="fill: #e5a391"></path>
        <path id="Vector_34" data-name="Vector 34" d="M211.9,614.31l-11,5.05s2.17,8.3,19.32,7.76A20.45,20.45,0,0,0,226.7,626c2.89-1.08,6.68-3.07,8-7l-9.39-5.78Z" style="fill: url(#linear-gradient-25)"></path>
      </g>
    </g>
    <g id="boy_head">
      <g id="boy_head-2" data-name="boy_head">
        <path id="Vector_35" data-name="Vector 35" d="M197.1,566.29s-.36-15,22.2-16.07c19.5-.9,22,7.22,23.83,12.64s-22,20.4-22,20.4Z" style="fill: #171e21"></path>
        <path id="Vector_36" data-name="Vector 36" d="M233.38,554.55s13.72-.18,10.11,21.49l-6.86-9.21Z" style="fill: #4d272f"></path>
        <path id="Vector_37" data-name="Vector 37" d="M233.56,580.19a6.67,6.67,0,0,0,7,6.32,6.69,6.69,0,0,0-.72-13.36A6.67,6.67,0,0,0,233.56,580.19Z" style="fill: url(#linear-gradient-26)"></path>
        <path id="Vector_38" data-name="Vector 38" d="M224.72,605.46c10.29-.54,18.41-7.22,18.05-17.51l-1.08-20.58a8.15,8.15,0,0,0-8.67-7.76l-21.3,1.08a8.26,8.26,0,0,0-7.76,8.67l.9,17.69C205.4,597.16,216.05,605.82,224.72,605.46Z" style="fill: url(#linear-gradient-27)"></path>
        <path id="Vector_39" data-name="Vector 39" d="M209,573.69l3.79-10.29s25.1,3.07,31.23-4c6-6.86,1.09-17-4-18-4-.91-8.12,2.7-11.19,4.33s-10.11.18-12.28,0-11.37-2-14.26,7.76c0,0-15.16,5.6.55,31A13.12,13.12,0,0,0,209,573.69Z" style="fill: url(#linear-gradient-28)"></path>
        <path id="Vector_40" data-name="Vector 40" d="M206.12,581.09S216.53,574,212,560.3l-9.69-6.83s-5.12,1.83-6.33,8.5c-1.32,7.26,3.23,16.7,3.23,16.7Z" style="fill: url(#linear-gradient-29)"></path>
        <path id="Vector_41" data-name="Vector 41" d="M196.2,582.53a7,7,0,1,0,6.86-7A6.89,6.89,0,0,0,196.2,582.53Z" style="fill: url(#linear-gradient-30)"></path>
        <path id="Vector_42" data-name="Vector 42" d="M211.36,572.06s-.72,13.72,2.35,17.88,4.69-.18,15.52-1.81S243,591.38,243,591.38s-.54,13.9-14.8,14.62c-11,.54-22.39-2-20.22-19.85s-4-22-4-22Z" style="fill: url(#linear-gradient-31)"></path>
      </g>
    </g>
    <g id="Girl_Hand">
      <g id="girl_hand-2" data-name="girl_hand">
        <path id="Vector_43" data-name="Vector 43" d="M745.33,583.8a12.59,12.59,0,1,0,11.74-13.54C750.21,570.62,745,576.76,745.33,583.8Z" style="fill: url(#linear-gradient-32)"></path>
        <path id="Vector_44" data-name="Vector 44" d="M766.64,573.51s5.41-2.17,6.31,4.51-1.44,15.71-14.08,17.69Z" style="fill: url(#linear-gradient-33)"></path>
        <path id="Vector_45" data-name="Vector 45" d="M766.64,573.33l-7.77-13a2.38,2.38,0,0,0-3.06-1.08,2.17,2.17,0,0,0-1.09,2.53l5.78,15.16Z" style="fill: url(#linear-gradient-34)"></path>
        <path id="Vector_46" data-name="Vector 46" d="M754.36,591,778,616.47l7.4-15.88L769.71,586Z" style="fill: url(#linear-gradient-35)"></path>
        <path id="Vector_47" data-name="Vector 47" d="M855.81,628.93l-46.75-6.86-35-35.38-13.36,15.16L795,640.66a13.75,13.75,0,0,0,10.29,5.24l49.46,9.56Z" style="fill: url(#linear-gradient-36)"></path>
      </g>
    </g>
    <g id="girl">
      <g id="girl-2" data-name="girl">
        <path id="Vector_48" data-name="Vector 48" d="M791.73,946.28l7.4-36.64,19.68,2.7-9.39,38.27-18.59-3.25Z" style="fill: url(#linear-gradient-37)"></path>
        <path id="Vector_49" data-name="Vector 49" d="M811.64,942.27s-11.36,6.86-18.58-3.25l-32.85,15.53a1.87,1.87,0,0,0-1.08,2.35,1.71,1.71,0,0,0,1.8,1.08l55.41-.18Z" style="fill: url(#linear-gradient-38)"></path>
        <path id="Vector_50" data-name="Vector 50" d="M829.64,742.84l-42.24,178h38.45l37.36-137.38,3.43-72.93Z" style="fill: url(#linear-gradient-39)"></path>
        <path id="Vector_51" data-name="Vector 51" d="M865.74,946.28l.36-36.64,19.68,2.7-2.17,38.27-18.77-3.25Z" style="fill: url(#linear-gradient-40)"></path>
        <path id="Vector_52" data-name="Vector 52" d="M884.24,942.2s-11.18,6.86-18.58-3.25L831.54,955.2a1.51,1.51,0,0,0-.72,2,1.35,1.35,0,0,0,1.26.91l56.85-.36Z" style="fill: url(#linear-gradient-41)"></path>
        <path id="Vector_53" data-name="Vector 53" d="M895,697.34s14.44,14.09,10.83,64.27l-13.36,159H857.08l7.22-185.94-5.24-37.18Z" style="fill: url(#linear-gradient-42)"></path>
        <path id="Vector_54" data-name="Vector 54" d="M852,699.33s-15.16,13.9-22.38,44.23l45-8.31L895,696.08Z" style="fill: url(#linear-gradient-43)"></path>
        <path id="Vector_56" data-name="Vector 56" d="M915.56,552.75a14.45,14.45,0,1,1-15-13.9h.18A14.57,14.57,0,0,1,915.56,552.75Z" style="fill: url(#linear-gradient-44)"></path>
        <path id="Vector_57" data-name="Vector 57" d="M901.66,565.57a11.83,11.83,0,1,1-12.27-11.38A11.87,11.87,0,0,1,901.66,565.57Z" style="fill: url(#linear-gradient-45)"></path>
        <path id="Vector_58" data-name="Vector 58" d="M861.41,558.71s30.15-12.46,39.71,6.86c6.68,13.53-1.08,30-17.69,37-15.88,6.68-7.94-42.24-7.94-42.24Z" style="fill: url(#linear-gradient-46)"></path>
        <path id="Vector_59" data-name="Vector 59" d="M862.13,588.31a7.89,7.89,0,1,1-8.66-7A8,8,0,0,1,862.13,588.31Z" style="fill: url(#linear-gradient-47)"></path>
        <path id="Vector_60" data-name="Vector 60" d="M865,609.25l-1.81,20.4c.55,6,4.52,8.85,10.47,8.12,5.06-.54,9.57-3.61,9.57-8.66L882.89,599Z" style="fill: url(#linear-gradient-48)"></path>
        <path id="Vector_61" data-name="Vector 61" d="M863.89,622.57,883,612v-5.33l-18.14,3Z" style="fill: url(#linear-gradient-49)"></path>
        <path id="Vector_62" data-name="Vector 62" d="M870.25,612c-10.1.36-18.77-7.22-19.31-15.53l-1.26-19.49a19.45,19.45,0,0,1,17.14-20.58c10.47-1.08,21.85,6.32,22.93,16.79l.9,15.7C891.37,601.13,882.35,610.52,870.25,612Z" style="fill: url(#linear-gradient-50)"></path>
        <path id="Vector_63" data-name="Vector 63" d="M854.73,562.32s.9,1.8,7.58,1.8,10.29-4,20.22-.36-.9,10.83,3.43,20.94l13.9-7.22-4.69-16.07-12.28-6.68C882.71,554.92,862.49,552.39,854.73,562.32Z" style="fill: url(#linear-gradient-51)"></path>
        <path id="Vector_64" data-name="Vector 64" d="M900.4,587.41a7.89,7.89,0,1,1-8.66-7,7.89,7.89,0,0,1,8.66,7Z" style="fill: url(#linear-gradient-52)"></path>
        <path id="Vector_65" data-name="Vector 65" d="M889.57,576.22s-15-4-15.71-17l13,.9Z" style="fill: url(#linear-gradient-53)"></path>
        <path id="Vector_66" data-name="Vector 66" d="M881.27,560.15s-5.6,13.18-31.59,12.46a17.39,17.39,0,0,1,7.58-12.82Z" style="fill: url(#linear-gradient-54)"></path>
        <path id="Vector_67" data-name="Vector 67" d="M846.79,640.12l-.54-7.22a4.09,4.09,0,0,1,3.79-4.51h52.89c5.41,1.44,5.59,10.65,5.23,12.45L894.8,699.15l-43,.18L845.16,667a21,21,0,0,1-3.25-10.29C841.19,650.77,844.08,643.73,846.79,640.12Z" style="fill: url(#linear-gradient-55)"></path>
        <path id="Vector_68" data-name="Vector 68" d="M841.91,652.58A42.35,42.35,0,0,1,846.79,638" style="fill: none;stroke: #164672;stroke-miterlimit: 10;stroke-width: 0.72000002861023px"></path>
        <path id="Vector_69" data-name="Vector 69" d="M857.9,628.39h30.69s-2.89,9-16.61,8.84C856.64,637.05,857.9,628.39,857.9,628.39Z" style="fill: url(#linear-gradient-56)"></path>
        <path id="Vector_70" data-name="Vector 70" d="M890.83,653.84l36.65,38.81c5,4.88,11.19,7.58,16.43,2.89a13.58,13.58,0,0,0,.9-18.95L912.13,632.9a14.87,14.87,0,0,0-23.82,17.51A8.14,8.14,0,0,0,890.83,653.84Z" style="fill: url(#linear-gradient-57)"></path>
        <path id="Vector_71" data-name="Vector 71" d="M902.39,666.3l-11.56-12.46" style="fill: none;stroke: #164672;stroke-miterlimit: 10;stroke-width: 0.72000002861023px"></path>
        <path id="Vector_72" data-name="Vector 72" d="M859.24,712.33l29.25,8.84a4.73,4.73,0,0,1,2.7,6.14,3.77,3.77,0,0,1-.72,1.08L880.72,741a3.78,3.78,0,0,1-4,1.44l-29.24-8.66a4.75,4.75,0,0,1-2.89-6.14,4.51,4.51,0,0,1,.72-1.26l9.75-12.82A4.51,4.51,0,0,1,859.24,712.33Z" style="fill: url(#linear-gradient-58)"></path>
        <path id="Vector_73" data-name="Vector 73" d="M893.72,715.4l-19,.9a2.1,2.1,0,0,0-1.81,1.8,2.55,2.55,0,0,0,1.63,2.71l5.23,1.45-8.3,9.2a2.8,2.8,0,0,0,.36,3.79c.18,0,.18.18.36.18l3.61,2a10.09,10.09,0,0,0,10.11,0c5.41-2.89,13.54-7.76,15.52-14.26Z" style="fill: url(#linear-gradient-59)"></path>
        <path id="Vector_74" data-name="Vector 74" d="M927.3,678.93l-36.83,34.66,14.8,15.53L945,694.28a11.72,11.72,0,0,0-.36-16.61,24.5,24.5,0,0,0-2.17-1.63A12,12,0,0,0,927.3,678.93Z" style="fill: url(#linear-gradient-60)"></path>
      </g>
    </g>
    <g id="setting">
      <g id="setting-2" data-name="setting">
        <path id="Vector_75" data-name="Vector 75" d="M254.79,412.12H148.44a36.18,36.18,0,0,1-36.18-36.18V300.46a36.18,36.18,0,0,1,36.18-36.18H254.79A36.18,36.18,0,0,1,291,300.46v75.48A36.18,36.18,0,0,1,254.79,412.12Z" style="fill: url(#linear-gradient-61)"></path>
        <path id="Vector_75-2" data-name="Vector 75" d="M951.52,309H845.18A36.19,36.19,0,0,1,809,272.77V197.3a36.19,36.19,0,0,1,36.19-36.19H951.52a36.19,36.19,0,0,1,36.19,36.19v75.47A36.19,36.19,0,0,1,951.52,309Z" style="fill: url(#linear-gradient-62)"></path>
        <path id="SpinCode" data-name="Vector 76" d="M237,328l-5.77-1.08a29.65,29.65,0,0,0-3.07-7.4l3.43-4.88a4.42,4.42,0,0,0-.54-5.77l-3.43-3.61a4.61,4.61,0,0,0-5.78-.36L217,308.33a33.32,33.32,0,0,0-7.41-3.07l-1.08-6a4.61,4.61,0,0,0-4.33-3.79h-5.06a4.63,4.63,0,0,0-4.51,3.79l-1.08,5.78a27.64,27.64,0,0,0-7.22,3.07l-4.88-3.25a4.4,4.4,0,0,0-5.77.54L172,309.05a4.41,4.41,0,0,0-.54,5.78l3.42,4.87a36.23,36.23,0,0,0-3.06,7.22L166.05,328a4.63,4.63,0,0,0-3.79,4.52v5.05a4.62,4.62,0,0,0,3.79,4.51l5.78,1.09a29.4,29.4,0,0,0,3.06,7.4l-3.42,4.87a4.39,4.39,0,0,0,.54,5.78l3.61,3.61a4.42,4.42,0,0,0,5.77.54l4.88-3.43a33.52,33.52,0,0,0,7.4,3.07l1.08,5.78a4.64,4.64,0,0,0,4.52,3.79h5a4.63,4.63,0,0,0,4.51-3.79l1.09-5.78a29.43,29.43,0,0,0,7.4-3.07l4.69,3.43a4.42,4.42,0,0,0,5.78-.54l3.43-3.43a4.44,4.44,0,0,0,.54-5.78l-3.43-5.05a33.92,33.92,0,0,0,3.07-7.4l5.77-1.09a4.48,4.48,0,0,0,3.79-4.51v-5.05A4.82,4.82,0,0,0,237,328Zm-35.38,20.4A13.33,13.33,0,0,1,188.25,335a13.52,13.52,0,0,1,13.54-13.54A13.26,13.26,0,0,1,215.15,335,13.6,13.6,0,0,1,201.61,348.4Z" style="fill: #ebeff3"></path>
        <g>
          <g>
            <path id="Grow1" data-name="Vector 78" d="M878,237.19H859.26v32.13H878Z" style="fill: #fff"></path>
            <path id="Grow2" data-name="Vector 79" d="M906.74,196.75H888v72.57h18.78Z" style="fill: #fff"></path>
            <path id="Grow3" data-name="Vector 80" d="M935.44,211.91H916.67v57.41h18.77Z" style="fill: #fff"></path>
          </g>
          <path id="Vector_81" data-name="Vector 81" d="M843.47,269.32H951.23" style="fill: none;stroke: #fff;stroke-miterlimit: 10;stroke-width: 0.879999995231628px"></path>
        </g>
      </g>
    </g>
    <g id="Rocket">
      <g id="rocket-2" data-name="rocket">
        <path id="Vector_82" data-name="Vector 82" d="M476,448.05l-46.39,56.14a90.42,90.42,0,0,0-21.48,58.31l-8.67,215,88.45-172.94Z" style="fill: url(#linear-gradient-63)"></path>
        <path id="Vector_83" data-name="Vector 83" d="M476,448.05l-31.51,38.14-22.31,247L485,610Z" style="opacity: 0.32;fill: url(#linear-gradient-64)"></path>
        <path id="Vector_84" data-name="Vector 84" d="M627.64,448.05,674,504.19a90.42,90.42,0,0,1,21.48,58.31l8.67,215L615.72,604.56Z" style="fill: url(#linear-gradient-65)"></path>
        <path id="Vector_83-2" data-name="Vector 83" d="M626.86,446.57l31.52,38.13,22.3,247L617.84,608.49Z" style="opacity: 0.32;fill: url(#linear-gradient-66)"></path>
        <path id="Vector_86" data-name="Vector 86" d="M510.12,671l-13.36,39.35s52.89,26.54,112.82-.36l-13.53-39.17Z" style="fill: url(#linear-gradient-67)"></path>
        <path id="Vector_87" data-name="Vector 87" d="M637.38,671.89c-28.34,9.93-56.5,13.18-81.77,13.36-50.18.18-87.73-12.82-87.73-12.82s-6.68-137.37,18.95-330.71c6.14-46.57,14.8-83.58,23.83-112.64,17.33-56.32,36.28-82.14,41.16-88.28a2.22,2.22,0,0,1,1.44-.72,2,2,0,0,1,1.45.36c9.2,6.86,25.45,41.88,40.07,90.44A709.41,709.41,0,0,1,617.53,335.4C634.86,458.34,637.38,671.89,637.38,671.89Z" style="fill: url(#linear-gradient-68)"></path>
        <g id="Group">
          <path id="Vector_88" data-name="Vector 88" d="M594.78,230.88a87.13,87.13,0,0,1-41.16,9.75,92.43,92.43,0,0,1-43-11.55c17.33-56.32,36.28-82.14,41.16-88.28a2.22,2.22,0,0,1,1.44-.72,2,2,0,0,1,1.45.36C563.91,147.3,580.34,182.32,594.78,230.88Z" style="fill: url(#linear-gradient-69)"></path>
          <path id="Vector_89" data-name="Vector 89" d="M637.38,671.89c-28.34,9.93-56.5,13.18-81.77,13.36l-2-444.62-.54-100.55a2,2,0,0,1,1.45.36c9.2,6.86,25.45,41.88,40.07,90.44A709.41,709.41,0,0,1,617.35,335.4C634.86,458.34,637.38,671.89,637.38,671.89Z" style="opacity: 0.18;fill: url(#linear-gradient-70)"></path>
        </g>
        <path id="Vector_90" data-name="Vector 90" d="M552,415.74a45.13,45.13,0,1,0-45.13-45.13A45.15,45.15,0,0,0,552,415.74Z" style="opacity: 0.72;fill: url(#linear-gradient-71)"></path>
        <path id="Vector_91" data-name="Vector 91" d="M552.18,402.38a31.78,31.78,0,1,0-31.77-31.77A31.82,31.82,0,0,0,552.18,402.38Z" style="fill: url(#linear-gradient-72)"></path>
        <path id="Vector_92" data-name="Vector 92" d="M553.26,439.38s-5.41,17-7,93,4.52,261,4.52,261h9.38l-.18-261.21C559.76,532.17,558.86,469.17,553.26,439.38Z" style="fill: url(#linear-gradient-73)"></path>
      </g>
    </g>
  </svg>